<svg xmlns="http://www.w3.org/2000/svg" width="886.066" height="884.553" viewBox="0 0 886.066 884.553">
  <g id="_2772436334672" data-name=" 2772436334672" transform="translate(-993.558 -265.908)">
    <g id="Grupo_185" data-name="Grupo 185" transform="translate(960.244 265.908)">
      <path id="Caminho_250" data-name="Caminho 250" d="M2177.08,754.444,2001.5,654.367V870.326L2177.08,970.4ZM2000.44,649.126l180.732,102.942V977.445c-65.073-37.1-118.77-67.481-183.761-104.744V647.325Z" transform="translate(-1298.299 -394.595)" fill="#fff"/>
      <path id="Caminho_251" data-name="Caminho 251" d="M1260.829,642.2l175.657-99.995V758.168l-175.657,99.995Zm176.64-105.318L1256.736,639.829V865.205c65.156-37.017,118.77-67.482,183.844-104.663V535.166Z" transform="translate(-1097.367 -364.169)" fill="#fff"/>
      <g id="Grupo_156" data-name="Grupo 156" transform="translate(381.191 7.434)">
        <g id="Grupo_153" data-name="Grupo 153">
          <path id="Caminho_252" data-name="Caminho 252" d="M1572.307,644.946l-8.922-304.324c-.246-26.452,32.66-35.788,50.5-26.288l196.285,113.1c11.787,7.125,11.378,19.655,11.378,43.323l-8.186,310.22-10.559,5.978Z" transform="translate(-1561.746 -310.713)" fill="#fbc701" fill-rule="evenodd"/>
          <path id="Caminho_253" data-name="Caminho 253" d="M1842.6,483.582c3.274,7.535,3.111,18.345,3.111,34.069V1013.61c-.328,9.418-5.73,20.228-10.559,22.439l-17.026,9.582L1652.459,936.874l164.935-435.766Z" transform="translate(-1585.911 -357.609)" fill="#f87000" fill-rule="evenodd"/>
          <path id="Caminho_254" data-name="Caminho 254" d="M1561.138,350.008c-.164-26.534,12.523-29.892,30.367-20.392l199.314,112.36c11.787,7.125,11.377,19.737,11.377,43.323V978.638c.164,26.452-12.524,29.892-30.368,20.392L1572.6,886.67c-11.869-7.125-11.378-19.737-11.378-43.323C1561.22,650.237,1561.138,543.118,1561.138,350.008Z" transform="translate(-1561.137 -314.529)" fill="#f3f3f3" fill-rule="evenodd"/>
          <path id="Caminho_255" data-name="Caminho 255" d="M1578.739,875.217,1775.106,985.94c14.57,8.026,22.919,6.224,22.837-14.66V506.688c0-14.577,1.719-31.366-8.431-37.345L1587.17,355.918c-4.011-2.293-9-2.457-12.114-.164-4.338,3.112-4.748,12.2-4.748,17.526V837.874C1570.308,853.024,1568.589,868.993,1578.739,875.217Z" transform="translate(-1563.595 -322.487)" fill="#a2ecfe" fill-rule="evenodd"/>
          <path id="Caminho_256" data-name="Caminho 256" d="M1901.442,737.88c2.456-.655,4.339,1.884,4.339,5.651v39.392c0,9.09-8.677,11.465-8.677,2.457V745.988C1897.1,742.22,1899.069,738.535,1901.442,737.88Zm0-129.149c2.456-.737,4.339,1.884,4.339,5.651v99.585c0,9.091-8.677,11.466-8.677,2.457V616.757C1897.1,612.989,1899.069,609.386,1901.442,608.731Z" transform="translate(-1652.279 -391.526)" fill="#005c99" fill-rule="evenodd"/>
          <path id="Caminho_257" data-name="Caminho 257" d="M1905.374,608.628c2.456-.655,4.338,1.965,4.338,5.733v99.585c0,9.091-8.677,11.466-8.677,2.457V616.735C1901.035,612.968,1903,609.364,1905.374,608.628Z" transform="translate(-1653.345 -391.504)" fill="#01bcf3" fill-rule="evenodd"/>
          <path id="Caminho_258" data-name="Caminho 258" d="M1906.349,741.349c5.075-1.392-1.719,11.22-1.719,3.276C1904.63,743.068,1905.367,741.594,1906.349,741.349Z" transform="translate(-1654.32 -427.507)" fill="#4d3642" fill-rule="evenodd"/>
          <path id="Caminho_259" data-name="Caminho 259" d="M1905.374,785.967c2.456-.655,4.338,1.884,4.338,5.651v39.392c0,9.09-8.677,11.465-8.677,2.457V794.074C1901.035,790.307,1903,786.622,1905.374,785.967Z" transform="translate(-1653.345 -439.612)" fill="#01bcf3" fill-rule="evenodd"/>
          <path id="Caminho_260" data-name="Caminho 260" d="M1578.772,872.73c24.392,13.677,194.729,111.624,204.961,114.162,10.4,2.62,11.95-4.832,11.869-16.379V505.92c.082-14.987,1.636-30.3-7.531-35.625L1585.811,356.87c-11.3-6.306-14.652,4.013-14.57,15.56V837.105C1571.159,852.747,1569.686,867.161,1578.772,872.73Zm194.975,114.244L1574.106,873.794c-6.958-6.715-6.221-22.275-6.139-33.249.327-63.06-1.474-466.559.818-478.106,2.292-12.039,11.3-13.021,18.335-9.091L1792.737,469.23c6.957,6.716,6.22,22.275,6.139,33.25-.327,63.06,1.473,466.559-.819,478.024C1794.783,997.784,1778,990.168,1773.747,986.974Z" transform="translate(-1562.891 -321.718)" fill="#19b5ff"/>
        </g>
        <g id="Grupo_154" data-name="Grupo 154" transform="translate(56.112 270.273)">
          <path id="Caminho_261" data-name="Caminho 261" d="M1685.817,681.6c31.76,0,62.536,34.4,68.512,76.736,6.057,42.422-14.816,76.818-46.575,76.818-31.841,0-62.536-34.4-68.594-76.818C1633.186,716,1653.977,681.6,1685.817,681.6Z" transform="translate(-1638.137 -681.601)" fill="#0072c5" fill-rule="evenodd"/>
          <path id="Caminho_262" data-name="Caminho 262" d="M1688.516,732.286v71.577l48.13-12.939Z" transform="translate(-1651.804 -695.351)" fill="#fefefe" fill-rule="evenodd"/>
        </g>
        <g id="Grupo_155" data-name="Grupo 155" transform="translate(47.558 425.3)">
          <path id="Caminho_263" data-name="Caminho 263" d="M1752.746,964.353l-103.791-59.129c-2.537-1.392-4.584-.491-4.584,1.965v2.457c0,2.539,2.046,5.733,4.584,7.125L1752.746,975.9c2.537,1.474,4.584.573,4.584-1.965v-2.457C1757.33,969.021,1755.284,965.827,1752.746,964.353Z" transform="translate(-1631.276 -897.115)" fill="#fff" fill-rule="evenodd"/>
          <path id="Caminho_264" data-name="Caminho 264" d="M1719.14,945.281,1630.984,895c-2.537-1.392-4.583-.491-4.583,1.966v2.456c0,2.539,2.046,5.733,4.583,7.125l88.156,50.285Z" transform="translate(-1626.4 -894.341)" fill="#005c99" fill-rule="evenodd"/>
          <path id="Caminho_265" data-name="Caminho 265" d="M1748.751,953.456c5.566,0,10.969,6.06,12.032,13.513.982,7.453-2.619,13.431-8.185,13.431-5.648,0-10.969-5.978-12.033-13.431S1743.1,953.456,1748.751,953.456Z" transform="translate(-1657.321 -910.378)" fill="#f87000" fill-rule="evenodd"/>
          <path id="Caminho_266" data-name="Caminho 266" d="M1751.731,967.166c1.882,0,3.683,1.966,4.011,4.505.409,2.456-.818,4.422-2.7,4.422s-3.684-1.965-4.011-4.422C1748.62,969.132,1749.848,967.166,1751.731,967.166Z" transform="translate(-1659.646 -914.097)" fill="#fff" fill-rule="evenodd"/>
        </g>
      </g>
      <g id="Grupo_159" data-name="Grupo 159" transform="translate(201.687 0)">
        <g id="Grupo_157" data-name="Grupo 157" transform="translate(28.321 150.36)">
          <path id="Caminho_267" data-name="Caminho 267" d="M1435.773,565.959v13.185c0,13.021-18.335,23.586-41.009,23.586s-41.091-10.564-41.091-23.586V565.959Z" transform="translate(-1353.673 -522.882)" fill="#0072c5" fill-rule="evenodd"/>
          <path id="Caminho_268" data-name="Caminho 268" d="M1394.764,533.593c22.673,0,41.009,10.564,41.009,23.586s-18.335,23.586-41.009,23.586-41.091-10.565-41.091-23.586S1372.091,533.593,1394.764,533.593Z" transform="translate(-1353.673 -514.102)" fill="#00447c" fill-rule="evenodd"/>
          <path id="Caminho_269" data-name="Caminho 269" d="M1435.773,539.324v13.185c0,13.021-18.335,23.586-41.009,23.586s-41.091-10.564-41.091-23.586V539.324Z" transform="translate(-1353.673 -515.657)" fill="#0072c5" fill-rule="evenodd"/>
          <path id="Caminho_270" data-name="Caminho 270" d="M1394.764,506.846c22.673,0,41.009,10.564,41.009,23.667,0,13.021-18.335,23.586-41.009,23.586s-41.091-10.565-41.091-23.586C1353.673,517.41,1372.091,506.846,1394.764,506.846Z" transform="translate(-1353.673 -506.846)" fill="#00447c" fill-rule="evenodd"/>
        </g>
        <g id="Grupo_158" data-name="Grupo 158">
          <path id="Caminho_271" data-name="Caminho 271" d="M1319.557,351.677c5.075-12.038,15.47-27.844,37.079-42.176h4.829c-3.11,6.061-8.922,13.922-19.809,20.965h42.564v160.27c19.4,0,35.2-10.237,35.2-22.767,0,0,1.146-10.646,17.6-30.71,16.534-19.983,16.534-49.957,16.534-49.957h0V371.169a44.939,44.939,0,0,0-.246-4.751,40.9,40.9,0,0,0-4.42-14.741c-5.075-12.038-15.552-27.844-37.162-42.176h-4.748c3.111,6.061,8.922,13.922,19.727,20.965h-42.482v160.27c-19.482,0-35.2-10.237-35.2-22.767,0,0-1.146-10.646-17.681-30.71-16.452-19.983-16.452-49.957-16.452-49.957h0a13.919,13.919,0,0,1-.082-1.8V371.169a44.939,44.939,0,0,1,.246-4.751A42.621,42.621,0,0,1,1319.557,351.677Z" transform="translate(-1314.809 -302.95)" fill="#fda101" fill-rule="evenodd"/>
          <path id="Caminho_272" data-name="Caminho 272" d="M1394.216,355.463c23.491,0,42.482-12.285,42.482-27.435,0-15.232-18.99-27.516-42.482-27.516v54.952Zm0,0c-23.493,0-42.564-12.285-42.564-27.435,0-15.232,19.072-27.516,42.564-27.516v54.952Z" transform="translate(-1324.804 -300.511)" fill="#fdc519" fill-rule="evenodd"/>
          <path id="Caminho_273" data-name="Caminho 273" d="M1373.831,418.172a2.2,2.2,0,1,1-3.111-3.112l10.478-10.483,10.559,10.483a2.279,2.279,0,0,1,0,3.112,2.127,2.127,0,0,1-3.11,0l-7.449-7.453Z" transform="translate(-1329.794 -328.742)" fill="#fde02d" fill-rule="evenodd"/>
          <path id="Caminho_274" data-name="Caminho 274" d="M1416.378,415.06a2.2,2.2,0,1,1-3.11,3.112l-7.367-7.453-7.449,7.453a2.127,2.127,0,0,1-3.11,0,2.279,2.279,0,0,1,0-3.112l10.559-10.483Z" transform="translate(-1336.49 -328.742)" fill="#fde02d" fill-rule="evenodd"/>
          <path id="Caminho_275" data-name="Caminho 275" d="M1423.052,418.172a2.127,2.127,0,0,1-3.11,0,2.279,2.279,0,0,1,0-3.112l10.559-10.483,10.559,10.483a2.279,2.279,0,0,1,0,3.112,2.127,2.127,0,0,1-3.11,0l-7.449-7.453Z" transform="translate(-1343.163 -328.742)" fill="#fde02d" fill-rule="evenodd"/>
          <path id="Caminho_276" data-name="Caminho 276" d="M1386.9,487.965a2.88,2.88,0,0,1-2.62,3.194,2.921,2.921,0,0,1-3.192-2.539l-3.192-30.056L1360.376,429a3,3,0,0,1,.982-4.013,2.917,2.917,0,0,1,4.011.983l18.171,30.711Z" transform="translate(-1327.062 -334.165)" fill="#fde02d" fill-rule="evenodd"/>
          <path id="Caminho_277" data-name="Caminho 277" d="M1428.921,488.62a2.875,2.875,0,0,1-3.193,2.539,2.82,2.82,0,0,1-2.537-3.194l3.274-31.284,18.171-30.711a2.956,2.956,0,0,1,5.075,3.03l-17.6,29.564Z" transform="translate(-1344.203 -334.165)" fill="#fde02d" fill-rule="evenodd"/>
          <path id="Caminho_278" data-name="Caminho 278" d="M1404.027,344.77c8.922,0,16.125-4.668,16.125-10.4,0-5.814-7.2-10.483-16.125-10.483V344.77Zm0,0c-8.922,0-16.208-4.668-16.208-10.4,0-5.814,7.285-10.483,16.208-10.483V344.77Z" transform="translate(-1334.615 -306.852)" fill="#fda101" fill-rule="evenodd"/>
        </g>
      </g>
      <g id="Grupo_163" data-name="Grupo 163" transform="translate(33.314 221.527)">
        <g id="Grupo_160" data-name="Grupo 160" transform="translate(21.446 96.145)">
          <path id="Caminho_279" data-name="Caminho 279" d="M1204.942,883.29l-91.758-52.331v30.465l91.758,52.249Z" transform="translate(-1113.185 -762.084)" fill="#c9caca" fill-rule="evenodd"/>
          <path id="Caminho_280" data-name="Caminho 280" d="M1239.1,877.1v30.383l120.98-68.874V808.145Z" transform="translate(-1147.343 -755.895)" fill="#fefefe" fill-rule="evenodd"/>
          <path id="Caminho_281" data-name="Caminho 281" d="M1113.185,805.318l120.9-68.874,91.84,52.249-120.98,68.956Z" transform="translate(-1113.185 -736.444)" fill="#fbc701" fill-rule="evenodd"/>
          <path id="Caminho_282" data-name="Caminho 282" d="M1204.942,883.29l-91.758-52.331v7.78l91.758,52.249Z" transform="translate(-1113.185 -762.084)" fill="#cf3200" fill-rule="evenodd"/>
          <path id="Caminho_283" data-name="Caminho 283" d="M1239.1,877.1v7.7l120.98-68.874v-7.78Z" transform="translate(-1147.343 -755.895)" fill="#f87000" fill-rule="evenodd"/>
          <path id="Caminho_284" data-name="Caminho 284" d="M1204.942,914.42l-91.758-52.331v7.78l91.758,52.25Z" transform="translate(-1113.185 -770.529)" fill="#cf3200" fill-rule="evenodd"/>
          <path id="Caminho_285" data-name="Caminho 285" d="M1239.1,908.231v7.7l120.98-68.874v-7.78Z" transform="translate(-1147.343 -764.34)" fill="#f87000" fill-rule="evenodd"/>
          <path id="Caminho_286" data-name="Caminho 286" d="M1118.914,834.234l-5.73-3.276v30.465l5.73,3.276Z" transform="translate(-1113.185 -762.084)" fill="#cf3200" fill-rule="evenodd"/>
        </g>
        <g id="Grupo_161" data-name="Grupo 161" transform="translate(1.555 55.116)">
          <path id="Caminho_287" data-name="Caminho 287" d="M1177.647,826.986l-91.758-52.331V805.12l91.758,52.331Z" transform="translate(-1085.889 -705.78)" fill="#c9caca" fill-rule="evenodd"/>
          <path id="Caminho_288" data-name="Caminho 288" d="M1211.806,820.827v30.465l120.98-68.956V751.953Z" transform="translate(-1120.048 -699.622)" fill="#fefefe" fill-rule="evenodd"/>
          <path id="Caminho_289" data-name="Caminho 289" d="M1085.889,749.015l120.9-68.874,91.84,52.331-120.98,68.874Z" transform="translate(-1085.889 -680.14)" fill="#e69fcf" fill-rule="evenodd"/>
          <path id="Caminho_290" data-name="Caminho 290" d="M1177.647,826.986l-91.758-52.331v7.78l91.758,52.331Z" transform="translate(-1085.889 -705.78)" fill="#671a75" fill-rule="evenodd"/>
          <path id="Caminho_291" data-name="Caminho 291" d="M1211.806,820.827v7.78l120.98-68.956v-7.7Z" transform="translate(-1120.048 -699.622)" fill="#bb63af" fill-rule="evenodd"/>
          <path id="Caminho_292" data-name="Caminho 292" d="M1177.647,858.116l-91.758-52.331v7.78l91.758,52.331Z" transform="translate(-1085.889 -714.225)" fill="#671a75" fill-rule="evenodd"/>
          <path id="Caminho_293" data-name="Caminho 293" d="M1211.806,851.957v7.78l120.98-68.956v-7.7Z" transform="translate(-1120.048 -708.067)" fill="#bb63af" fill-rule="evenodd"/>
          <path id="Caminho_294" data-name="Caminho 294" d="M1091.619,777.93l-5.73-3.276V805.12l5.73,3.276Z" transform="translate(-1085.889 -705.78)" fill="#671a75" fill-rule="evenodd"/>
        </g>
        <g id="Grupo_162" data-name="Grupo 162">
          <path id="Caminho_295" data-name="Caminho 295" d="M1193.119,744.1l-66.793-38V752.29l42.4,24.159Z" transform="translate(-1095.304 -632.067)" fill="#00447c" fill-rule="evenodd"/>
          <path id="Caminho_296" data-name="Caminho 296" d="M1217.984,743.247l24.311,32.349,46.493-26.452V702.954Z" transform="translate(-1120.169 -631.214)" fill="#01bcf3" fill-rule="evenodd"/>
          <path id="Caminho_297" data-name="Caminho 297" d="M1233.214,775.717h-48.7V703.4h48.7Z" transform="translate(-1111.088 -631.336)" fill="#0072c5" fill-rule="evenodd"/>
          <path id="Caminho_298" data-name="Caminho 298" d="M1181.57,736.616l-97.815-55.689v9.008l97.815,55.771Z" transform="translate(-1083.755 -625.238)" fill="#00447c" fill-rule="evenodd"/>
          <path id="Caminho_299" data-name="Caminho 299" d="M1217.984,736.616v9.09l97.733-55.771v-9.008Z" transform="translate(-1120.169 -625.238)" fill="#0072c5" fill-rule="evenodd"/>
          <path id="Caminho_300" data-name="Caminho 300" d="M1083.755,660.2l97.815-55.689L1279.3,660.2l-97.733,55.689Z" transform="translate(-1083.755 -604.507)" fill="#01bcf3" fill-rule="evenodd"/>
          <path id="Caminho_301" data-name="Caminho 301" d="M1220.68,684.978l13.1-7.534,44.2,25.142L1264.8,710.12Z" transform="translate(-1120.9 -624.293)" fill="#fbc701" fill-rule="evenodd"/>
          <path id="Caminho_302" data-name="Caminho 302" d="M1281.223,719.479V769.6l13.178-7.534v-50.12Z" transform="translate(-1137.325 -633.653)" fill="#f87000" fill-rule="evenodd"/>
        </g>
      </g>
      <g id="Grupo_173" data-name="Grupo 173" transform="translate(199.068 428.313)">
        <g id="Grupo_164" data-name="Grupo 164" transform="translate(62.455 31.059)">
          <path id="Caminho_303" data-name="Caminho 303" d="M1755.929,1091.981v16.543c0,3.358-2.292,6.715-6.712,9.254l-98.634,56.181c-8.84,5-23.492,5.078-32.414,0l-214.538-122.27c-4.42-2.539-6.712-5.9-6.712-9.254v-16.379Z" transform="translate(-1396.919 -956.71)" fill="#f87000" fill-rule="evenodd"/>
          <path id="Caminho_304" data-name="Caminho 304" d="M1403.638,990.822l98.634-56.18c8.922-5,23.492-5,32.413,0l214.539,122.27c8.922,5.078,8.922,13.431,0,18.426l-98.634,56.18c-8.84,5.078-23.492,5.078-32.414,0l-214.538-122.188C1394.716,1004.253,1394.716,995.9,1403.638,990.822Z" transform="translate(-1396.927 -930.895)" fill="#fbc701" fill-rule="evenodd"/>
        </g>
        <g id="Grupo_165" data-name="Grupo 165" transform="translate(149.956 64.452)">
          <path id="Caminho_305" data-name="Caminho 305" d="M1572.371,1042.2l59.508-33.9v4.177l-59.508,33.9Z" transform="translate(-1532.017 -985.286)" fill="#00447c" fill-rule="evenodd"/>
          <path id="Caminho_306" data-name="Caminho 306" d="M1557.349,1046.258v4.177l-40.354-23.013v-4.177Z" transform="translate(-1516.995 -989.341)" fill="#0072c5" fill-rule="evenodd"/>
          <path id="Caminho_307" data-name="Caminho 307" d="M1616.856,999.732l-40.436-23.013-59.426,33.9,40.354,23.013Z" transform="translate(-1516.995 -976.719)" fill="#01bcf3" fill-rule="evenodd"/>
          <path id="Caminho_308" data-name="Caminho 308" d="M1614.862,1000.386l-31.432-17.935-46.329,26.37,31.514,17.935Z" transform="translate(-1522.449 -978.274)" fill="#fff" fill-rule="evenodd"/>
        </g>
        <g id="Grupo_166" data-name="Grupo 166" transform="translate(263.978 138.485)">
          <path id="Caminho_309" data-name="Caminho 309" d="M1764.24,1100.671l-39.372-22.358-51.4,29.237,39.372,22.357Z" transform="translate(-1673.464 -1078.313)" fill="#f0f0eb" fill-rule="evenodd"/>
          <path id="Caminho_310" data-name="Caminho 310" d="M1784.04,1101.345l-39.372-22.358-51.322,29.237,39.29,22.439Z" transform="translate(-1678.858 -1078.496)" fill="#fff" fill-rule="evenodd"/>
          <path id="Caminho_311" data-name="Caminho 311" d="M1789.066,1104.268l-30.777-17.526-9.9,5.651,30.777,17.444Z" transform="translate(-1693.789 -1080.6)" fill="#f5443a" fill-rule="evenodd"/>
          <path id="Caminho_312" data-name="Caminho 312" d="M1749.031,1104.8l-8.677-4.914-2.865,1.556,8.758,5Z" transform="translate(-1690.833 -1084.167)" fill="#01bcf3" fill-rule="evenodd"/>
        </g>
        <g id="Grupo_172" data-name="Grupo 172">
          <path id="Caminho_313" data-name="Caminho 313" d="M1494.008,1228.5l-113.04-15.642,2.292-44.306,80.462,18.017,26.93,8.271,85.865,65.107,7.039-15.069,6.548-2.457-.164,35.788-6.057,2.7-7.858-6.879-2.619,5.159Z" transform="translate(-1330.137 -964.309)" fill="#001f4f" fill-rule="evenodd"/>
          <g id="Grupo_167" data-name="Grupo 167" transform="translate(36.507 308.009)">
            <path id="Caminho_314" data-name="Caminho 314" d="M1361.311,1454.021v6.552a3.387,3.387,0,0,0,2.047,2.7l6.139,3.521a10.408,10.408,0,0,0,9.577,0l61.308-34.887a3.273,3.273,0,0,0,1.965-2.7v-6.551Z" transform="translate(-1361.311 -1341.251)" fill="#00447c" fill-rule="evenodd"/>
            <path id="Caminho_315" data-name="Caminho 315" d="M1442.347,1454.021v6.552a3.274,3.274,0,0,1-1.965,2.7l-6.139,3.521a10.577,10.577,0,0,1-9.659,0l-61.226-34.887a3.386,3.386,0,0,1-2.047-2.7v-6.551Z" transform="translate(-1361.311 -1341.251)" fill="#00447c" fill-rule="evenodd"/>
            <path id="Caminho_316" data-name="Caminho 316" d="M1363.366,1417.111l6.139-3.522a10.922,10.922,0,0,1,9.577,0l61.308,34.887c2.619,1.556,2.619,4.013,0,5.487l-6.139,3.522a11.1,11.1,0,0,1-9.659,0l-61.226-34.888C1360.664,1421.042,1360.664,1418.585,1363.366,1417.111Z" transform="translate(-1361.319 -1338.491)" fill="#005c99" fill-rule="evenodd"/>
            <path id="Caminho_317" data-name="Caminho 317" d="M1440.39,1417.111l-6.139-3.522a11.1,11.1,0,0,0-9.659,0l-61.226,34.887c-2.7,1.556-2.7,4.013,0,5.487l6.139,3.522a10.926,10.926,0,0,0,9.577,0l61.308-34.888C1443.009,1421.042,1443.009,1418.585,1440.39,1417.111Z" transform="translate(-1361.319 -1338.491)" fill="#005c99" fill-rule="evenodd"/>
            <path id="Caminho_318" data-name="Caminho 318" d="M1423.579,1310.946v96.391a1.537,1.537,0,0,1-.982,1.229l-6.794,3.849a4.533,4.533,0,0,1-4.338,0l-6.794-3.849a1.422,1.422,0,0,1-.9-1.229v-96.391Z" transform="translate(-1372.83 -1310.946)" fill="#00447c" fill-rule="evenodd"/>
          </g>
          <g id="Grupo_168" data-name="Grupo 168" transform="translate(4.83 244.315)">
            <path id="Caminho_319" data-name="Caminho 319" d="M1374.485,1270.709c8.84-4.914,23.164-4.832,31.923.163l14.161,8.026,42.318,7.534v21.948c0,3.357-2.209,6.633-6.63,9.172l-49.849,28.336c-8.84,5.078-23.328,5.078-32.168,0l-49.767-28.336c-4.42-2.539-6.63-5.815-6.63-9.172V1286.6l42.318-18.426Z" transform="translate(-1317.842 -1235.35)" fill="#fbc701" fill-rule="evenodd"/>
            <path id="Caminho_320" data-name="Caminho 320" d="M1374.485,1257.32c8.84-4.914,23.164-4.914,31.923.082l14.161,8.108,42.318,7.535v21.948c0,3.276-2.209,6.634-6.63,9.172l-49.849,28.336c-8.84,5.077-23.328,5.077-32.168,0l-49.767-28.336c-4.42-2.539-6.63-5.9-6.63-9.172v-21.784l42.318-18.426Z" transform="translate(-1317.842 -1231.707)" fill="#00447c" fill-rule="evenodd"/>
            <path id="Caminho_321" data-name="Caminho 321" d="M1324.472,1255.7l49.767-28.418c8.84-5,23.328-5,32.169,0l49.849,28.418c8.84,5,8.84,13.267,0,18.262l-49.849,28.418c-8.84,5.078-23.329,5.078-32.169,0l-49.767-28.418C1315.632,1268.972,1315.632,1260.7,1324.472,1255.7Z" transform="translate(-1317.842 -1223.54)" fill="#01bcf3" fill-rule="evenodd"/>
          </g>
          <path id="Caminho_322" data-name="Caminho 322" d="M1472.41,992.835l-24.638-7.125-10.641,37.017,23.983,9.254Z" transform="translate(-1345.373 -914.706)" fill="#de544a" fill-rule="evenodd"/>
          <path id="Caminho_323" data-name="Caminho 323" d="M1356.477,1255.643l43.546,24.651,26.848-1.474,61.145-36.443-18.335,113.917,10.15,2.948-1.719,11.875,7.94,3.849,40.027-15.97-6.548-8.6-26.03-.9,28.813-136.683-18.663-13.349-58.689,21.129-91.512,6.306Z" transform="translate(-1322.672 -972.693)" fill="#00447c" fill-rule="evenodd"/>
          <path id="Caminho_324" data-name="Caminho 324" d="M1373.667,1199.925l38.062,16.871,52.3-27.271-2.292-28.5,4.175-116.292-12.605-14.168-49.849-17.771-15.88,13.513Z" transform="translate(-1328.156 -922.054)" fill="#911e3f" fill-rule="evenodd"/>
          <g id="Grupo_171" data-name="Grupo 171" transform="translate(0 149.053)">
            <g id="Grupo_169" data-name="Grupo 169">
              <path id="Caminho_325" data-name="Caminho 325" d="M1415.308,1137.445l-76.124-43.322c-2.456-1.393-4.748-1.638-6.384-.9h0l-14.734,8.353,89.3,126.61,14.652-8.436c1.391-.737,2.209-2.293,2.209-4.586v-63.715C1424.23,1146.535,1420.219,1140.229,1415.308,1137.445Z" transform="translate(-1313.073 -1092.815)" fill="#f87000" fill-rule="evenodd"/>
              <path id="Caminho_326" data-name="Caminho 326" d="M1402.25,1146.969l-76.124-43.323c-2.537-1.474-4.748-1.72-6.384-.982h0l-5.157,2.948,89.221,126.61,5.156-2.948c1.392-.819,2.21-2.375,2.21-4.587v-63.8C1411.171,1156.058,1407.16,1149.753,1402.25,1146.969Z" transform="translate(-1312.128 -1095.377)" fill="#005c99" fill-rule="evenodd"/>
              <path id="Caminho_327" data-name="Caminho 327" d="M1396.26,1150.921l-76.124-43.322c-4.912-2.784-8.922-1.065-8.922,3.849v63.715c0,4.914,4.011,11.219,8.922,14l76.124,43.323c4.911,2.784,8.922,1.065,8.922-3.849v-63.715C1405.182,1160.012,1401.171,1153.706,1396.26,1150.921Z" transform="translate(-1311.214 -1096.464)" fill="#01bcf3" fill-rule="evenodd"/>
            </g>
            <g id="Grupo_170" data-name="Grupo 170" transform="translate(23.328 82.468)">
              <path id="Caminho_328" data-name="Caminho 328" d="M1364.146,1211.959l-8.676-5c-1.883-1.065-3.6-1.229-4.829-.655h0l-4.829,2.539,18.662,118.421,4.829-2.539a3.815,3.815,0,0,0,1.637-3.44v-98.766C1370.939,1218.839,1367.829,1214.007,1364.146,1211.959Z" transform="translate(-1343.928 -1205.983)" fill="#005c99" fill-rule="evenodd"/>
              <path id="Caminho_329" data-name="Caminho 329" d="M1358.7,1215.347l-8.677-4.914c-3.684-2.129-6.794-.819-6.794,2.948v98.684c0,3.685,3.11,8.517,6.794,10.647l8.677,4.914c3.683,2.129,6.711.819,6.711-2.948v-98.684C1365.409,1222.308,1362.381,1217.476,1358.7,1215.347Z" transform="translate(-1343.227 -1206.914)" fill="#01bcf3" fill-rule="evenodd"/>
            </g>
          </g>
          <path id="Caminho_330" data-name="Caminho 330" d="M1453.257,907.068l-4.584,20.884-6.712,48.728,28.4,10.647s23.82-6.8,32.5-20.884,8.431-51.758,8.431-51.758l-39.863-10.564Z" transform="translate(-1346.683 -892.573)" fill="#de544a" fill-rule="evenodd"/>
          <path id="Caminho_331" data-name="Caminho 331" d="M1432.526,931.187l5.975,44.551,29.877,10.728,17.762-29.073-4.093-11.056,4.829-12.121,9.577,5.569,14.488-26.7.245-9.827-33.805-14.987-16.616,9.582-21.691,4.259Z" transform="translate(-1344.124 -888.274)" fill="#001f4f" fill-rule="evenodd"/>
          <path id="Caminho_332" data-name="Caminho 332" d="M1526.381,1084.494l-11.3,18.672,54.6,24.733,60.735-10.974,24.883.9-1.8-6.879-23.083-10.646-14.816,2.375-43.874,4.177Z" transform="translate(-1366.521 -941.505)" fill="#de544a" fill-rule="evenodd"/>
          <path id="Caminho_333" data-name="Caminho 333" d="M1519.682,1063.956l-36.1-19.245-16.125,18.263,11.951,23.176,28.731,11.547,15.634-20.146Z" transform="translate(-1353.6 -930.712)" fill="#911e3f" fill-rule="evenodd"/>
        </g>
      </g>
      <g id="Grupo_174" data-name="Grupo 174" transform="translate(407.14 101.339)">
        <path id="Caminho_334" data-name="Caminho 334" d="M1782.611,537.652,1611.865,440.36a3.653,3.653,0,0,0-4.011-.327h0l-9.086,6.879L1777.7,632.9l9.086-6.961a4.385,4.385,0,0,0,1.31-3.521V547.562A12.8,12.8,0,0,0,1782.611,537.652Z" transform="translate(-1597.295 -439.576)" fill="#0072c5" fill-rule="evenodd"/>
        <path id="Caminho_335" data-name="Caminho 335" d="M1773.059,547.111,1602.23,449.819c-3.029-1.72-5.484-.327-5.484,3.276v74.852a12.951,12.951,0,0,0,5.484,9.991l170.828,97.292c3.029,1.8,5.484.328,5.484-3.357V557.021A12.931,12.931,0,0,0,1773.059,547.111Z" transform="translate(-1596.746 -442.156)" fill="#01bcf3" fill-rule="evenodd"/>
        <path id="Caminho_336" data-name="Caminho 336" d="M1762.979,558.955l-144.553-82.387c-3.193-1.72-5.73-.328-5.73,3.44V493.6c0,3.685,2.619,8.353,5.73,10.155l144.553,82.387c3.11,1.884,5.648.327,5.648-3.358V569.192A13.221,13.221,0,0,0,1762.979,558.955Z" transform="translate(-1601.073 -449.414)" fill="#0072c5" fill-rule="evenodd"/>
        <path id="Caminho_337" data-name="Caminho 337" d="M1764.168,558.952l-144.553-82.387a5.65,5.65,0,0,0-2.046-.737,5.341,5.341,0,0,0-.491,2.375V491.8a13.305,13.305,0,0,0,5.729,10.237L1767.36,584.34a4.669,4.669,0,0,0,2.046.818,6.85,6.85,0,0,0,.41-2.375V569.189A13.221,13.221,0,0,0,1764.168,558.952Z" transform="translate(-1602.262 -449.411)" fill="#fff" fill-rule="evenodd"/>
        <path id="Caminho_338" data-name="Caminho 338" d="M1762.979,606.48l-144.553-82.387c-3.193-1.8-5.73-.328-5.73,3.44v13.594c0,3.685,2.619,8.353,5.73,10.155l144.553,82.387c3.11,1.884,5.648.327,5.648-3.358V616.717A13.221,13.221,0,0,0,1762.979,606.48Z" transform="translate(-1601.073 -462.297)" fill="#0072c5" fill-rule="evenodd"/>
        <path id="Caminho_339" data-name="Caminho 339" d="M1764.168,606.49,1619.615,524.1a5.648,5.648,0,0,0-2.046-.737,5.341,5.341,0,0,0-.491,2.375v13.595a13.3,13.3,0,0,0,5.729,10.237l144.554,82.305a4.668,4.668,0,0,0,2.046.818,6.849,6.849,0,0,0,.41-2.375V616.727A13.221,13.221,0,0,0,1764.168,606.49Z" transform="translate(-1602.262 -462.307)" fill="#fff" fill-rule="evenodd"/>
        <path id="Caminho_340" data-name="Caminho 340" d="M1632.488,491.786c2.784,0,5.648,3.031,6.385,6.716.737,3.6-.9,6.634-3.765,6.634-2.783,0-5.566-3.03-6.3-6.634C1628.069,494.817,1629.705,491.786,1632.488,491.786Zm66.22,37.181c2.783,0,5.566,3.03,6.3,6.716.737,3.6-.9,6.634-3.684,6.634s-5.648-3.03-6.384-6.634C1694.206,532,1695.925,528.967,1698.708,528.967Zm-13.26-7.453c2.783,0,5.648,3.031,6.384,6.716s-.981,6.634-3.765,6.634-5.648-2.948-6.3-6.634C1681.028,524.545,1682.665,521.514,1685.448,521.514Zm-13.26-7.37c2.783,0,5.648,2.948,6.385,6.634s-.9,6.634-3.684,6.634-5.648-2.948-6.384-6.634S1669.4,514.144,1672.187,514.144Zm-13.26-7.453c2.865,0,5.648,2.948,6.384,6.634s-.9,6.633-3.684,6.633-5.648-2.948-6.384-6.633S1656.145,506.691,1658.928,506.691Zm-13.179-7.453c2.783,0,5.648,2.948,6.385,6.634s-.982,6.716-3.765,6.716-5.648-3.03-6.385-6.716S1642.966,499.239,1645.749,499.239Z" transform="translate(-1605.395 -453.74)" fill="#f87000" fill-rule="evenodd"/>
        <path id="Caminho_341" data-name="Caminho 341" d="M1632.488,539.549c2.784,0,5.648,2.948,6.385,6.633s-.9,6.634-3.765,6.634c-2.783,0-5.566-2.948-6.3-6.634S1629.705,539.549,1632.488,539.549Zm66.22,37.181c2.783,0,5.566,2.948,6.3,6.634s-.9,6.633-3.684,6.633-5.648-2.948-6.384-6.633S1695.925,576.73,1698.708,576.73Zm-13.26-7.453c2.783,0,5.648,2.948,6.384,6.634s-.981,6.716-3.765,6.716-5.648-3.031-6.3-6.716C1681.028,572.225,1682.665,569.277,1685.448,569.277Zm-13.26-7.453c2.783,0,5.648,3.031,6.385,6.633.737,3.686-.9,6.716-3.684,6.716s-5.648-3.03-6.384-6.716C1667.768,564.855,1669.4,561.824,1672.187,561.824Zm-13.26-7.452c2.865,0,5.648,3.03,6.384,6.715.737,3.6-.9,6.633-3.684,6.633s-5.648-3.03-6.384-6.633C1654.507,557.4,1656.145,554.373,1658.928,554.373ZM1645.749,547c2.783,0,5.648,2.948,6.385,6.634s-.982,6.634-3.765,6.634-5.648-2.948-6.385-6.634S1642.966,547,1645.749,547Z" transform="translate(-1605.395 -466.697)" fill="#f87000" fill-rule="evenodd"/>
      </g>
      <g id="Grupo_177" data-name="Grupo 177" transform="translate(649.508 527.469)">
        <g id="Grupo_175" data-name="Grupo 175" transform="translate(0 0)">
          <path id="Caminho_342" data-name="Caminho 342" d="M1929.342,1034.026c-.082-10.155,4.747-11.466,11.623-7.862l174.348,98.357c4.5,2.784,4.338,7.534,4.338,16.543V1162.6c.082,10.155-4.748,11.466-11.542,7.862l-174.43-98.357c-4.5-2.7-4.338-7.535-4.338-16.543Z" transform="translate(-1929.341 -1024.343)" fill="#0072c5" fill-rule="evenodd"/>
          <path id="_276473376_1" data-name=" 276473376 1" d="M2089.46,1138.657v-7.616l-109.684-61.831v7.781Zm0,12.94v-7.616l-109.684-61.913v7.781Z" transform="translate(-1943.023 -1036.514)" fill="#fff" fill-rule="evenodd"/>
          <path id="Caminho_343" data-name="Caminho 343" d="M1947.239,1050.016a9.123,9.123,0,0,1-.082-2.129c.082-2.129.982-3.521,2.128-3.767a2.333,2.333,0,0,1,3.028-.246c2.62,1.393,4.83,5.9,5.157,9.91a13.943,13.943,0,0,1-.082,1.884,3.927,3.927,0,0,1,.736,2.129c0,1.146-.654,1.637-1.391,1.228-.082,0-.164-.082-.246-.163-.737,1.883-2.292,2.62-4.092,1.637s-3.356-3.521-4.093-6.306a.884.884,0,0,1-.409-.082,3.382,3.382,0,0,1-1.309-2.785C1946.584,1050.589,1946.83,1050.1,1947.239,1050.016Zm3.438,10.728s-6.875-4.259-6.958,10.565l8.594,4.831,8.6,4.832c-.082-14.987-6.958-18.345-6.958-18.345Z" transform="translate(-1933.241 -1029.522)" fill="#fff" fill-rule="evenodd"/>
          <path id="Caminho_344" data-name="Caminho 344" d="M2152.39,1171.254c3.6,0,7.121,3.931,7.858,8.844.655,4.832-1.719,8.763-5.4,8.763-3.6,0-7.122-3.931-7.858-8.763C2146.333,1175.185,2148.707,1171.254,2152.39,1171.254Z" transform="translate(-1988.355 -1064.197)" fill="#9c3" fill-rule="evenodd"/>
        </g>
        <g id="Grupo_176" data-name="Grupo 176" transform="translate(30.04 76.651)">
          <path id="Caminho_345" data-name="Caminho 345" d="M1970.565,1139.134c-.082-10.073,4.748-11.384,11.623-7.781l174.348,98.356c4.5,2.7,4.339,7.535,4.339,16.543v21.538c.082,10.155-4.748,11.466-11.542,7.781l-174.43-98.357c-4.5-2.7-4.338-7.534-4.338-16.543Z" transform="translate(-1970.564 -1129.529)" fill="#fff" fill-rule="evenodd"/>
          <path id="_276473376_2" data-name=" 276473376 2" d="M2132.884,1243.776v-7.7l-127.609-71.9v7.78Zm0,12.857v-7.616l-127.609-71.986v7.78Z" transform="translate(-1979.98 -1138.927)" fill="#0072c5" fill-rule="evenodd"/>
          <path id="Caminho_346" data-name="Caminho 346" d="M2195.815,1274.542a9.724,9.724,0,0,1-.163-2.129c.163-2.129.982-3.521,2.21-3.849a2.311,2.311,0,0,1,3.029-.163c2.537,1.392,4.829,5.814,5.075,9.827a14.536,14.536,0,0,1-.082,1.965,3.928,3.928,0,0,1,.736,2.129c0,1.065-.573,1.637-1.391,1.229-.082-.082-.164-.164-.245-.164a2.662,2.662,0,0,1-4.093,1.637c-1.8-1.065-3.357-3.6-4.094-6.306a.618.618,0,0,1-.327-.164,3.392,3.392,0,0,1-1.391-2.7C2195.079,1275.115,2195.406,1274.624,2195.815,1274.542Zm3.438,10.729s-6.875-4.341-6.958,10.564l8.6,4.75,8.594,4.832c-.082-14.905-6.958-18.345-6.958-18.345Z" transform="translate(-2030.715 -1167.073)" fill="#0072c5" fill-rule="evenodd"/>
          <path id="Caminho_347" data-name="Caminho 347" d="M1983.483,1159.454c3.684,0,7.2,3.931,7.859,8.844.736,4.832-1.637,8.763-5.321,8.763-3.6,0-7.121-3.931-7.858-8.763C1977.508,1163.385,1979.882,1159.454,1983.483,1159.454Z" transform="translate(-1972.596 -1137.647)" fill="#fd5b47" fill-rule="evenodd"/>
        </g>
        <path id="Caminho_348" data-name="Caminho 348" d="M1948.774,1211.845c-.082-10.074,4.748-11.384,11.542-7.781l103.381,58.31c4.5,2.7,4.338,7.534,4.338,16.543v21.539c.164,10.155-4.748,11.466-11.541,7.78l-103.381-58.309c-4.5-2.7-4.338-7.535-4.338-16.543Z" transform="translate(-1934.612 -1072.603)" fill="#fff" fill-rule="evenodd"/>
        <path id="_276473376_3" data-name=" 276473376 3" d="M2040.125,1276.442v-7.7l-56.643-31.857v7.7Zm-22.019.409v-7.616l-34.624-19.491v7.78Z" transform="translate(-1944.028 -1082.002)" fill="#0072c5" fill-rule="evenodd"/>
        <path id="Caminho_349" data-name="Caminho 349" d="M1961.682,1232.166c3.684,0,7.2,3.931,7.858,8.844.737,4.832-1.719,8.763-5.321,8.763-3.683,0-7.2-3.931-7.858-8.763C1955.625,1236.1,1958,1232.166,1961.682,1232.166Z" transform="translate(-1936.635 -1080.721)" fill="#0072c5" fill-rule="evenodd"/>
      </g>
      <g id="Grupo_178" data-name="Grupo 178" transform="translate(579.687 753.766)">
        <path id="_276473376_4" data-name=" 276473376 4" d="M2014.343,1405.055l-75.8-42.75-105.018,59.21,75.8,42.831Z" transform="translate(-1833.528 -1342.323)" fill="#00569f" fill-rule="evenodd"/>
        <path id="_276473520" data-name=" 276473520" d="M2042.56,1413.53v-19.983l-105.018,59.292v19.983Z" transform="translate(-1861.745 -1350.798)" fill="#0177c1" fill-rule="evenodd"/>
        <path id="_276473448" data-name=" 276473448" d="M1912.372,1454.3l-67.611-38.163v16.625l67.611,38.163Z" transform="translate(-1836.575 -1356.926)" fill="#e5e5e5" fill-rule="evenodd"/>
        <path id="_276473376_5" data-name=" 276473376 5" d="M2014.343,1377.633l-75.8-42.75-105.018,59.211,75.8,42.831Z" transform="translate(-1833.528 -1334.884)" fill="#00569f" fill-rule="evenodd"/>
      </g>
      <g id="Grupo_182" data-name="Grupo 182" transform="translate(632.974 11.957)">
        <path id="_276473376_6" data-name=" 276473376 6" d="M2161.181,616.231l33.642,18.918V580.607l-33.642-18.918Z" transform="translate(-1975.701 -383.32)" fill="#0072c5" fill-rule="evenodd"/>
        <path id="_276473376_7" data-name=" 276473376 7" d="M2228.8,581.963l51.65,29.155V536.675L2228.8,507.52Z" transform="translate(-1994.045 -368.625)" fill="#01bcf3" fill-rule="evenodd"/>
        <path id="_276473376_8" data-name=" 276473376 8" d="M2006.734,423.656l65.237,36.689V417.186l-65.237-36.771Z" transform="translate(-1933.802 -334.144)" fill="#c0e5f8" fill-rule="evenodd"/>
        <path id="_276473376_9" data-name=" 276473376 9" d="M1930.914,360.159l32.578,18.345h0V335.345l-32.578-18.426Z" transform="translate(-1913.234 -316.919)" fill="#0072c5" fill-rule="evenodd"/>
        <path id="_276473376_10" data-name=" 276473376 10" d="M1906.652,424.056l21.527,12.121h0V407.595l-21.527-12.121Z" transform="translate(-1906.652 -338.229)" fill="#01bcf3" fill-rule="evenodd"/>
        <path id="_276473376_11" data-name=" 276473376 11" d="M2135.01,511.183l21.528,12.12V494.8l-21.528-12.121Z" transform="translate(-1968.601 -361.888)" fill="#01bcf3" fill-rule="evenodd"/>
      </g>
      <g id="Grupo_183" data-name="Grupo 183" transform="translate(380.537 715.275)">
        <path id="Caminho_356" data-name="Caminho 356" d="M1560.24,1505v-20.064l32.168-5.078-.9,20.556Z" transform="translate(-1560.24 -1335.722)" fill="#d7d7df" fill-rule="evenodd"/>
        <path id="Caminho_357" data-name="Caminho 357" d="M1560.24,1505.975v-20.064l15.634-2.457v20.228Z" transform="translate(-1560.24 -1336.697)" fill="#6f605f" fill-rule="evenodd"/>
        <path id="Caminho_358" data-name="Caminho 358" d="M1560.24,1480.972l11.459-15.724,19.809,11.138Z" transform="translate(-1560.24 -1331.758)" fill="#f3f3f3" fill-rule="evenodd"/>
        <path id="Caminho_359" data-name="Caminho 359" d="M1560.24,1483.9l5.73-7.862,9.9,5.569Z" transform="translate(-1560.24 -1334.685)" fill="#a39793" fill-rule="evenodd"/>
        <path id="Caminho_360" data-name="Caminho 360" d="M1603.148,1434.831l216.994-122.761v19.983L1603.148,1454.9Z" transform="translate(-1571.88 -1290.204)" fill="#ff8600" fill-rule="evenodd"/>
        <path id="Caminho_361" data-name="Caminho 361" d="M1575.966,1419.517l216.994-122.843,19.809,11.22-216.994,122.761Z" transform="translate(-1564.506 -1286.027)" fill="#fc0" fill-rule="evenodd"/>
        <path id="Caminho_362" data-name="Caminho 362" d="M1900.923,1308.107l18.908-10.646v19.982l-18.908,10.646Z" transform="translate(-1652.661 -1286.24)" fill="#0177c1" fill-rule="evenodd"/>
        <path id="Caminho_363" data-name="Caminho 363" d="M1873.74,1292.71l18.908-10.646,19.809,11.22-18.908,10.646Z" transform="translate(-1645.287 -1282.064)" fill="#1397e1" fill-rule="evenodd"/>
      </g>
      <g id="Grupo_184" data-name="Grupo 184" transform="translate(668.826 317.155)">
        <path id="Caminho_364" data-name="Caminho 364" d="M2024.707,860.74a36.622,36.622,0,0,1,25.866,10.647v.082h0a36.392,36.392,0,0,1,0,51.594h0a36.446,36.446,0,0,1-51.649,0h0a36.392,36.392,0,0,1,0-51.594h0v-.082A36.574,36.574,0,0,1,2024.707,860.74Zm21.528,14.987a30.322,30.322,0,0,0-42.973,0h0a30.457,30.457,0,0,0,0,43.077h0a30.322,30.322,0,0,0,42.973,0h0a30.459,30.459,0,0,0,0-43.077Z" transform="translate(-1964.626 -769.646)" fill="#d2edfb"/>
        <path id="Caminho_365" data-name="Caminho 365" d="M2039.562,901.9l-57.789-32.922a4.43,4.43,0,0,0-3.929-.573h0l-19.973,11.466,65.811,112.2,20.054-11.384a3.079,3.079,0,0,0,1.31-2.784V910.419C2045.046,907.471,2042.591,903.621,2039.562,901.9Z" transform="translate(-1956.399 -771.661)" fill="#0072c5" fill-rule="evenodd"/>
        <path id="Caminho_366" data-name="Caminho 366" d="M2019.042,917.518,1961.253,884.6c-2.947-1.72-5.4-.655-5.4,2.375v67.4c0,3.031,2.456,6.88,5.4,8.6l57.789,32.84c3.029,1.72,5.484.655,5.484-2.293V926.035C2024.525,923.087,2022.07,919.238,2019.042,917.518Z" transform="translate(-1955.85 -775.894)" fill="#29c5fe" fill-rule="evenodd"/>
        <path id="Caminho_367" data-name="Caminho 367" d="M2158.035,968.223,2100.247,935.3c-1.556-.819-2.947-.983-3.929-.491h0l-20.054,11.383,65.811,112.279,20.054-11.466a2.987,2.987,0,0,0,1.309-2.784v-67.4C2163.437,973.792,2160.981,969.943,2158.035,968.223Z" transform="translate(-1988.516 -789.664)" fill="#0072c5" fill-rule="evenodd"/>
        <path id="Caminho_368" data-name="Caminho 368" d="M2137.514,983.853l-57.789-32.84c-3.029-1.72-5.484-.655-5.484,2.293v67.482c0,2.948,2.456,6.8,5.484,8.517l57.789,32.922c2.947,1.72,5.4.655,5.4-2.376v-67.4C2142.916,989.422,2140.461,985.573,2137.514,983.853Z" transform="translate(-1987.967 -793.911)" fill="#29c5fe" fill-rule="evenodd"/>
        <path id="Caminho_369" data-name="Caminho 369" d="M2039.562,769.5l-57.789-32.922a4.187,4.187,0,0,0-3.929-.573h0l-19.973,11.383,65.811,112.279,20.054-11.383a3.079,3.079,0,0,0,1.31-2.784V778.018C2045.046,774.988,2042.591,771.139,2039.562,769.5Z" transform="translate(-1956.399 -735.734)" fill="#0072c5" fill-rule="evenodd"/>
        <path id="Caminho_370" data-name="Caminho 370" d="M2019.042,785.131l-57.789-32.922c-2.947-1.72-5.4-.655-5.4,2.375v67.4c0,3.03,2.456,6.879,5.4,8.6l57.789,32.84c3.029,1.72,5.484.655,5.484-2.293V793.648C2024.525,790.618,2022.07,786.851,2019.042,785.131Z" transform="translate(-1955.85 -739.98)" fill="#29c5fe" fill-rule="evenodd"/>
        <path id="Caminho_371" data-name="Caminho 371" d="M2157.4,832.319l-58.765-29.485a5.011,5.011,0,0,0-4-.44v-.074l-20.393,10.268,66.923,100.557,20.393-10.268a2.584,2.584,0,0,0,1.332-2.494V839.947C2162.889,837.306,2160.391,833.859,2157.4,832.319Z" transform="translate(-1987.967 -753.75)" fill="#0072c5" fill-rule="evenodd"/>
        <path id="Caminho_372" data-name="Caminho 372" d="M2137.514,851.45l-57.789-32.922c-3.029-1.638-5.484-.655-5.484,2.375v67.482c0,2.948,2.456,6.8,5.484,8.516l57.789,32.922c2.947,1.72,5.4.655,5.4-2.375V859.968C2142.916,857.019,2140.461,853.17,2137.514,851.45Z" transform="translate(-1987.967 -757.981)" fill="#29c5fe" fill-rule="evenodd"/>
        <path id="Caminho_373" data-name="Caminho 373" d="M1974.576,820.415a6.143,6.143,0,0,1-2.374-8.272,6.064,6.064,0,0,1,8.267-2.375l29.468,16.461a6.085,6.085,0,0,1-5.894,10.647Z" transform="translate(-1960.087 -755.609)" fill="#fff"/>
        <path id="Caminho_374" data-name="Caminho 374" d="M1991.121,802.629a6.1,6.1,0,0,1,12.2,0v34.233a6.1,6.1,0,0,1-12.2,0Z" transform="translate(-1965.418 -752.237)" fill="#fff"/>
        <path id="Caminho_375" data-name="Caminho 375" d="M2096.468,871.5a6.077,6.077,0,1,1,10.8-5.569l16.617,32.349a6.078,6.078,0,1,1-10.8,5.569Z" transform="translate(-1993.823 -770.169)" fill="#fff"/>
        <path id="Caminho_376" data-name="Caminho 376" d="M2120.889,875.792a6.053,6.053,0,0,1,8.1,2.784,6.13,6.13,0,0,1-2.783,8.108L2098.543,900.2a5.96,5.96,0,0,1-8.022-2.784,6.036,6.036,0,0,1,2.783-8.108Z" transform="translate(-1992.215 -773.56)" fill="#fff"/>
        <path id="Caminho_377" data-name="Caminho 377" d="M1974.787,955.529a6.029,6.029,0,1,1,5.812-10.564l25.129,14a6.049,6.049,0,1,1-5.894,10.565Z" transform="translate(-1960.135 -792.285)" fill="#fff"/>
        <path id="Caminho_378" data-name="Caminho 378" d="M2094.076,1018.24a5.957,5.957,0,0,1-2.374-8.189,6.065,6.065,0,0,1,8.267-2.375l25.047,14a6.072,6.072,0,0,1,2.374,8.272,6.138,6.138,0,0,1-8.267,2.375Z" transform="translate(-1992.496 -809.298)" fill="#fff"/>
        <path id="Caminho_379" data-name="Caminho 379" d="M2115.374,985.934c3.52,0,7.04,3.6,7.776,8.026.737,4.5-1.637,8.108-5.239,8.108-3.52,0-7.04-3.6-7.775-8.108C2109.4,989.538,2111.773,985.934,2115.374,985.934Z" transform="translate(-1997.669 -803.609)" fill="#fff" fill-rule="evenodd"/>
        <path id="Caminho_380" data-name="Caminho 380" d="M2108.643,1040.44c3.6,0,7.121,3.6,7.776,8.026.737,4.422-1.555,8.025-5.157,8.025s-7.121-3.6-7.858-8.025C2102.75,1044.043,2105.042,1040.44,2108.643,1040.44Z" transform="translate(-1995.849 -818.395)" fill="#fff" fill-rule="evenodd"/>
      </g>
    </g>
  </g>
</svg>
