<svg xmlns="http://www.w3.org/2000/svg" xmlns:xlink="http://www.w3.org/1999/xlink" width="127.039" height="115.758" viewBox="0 0 127.039 115.758">
  <defs>
    <filter id="Retângulo_4089" x="0" y="11.065" width="101.92" height="67.501" filterUnits="userSpaceOnUse">
      <feOffset dx="-2" dy="2" input="SourceAlpha"/>
      <feGaussianBlur result="blur"/>
      <feFlood flood-opacity="0.102"/>
      <feComposite operator="in" in2="blur"/>
      <feComposite in="SourceGraphic"/>
    </filter>
    <filter id="Retângulo_4092" x="3.536" y="6.013" width="41.251" height="63.01" filterUnits="userSpaceOnUse">
      <feOffset dx="-2" dy="2" input="SourceAlpha"/>
      <feGaussianBlur result="blur-2"/>
      <feFlood flood-opacity="0.102"/>
      <feComposite operator="in" in2="blur-2"/>
      <feComposite in="SourceGraphic"/>
    </filter>
  </defs>
  <g id="Grupo_7567" data-name="Grupo 7567" transform="translate(-931.418 -158.967)">
    <ellipse id="Elipse_591" data-name="Elipse 591" cx="56.644" cy="6.504" rx="56.644" ry="6.504" transform="translate(941.986 261.717)" fill="#f4be78"/>
    <g id="Grupo_7517" data-name="Grupo 7517" transform="translate(1023.76 205.2)">
      <g id="Grupo_7516" data-name="Grupo 7516" transform="translate(0)">
        <path id="Caminho_4158" data-name="Caminho 4158" d="M1101.386,270.262a3.944,3.944,0,0,0,3.172-.486,4.989,4.989,0,0,0,1.48-3.328c.267-1.6.57-2.959,1.927-3.9.977-.68,2.159-1.112,2.9-2.156a4.735,4.735,0,0,0,.357-4.127c-.479-1.525-1.4-2.867-1.574-4.52a3.866,3.866,0,0,1,.7-2.738c.427-.6.95-1.109,1.37-1.713a3.863,3.863,0,0,0-.82-5.507,3.672,3.672,0,0,0-5.115.13c-1.279,1.2-1.465,2.957-2.013,4.568a5.441,5.441,0,0,1-3.232,3.238,7.448,7.448,0,0,0-2.82,1.92,5.5,5.5,0,0,0-.921,3.337c-.04,1.429.119,3.086-.848,4.279-.519.639-1.23,1.048-1.729,1.715a4.354,4.354,0,0,0-.713,1.542c-.753,2.993,1.3,5.4,3.551,6.464A17.134,17.134,0,0,0,1101.386,270.262Z" transform="translate(-1093.35 -240.812)" fill="#41709e"/>
      </g>
      <path id="Caminho_4159" data-name="Caminho 4159" d="M1101.853,255.222l2.638,5.066a65.172,65.172,0,0,1,3.123-7.418.249.249,0,0,1-.168-.131l-1.082-2.4c-.09-.2.285-.214.375-.014l1.018,2.261q1.285-2.561,2.8-5.01h0l-.98-2.558c-.077-.2.3-.215.375-.014l.84,2.192q.5-.8,1.024-1.585c.1-.153.459.06.356.213q-1.307,1.957-2.462,3.994a14.292,14.292,0,0,0,2.509-.886c.187-.087.487.176.3.264a14.96,14.96,0,0,1-2.994,1.024.2.2,0,0,1-.041,0,64.763,64.763,0,0,0-3.412,7.078,22.49,22.49,0,0,0,4.708-1.88c.178-.1.478.167.3.264a23.031,23.031,0,0,1-5.174,2.027,65.658,65.658,0,0,0-2.471,7.415l3.939-1.58c.2-.078.417.22.222.3l-4.278,1.716a67.594,67.594,0,0,0-1.553,7.78c-.026.186-.415.04-.39-.145q.413-2.977,1.083-5.867a.248.248,0,0,1-.071-.075l-2.609-4.57c-.113-.2.264-.21.375-.014l2.409,4.22q.742-3.133,1.78-6.155l-2.86-5.495C1101.374,255.036,1101.75,255.024,1101.853,255.222Z" transform="translate(-1096.136 -242.572)" fill="#36395e"/>
    </g>
    <g id="Grupo_7519" data-name="Grupo 7519" transform="translate(1026.793 234.546)">
      <g id="Grupo_7518" data-name="Grupo 7518" transform="translate(1.393)">
        <path id="Caminho_4160" data-name="Caminho 4160" d="M1131.048,297.262c-8.9-5.863-20.066-6-29.782-.376-.3.173.317.633.365.681,8.147,8.179,20.131,8.274,29.383.238C1131.16,297.679,1131.222,297.375,1131.048,297.262Z" transform="translate(-1101.185 -292.764)" fill="#336289"/>
      </g>
      <path id="Caminho_4161" data-name="Caminho 4161" d="M1127,301.4l-20.876-.913,5.6,3.616c.19.123.035.53-.157.406l-6.285-4.059-6.425-.281c-.221-.01-.149-.446.07-.436l6.314.276a.118.118,0,0,1,.14,0l.014.008,21.675.948C1127.287,300.976,1127.215,301.412,1127,301.4Z" transform="translate(-1098.719 -295.797)" fill="#36395e"/>
      <path id="Caminho_4162" data-name="Caminho 4162" d="M1130.913,304.86c.2.111.039.517-.158.406l-5.48-3.084c-.2-.111-.04-.517.157-.406Z" transform="translate(-1110.235 -296.677)" fill="#36395e"/>
      <path id="Caminho_4163" data-name="Caminho 4163" d="M1139.826,297.282l-3.531,2.094,5.03,2.344c.2.094.045.5-.158.406l-5.315-2.477c-.194-.09-.057-.459.131-.411a.246.246,0,0,1,.112-.213l3.625-2.149C1139.928,296.753,1140.033,297.159,1139.826,297.282Z" transform="translate(-1114.836 -294.544)" fill="#36395e"/>
      <path id="Caminho_4164" data-name="Caminho 4164" d="M1129.609,295.374l-3.692,3.237c-.189.166-.376-.184-.186-.35l3.692-3.237C1129.612,294.857,1129.8,295.207,1129.609,295.374Z" transform="translate(-1110.438 -293.728)" fill="#36395e"/>
      <path id="Caminho_4165" data-name="Caminho 4165" d="M1115.444,296.24a16.084,16.084,0,0,0-3.622,2.38c-.19.164-.377-.185-.185-.35a16.461,16.461,0,0,1,3.7-2.436C1115.551,295.733,1115.658,296.138,1115.444,296.24Z" transform="translate(-1104.305 -294.093)" fill="#fafafa"/>
    </g>
    <g id="Grupo_7521" data-name="Grupo 7521" transform="translate(1026.447 217.415)">
      <g id="Grupo_7520" data-name="Grupo 7520" transform="translate(1.055)">
        <path id="Caminho_4166" data-name="Caminho 4166" d="M1103.792,284.247a4.141,4.141,0,0,0,3.073,1.445,5.794,5.794,0,0,0,3.464-1.988c1.28-1.219,2.431-2.205,4.227-2.219,1.294-.01,2.6.314,3.928-.149a5.326,5.326,0,0,0,3.011-3.334c.582-1.591.658-3.285,1.59-4.805a4.437,4.437,0,0,1,2.4-1.937c.763-.263,1.551-.394,2.312-.665,2.453-.872,3.681-3.329,2.891-5.21a3.782,3.782,0,0,0-4.528-2.892c-1.9.28-3.207,1.679-4.737,2.74a6.265,6.265,0,0,1-4.927.882,8.438,8.438,0,0,0-3.706-.008,6.342,6.342,0,0,0-2.984,2.324c-.969,1.2-1.916,2.72-3.537,3.176-.869.244-1.754.178-2.624.458a5.062,5.062,0,0,0-1.629.9,5.881,5.881,0,0,0-1.146,7.636A16.756,16.756,0,0,0,1103.792,284.247Z" transform="translate(-1099.973 -262.437)" fill="#0dbacc"/>
      </g>
      <path id="Caminho_4167" data-name="Caminho 4167" d="M1126.216,267.661q-3.419,2.459-6.867,4.874l3.7.051c.236,0,.3.443.067.439l-4.257-.058a.175.175,0,0,1-.09-.028q-2.9,2.023-5.812,4.012l6.4,1.3c.242.049.311.489.068.439l-6.829-1.385a.233.233,0,0,1-.091-.044q-2.7,1.844-5.427,3.654l5.3.848c.242.038.31.478.067.439l-5.88-.941q-1.823,1.216-3.653,2.421l5.329.793c.242.036.311.476.068.439l-5.389-.8a.275.275,0,0,1-.21-.245.18.18,0,0,1-.057-.014q-2.109,1.389-4.229,2.758c-.185.12-.429-.285-.244-.4q2.145-1.384,4.278-2.79a53.3,53.3,0,0,1,.256-6.01c.026-.263.406-.1.379.16a53.143,53.143,0,0,0-.256,5.6q1.7-1.124,3.4-2.254a.119.119,0,0,1,.147-.108l.011,0,.159-.107.551-5.971c.025-.264.4-.1.38.16l-.511,5.527q2.689-1.8,5.365-3.614l.657-6.418c.027-.263.407-.1.38.16l-.612,5.969q2.963-2.025,5.908-4.079a.259.259,0,0,1-.021-.119l.27-3.1c.023-.264.4-.1.38.16q-.121,1.4-.243,2.8,3.474-2.433,6.919-4.91C1126.152,267.127,1126.4,267.532,1126.216,267.661Z" transform="translate(-1098.106 -264.523)" fill="#41709e"/>
    </g>
    <g id="Grupo_7525" data-name="Grupo 7525" transform="translate(933.418 170.032)">
      <g transform="matrix(1, 0, 0, 1, -2, -11.07)" filter="url(#Retângulo_4089)">
        <rect id="Retângulo_4089-2" data-name="Retângulo 4089" width="99.92" height="65.501" transform="translate(2 11.07)" fill="#fff"/>
      </g>
      <rect id="Retângulo_4090" data-name="Retângulo 4090" width="99.929" height="6.458" transform="translate(0 0)" fill="#00accb"/>
      <g id="Grupo_7522" data-name="Grupo 7522" transform="translate(93.89 2.455)">
        <path id="Caminho_4168" data-name="Caminho 4168" d="M1100.347,185.192a.384.384,0,0,1-.23.073h-.223c-.2,0-.316-.091-.237-.178l.977-1-.977-1c-.079-.088.029-.179.237-.179h.223a.384.384,0,0,1,.23.074l.683.694c.223-.232.452-.463.675-.694a.364.364,0,0,1,.23-.074h.223c.2,0,.316.092.23.179l-.963,1,.977,1c.086.088-.022.178-.23.178h-.223a.4.4,0,0,1-.237-.073l-.676-.7Z" transform="translate(-1099.631 -182.902)" fill="#fff"/>
      </g>
      <g id="Grupo_7523" data-name="Grupo 7523" transform="translate(84.459 1.76)">
        <path id="Caminho_4169" data-name="Caminho 4169" d="M1085.853,181.672h-2.345a.574.574,0,0,0-.573.573v.926h.508v-.926a.064.064,0,0,1,.064-.064h2.345a.067.067,0,0,1,.068.064v1.17a.068.068,0,0,1-.068.068h-1.312v.508h1.312a.576.576,0,0,0,.576-.576v-1.17A.575.575,0,0,0,1085.853,181.672Z" transform="translate(-1082.935 -181.672)" fill="#fff"/>
      </g>
      <g id="Grupo_7524" data-name="Grupo 7524" transform="translate(83.079 2.751)">
        <path id="Caminho_4170" data-name="Caminho 4170" d="M1083.411,183.425h-2.346a.574.574,0,0,0-.573.573v1.169a.575.575,0,0,0,.573.576h2.346a.576.576,0,0,0,.576-.576V184A.575.575,0,0,0,1083.411,183.425Zm.068,1.742a.068.068,0,0,1-.068.068h-2.346a.067.067,0,0,1-.064-.068V184a.067.067,0,0,1,.064-.064h2.346a.067.067,0,0,1,.068.064Z" transform="translate(-1080.492 -183.425)" fill="#fff"/>
      </g>
      <rect id="Retângulo_4091" data-name="Retângulo 4091" width="3.276" height="0.717" rx="0.359" transform="translate(75.147 2.92)" fill="#fff"/>
    </g>
    <g id="Grupo_7529" data-name="Grupo 7529" transform="translate(936.954 164.98)">
      <g transform="matrix(1, 0, 0, 1, -5.54, -6.01)" filter="url(#Retângulo_4092)">
        <rect id="Retângulo_4092-2" data-name="Retângulo 4092" width="39.251" height="61.01" transform="translate(5.54 6.01)" fill="#fffde9"/>
      </g>
      <rect id="Retângulo_4093" data-name="Retângulo 4093" width="9.012" height="9.012" rx="4.506" transform="translate(3.52 4.345)" fill="#f2bf57"/>
      <g id="Grupo_7526" data-name="Grupo 7526" transform="translate(3.002 30.853)">
        <path id="Caminho_4171" data-name="Caminho 4171" d="M953.208,234.278h-6.384a1.834,1.834,0,0,1-1.832-1.832v-6.383a1.834,1.834,0,0,1,1.832-1.832h6.384a1.834,1.834,0,0,1,1.832,1.832v6.383A1.834,1.834,0,0,1,953.208,234.278Zm-6.384-9.013a.8.8,0,0,0-.8.8v6.383a.8.8,0,0,0,.8.8h6.384a.8.8,0,0,0,.8-.8v-6.383a.8.8,0,0,0-.8-.8Z" transform="translate(-944.992 -224.231)" fill="#f2bf57"/>
      </g>
      <g id="Grupo_7527" data-name="Grupo 7527" transform="translate(3.002 16.264)">
        <path id="Caminho_4172" data-name="Caminho 4172" d="M953.208,208.45h-6.384a1.834,1.834,0,0,1-1.832-1.832v-6.384a1.834,1.834,0,0,1,1.832-1.832h6.384a1.834,1.834,0,0,1,1.832,1.832v6.384A1.834,1.834,0,0,1,953.208,208.45Zm-6.384-9.013a.8.8,0,0,0-.8.8v6.384a.8.8,0,0,0,.8.8h6.384a.8.8,0,0,0,.8-.8v-6.384a.8.8,0,0,0-.8-.8Z" transform="translate(-944.992 -198.403)" fill="#f2bf57"/>
      </g>
      <g id="Grupo_7528" data-name="Grupo 7528" transform="translate(3.002 45.224)">
        <path id="Caminho_4173" data-name="Caminho 4173" d="M953.208,259.718h-6.384a1.834,1.834,0,0,1-1.832-1.832V251.5a1.834,1.834,0,0,1,1.832-1.832h6.384a1.834,1.834,0,0,1,1.832,1.832v6.384A1.834,1.834,0,0,1,953.208,259.718Zm-6.384-9.012a.8.8,0,0,0-.8.8v6.384a.8.8,0,0,0,.8.8h6.384a.8.8,0,0,0,.8-.8V251.5a.8.8,0,0,0-.8-.8Z" transform="translate(-944.992 -249.671)" fill="#f2bf57"/>
      </g>
      <path id="Caminho_4174" data-name="Caminho 4174" d="M946.822,182.857l3.7,2.087,6.688-7.135-6.633,4.772-2.244-1.378Z" transform="translate(-942.786 -173.178)" fill="#00accb"/>
      <path id="Caminho_4175" data-name="Caminho 4175" d="M966.582,180.339h18.47c.258,0,.226.4-.03.4h-18.47C966.294,180.738,966.326,180.339,966.582,180.339Z" transform="translate(-951.294 -174.279)" fill="#41709e"/>
      <path id="Caminho_4176" data-name="Caminho 4176" d="M966.455,183.079H985c.258,0,.226.4-.03.4H966.425C966.167,183.479,966.2,183.079,966.455,183.079Z" transform="translate(-951.238 -175.471)" fill="#41709e"/>
      <path id="Caminho_4177" data-name="Caminho 4177" d="M966.869,186.231h18.074c.258,0,.227.4-.03.4H966.839C966.581,186.631,966.613,186.231,966.869,186.231Z" transform="translate(-951.419 -176.843)" fill="#41709e"/>
      <path id="Caminho_4178" data-name="Caminho 4178" d="M967.036,189.517h8.785c.258,0,.227.4-.03.4h-8.784C966.748,189.916,966.78,189.517,967.036,189.517Z" transform="translate(-951.491 -178.273)" fill="#41709e"/>
      <path id="Caminho_4179" data-name="Caminho 4179" d="M967.859,201.514h18.47c.258,0,.227.4-.03.4h-18.47C967.571,201.913,967.6,201.514,967.859,201.514Z" transform="translate(-951.849 -183.493)" fill="#41709e"/>
      <path id="Caminho_4180" data-name="Caminho 4180" d="M967.732,204.255h18.542c.258,0,.226.4-.03.4H967.7C967.444,204.654,967.476,204.255,967.732,204.255Z" transform="translate(-951.794 -184.686)" fill="#41709e"/>
      <path id="Caminho_4181" data-name="Caminho 4181" d="M968.146,207.407H986.22c.258,0,.227.4-.03.4H968.116C967.858,207.806,967.89,207.407,968.146,207.407Z" transform="translate(-951.974 -186.057)" fill="#41709e"/>
      <path id="Caminho_4182" data-name="Caminho 4182" d="M968.313,210.692H977.1c.258,0,.227.4-.03.4h-8.785C968.025,211.091,968.057,210.692,968.313,210.692Z" transform="translate(-952.047 -187.487)" fill="#41709e"/>
      <path id="Caminho_4183" data-name="Caminho 4183" d="M966.646,228.182h18.47c.258,0,.227.4-.031.4h-18.47C966.358,228.581,966.39,228.182,966.646,228.182Z" transform="translate(-951.322 -195.097)" fill="#41709e"/>
      <path id="Caminho_4184" data-name="Caminho 4184" d="M966.518,230.922H985.06c.258,0,.226.4-.031.4H966.488C966.23,231.321,966.262,230.922,966.518,230.922Z" transform="translate(-951.266 -196.289)" fill="#41709e"/>
      <path id="Caminho_4185" data-name="Caminho 4185" d="M966.933,234.074h18.074c.258,0,.226.4-.031.4H966.9C966.645,234.473,966.676,234.074,966.933,234.074Z" transform="translate(-951.446 -197.661)" fill="#41709e"/>
      <path id="Caminho_4186" data-name="Caminho 4186" d="M967.1,237.36h8.785c.258,0,.226.4-.031.4H967.07C966.812,237.759,966.844,237.36,967.1,237.36Z" transform="translate(-951.519 -199.09)" fill="#41709e"/>
      <path id="Caminho_4187" data-name="Caminho 4187" d="M967.923,252.817h18.47c.258,0,.227.4-.03.4h-18.47C967.635,253.216,967.667,252.817,967.923,252.817Z" transform="translate(-951.877 -205.816)" fill="#41709e"/>
      <path id="Caminho_4188" data-name="Caminho 4188" d="M967.8,255.558h18.542c.258,0,.227.4-.03.4H967.766C967.508,255.957,967.539,255.558,967.8,255.558Z" transform="translate(-951.822 -207.009)" fill="#41709e"/>
      <path id="Caminho_4189" data-name="Caminho 4189" d="M968.21,258.71h18.074c.258,0,.227.4-.03.4H968.18C967.922,259.109,967.954,258.71,968.21,258.71Z" transform="translate(-952.002 -208.38)" fill="#41709e"/>
      <path id="Caminho_4190" data-name="Caminho 4190" d="M968.377,261.995h8.785c.258,0,.226.4-.031.4h-8.784C968.089,262.394,968.121,261.995,968.377,261.995Z" transform="translate(-952.075 -209.81)" fill="#41709e"/>
    </g>
    <g id="Grupo_7534" data-name="Grupo 7534" transform="translate(1006.637 203.617)">
      <g id="Grupo_7530" data-name="Grupo 7530" transform="translate(0 1.13)" opacity="0.1" style="mix-blend-mode: multiply;isolation: isolate">
        <rect id="Retângulo_4094" data-name="Retângulo 4094" width="19.782" height="27.095"/>
        <rect id="Retângulo_4095" data-name="Retângulo 4095" width="11.71" height="1.179" transform="translate(4.198 2.85)"/>
        <rect id="Retângulo_4096" data-name="Retângulo 4096" width="10.955" height="0.559" transform="translate(4.553 4.029)"/>
        <path id="Caminho_4191" data-name="Caminho 4191" d="M1081.93,265.626h-10.879s-.529-4.753,1.195-5.974c1.617-1.147,3.409-1.226,3.623-2.71,0-.051-.01-.1-.018-.146-.228-1.464-2.011-1.548-3.62-2.688-1.723-1.222-1.194-5.975-1.194-5.975h10.879s.528,4.753-1.194,5.975c-1.617,1.147-3.41,1.225-3.623,2.71a1.416,1.416,0,0,0,.017.146c.228,1.464,2.011,1.548,3.619,2.688C1082.46,260.873,1081.93,265.626,1081.93,265.626Z" transform="translate(-1066.485 -243.545)"/>
        <rect id="Retângulo_4097" data-name="Retângulo 4097" width="11.71" height="1.179" transform="translate(4.09 22.638)"/>
        <rect id="Retângulo_4098" data-name="Retângulo 4098" width="10.955" height="0.559" transform="translate(4.49 22.079)"/>
        <path id="Caminho_4192" data-name="Caminho 4192" d="M1082.541,252.63a1.237,1.237,0,0,0-1.747-.02c-.215.228-.332.532-.532.773a1.428,1.428,0,0,1-.581.418,1.43,1.43,0,0,0-.519.24,1.087,1.087,0,0,0-.189.3,3.906,3.906,0,0,1-.329.534.961.961,0,0,1-.729.478c-.46-.011-.773-.586-1.231-.559-.306.019-.567.31-.869.256a.914.914,0,0,1-.338-.175,1.569,1.569,0,0,0-.925-.325.762.762,0,0,0-.732.563,1.015,1.015,0,0,0,.493.9c.674.518,1.531.757,2.2,1.28a3.208,3.208,0,0,1,1.016,1.374.34.34,0,0,0,.138.2.22.22,0,0,0,.254-.079.7.7,0,0,0,.111-.263,3.037,3.037,0,0,1,.55-1.124c.762-.923,2.132-1.081,3.045-1.856a2.851,2.851,0,0,0,.823-3.029" transform="translate(-1067.725 -245.341)"/>
        <path id="Caminho_4193" data-name="Caminho 4193" d="M1081.455,274.831v.006h-9.291l-.02.015a.351.351,0,0,1,0-.377,3.245,3.245,0,0,1,.394-.375c.274-.3.26-.758.413-1.134a1.335,1.335,0,0,1,.677-.708c.206-.093.433-.133.641-.224a1.411,1.411,0,0,0,.643-.567c.25-.418.286-.97.651-1.294a1.09,1.09,0,0,1,1.007-.19,1.866,1.866,0,0,1,.867.6,2.946,2.946,0,0,0,.691.713,3.127,3.127,0,0,0,.645.219,2.62,2.62,0,0,1,1.429,1.095.529.529,0,0,0,.128.162c.167.122.4,0,.606,0,.355.006.59.381.665.729A2.132,2.132,0,0,1,1081.455,274.831Z" transform="translate(-1066.975 -253.032)"/>
        <path id="Caminho_4194" data-name="Caminho 4194" d="M1080.408,265.317a.231.231,0,0,0-.123-.14.385.385,0,1,0-.537.549.385.385,0,0,0,.276.079.361.361,0,0,0,.162-.04.384.384,0,0,0,.19-.367A.077.077,0,0,0,1080.408,265.317Z" transform="translate(-1070.252 -250.907)"/>
        <path id="Caminho_4195" data-name="Caminho 4195" d="M1082.1,266.114a.22.22,0,0,0-.122-.036.061.061,0,0,0-.031,0,.242.242,0,1,0,.153.039Z" transform="translate(-1071.171 -251.352)"/>
        <path id="Caminho_4196" data-name="Caminho 4196" d="M1080.73,267.195a.193.193,0,0,0-.064-.02.079.079,0,0,0-.031-.009.22.22,0,1,0,.094.029Z" transform="translate(-1070.594 -251.827)"/>
        <path id="Caminho_4197" data-name="Caminho 4197" d="M1079.242,268.744l-.014,0c0-.043-.036-.085-.085-.061a.178.178,0,0,0-.1.242.149.149,0,0,0,.238.038A.135.135,0,0,0,1079.242,268.744Z" transform="translate(-1069.994 -252.482)"/>
        <path id="Caminho_4198" data-name="Caminho 4198" d="M1081.068,268.833a.234.234,0,0,0-.066,0h-.008a.353.353,0,0,0-.328.366.343.343,0,0,0,.679.034A.353.353,0,0,0,1081.068,268.833Z" transform="translate(-1070.708 -252.551)"/>
        <path id="Caminho_4199" data-name="Caminho 4199" d="M1079.228,268.4a.274.274,0,0,0-.246.287v.024a.268.268,0,0,0,.286.246.273.273,0,0,0,.246-.286v-.024A.268.268,0,0,0,1079.228,268.4Z" transform="translate(-1069.975 -252.362)"/>
        <path id="Caminho_4200" data-name="Caminho 4200" d="M1080.782,266.953h-.024a.269.269,0,0,0-.246.286.274.274,0,0,0,.286.247h.024a.269.269,0,0,0,.246-.287A.273.273,0,0,0,1080.782,266.953Z" transform="translate(-1070.64 -251.734)"/>
        <path id="Caminho_4201" data-name="Caminho 4201" d="M1081.957,266.1c-.344,0-.3.533.04.533S1082.3,266.1,1081.957,266.1Z" transform="translate(-1071.166 -251.364)"/>
        <path id="Caminho_4202" data-name="Caminho 4202" d="M1080.434,264.993a.479.479,0,0,0-.279-.181.221.221,0,0,0-.133-.024.518.518,0,0,0-.124.035.414.414,0,0,0-.119.06.3.3,0,0,0-.071.076.449.449,0,0,0-.092.424.457.457,0,1,0,.817-.39Z" transform="translate(-1070.243 -250.791)"/>
      </g>
      <g id="Grupo_7533" data-name="Grupo 7533" transform="translate(1.13)">
        <g id="Grupo_7532" data-name="Grupo 7532">
          <rect id="Retângulo_4099" data-name="Retângulo 4099" width="19.782" height="27.095" fill="#f2bf57"/>
          <g id="Grupo_7531" data-name="Grupo 7531" transform="translate(4.09 2.85)">
            <rect id="Retângulo_4100" data-name="Retângulo 4100" width="11.71" height="1.179" transform="translate(0.108)" fill="#ce5f05"/>
            <rect id="Retângulo_4101" data-name="Retângulo 4101" width="10.955" height="0.559" transform="translate(0.463 1.179)" fill="#964406"/>
            <path id="Caminho_4203" data-name="Caminho 4203" d="M1083.93,263.626h-10.879s-.529-4.753,1.195-5.974c1.617-1.147,3.409-1.226,3.623-2.71,0-.051-.01-.1-.018-.146-.228-1.464-2.012-1.548-3.62-2.688-1.723-1.222-1.194-5.975-1.194-5.975h10.879s.528,4.753-1.195,5.975c-1.617,1.147-3.41,1.225-3.623,2.71a1.45,1.45,0,0,0,.017.146c.228,1.464,2.011,1.548,3.619,2.688C1084.46,258.873,1083.93,263.626,1083.93,263.626Z" transform="translate(-1072.575 -244.396)" fill="#d4fffe"/>
            <rect id="Retângulo_4102" data-name="Retângulo 4102" width="11.71" height="1.179" transform="translate(0 19.788)" fill="#ce5f05"/>
            <rect id="Retângulo_4103" data-name="Retângulo 4103" width="10.955" height="0.559" transform="translate(0.4 19.229)" fill="#964406"/>
            <path id="Caminho_4204" data-name="Caminho 4204" d="M1084.541,250.63a1.237,1.237,0,0,0-1.747-.02c-.215.228-.332.532-.532.773a1.426,1.426,0,0,1-.581.418,1.43,1.43,0,0,0-.519.239,1.091,1.091,0,0,0-.189.3,3.9,3.9,0,0,1-.329.534.961.961,0,0,1-.729.478c-.46-.011-.773-.586-1.231-.559-.306.019-.567.31-.869.256a.91.91,0,0,1-.338-.175,1.57,1.57,0,0,0-.925-.325.763.763,0,0,0-.731.563,1.015,1.015,0,0,0,.493.9c.674.518,1.531.757,2.2,1.28a3.207,3.207,0,0,1,1.016,1.374.34.34,0,0,0,.138.2.221.221,0,0,0,.254-.079.7.7,0,0,0,.111-.263,3.037,3.037,0,0,1,.55-1.124c.762-.923,2.132-1.081,3.045-1.856a2.851,2.851,0,0,0,.824-3.029" transform="translate(-1073.815 -246.191)" fill="#efc775"/>
            <path id="Caminho_4205" data-name="Caminho 4205" d="M1083.455,272.831v.006h-9.291l-.02.015a.351.351,0,0,1,0-.377,3.239,3.239,0,0,1,.394-.375c.274-.3.26-.758.413-1.134a1.334,1.334,0,0,1,.677-.708c.206-.093.433-.133.64-.224a1.41,1.41,0,0,0,.643-.567c.25-.418.286-.97.651-1.294a1.09,1.09,0,0,1,1.007-.19,1.867,1.867,0,0,1,.867.6,2.942,2.942,0,0,0,.691.713,3.122,3.122,0,0,0,.645.219,2.62,2.62,0,0,1,1.429,1.095.52.52,0,0,0,.128.162c.167.122.4,0,.606,0,.355.006.59.381.665.729A2.133,2.133,0,0,1,1083.455,272.831Z" transform="translate(-1073.065 -253.882)" fill="#efc775"/>
            <path id="Caminho_4206" data-name="Caminho 4206" d="M1082.408,263.317a.23.23,0,0,0-.123-.139.385.385,0,1,0-.537.549.384.384,0,0,0,.276.078.361.361,0,0,0,.162-.04.384.384,0,0,0,.19-.367A.076.076,0,0,0,1082.408,263.317Z" transform="translate(-1076.342 -251.757)" fill="#efc775"/>
            <path id="Caminho_4207" data-name="Caminho 4207" d="M1084.1,264.114a.22.22,0,0,0-.122-.036.061.061,0,0,0-.031,0,.242.242,0,1,0,.153.039Z" transform="translate(-1077.261 -252.203)" fill="#efc775"/>
            <path id="Caminho_4208" data-name="Caminho 4208" d="M1082.73,265.195a.2.2,0,0,0-.064-.02.079.079,0,0,0-.03-.009.22.22,0,1,0,.094.029Z" transform="translate(-1076.684 -252.677)" fill="#efc775"/>
            <path id="Caminho_4209" data-name="Caminho 4209" d="M1081.242,266.744l-.014,0c0-.043-.035-.085-.085-.061a.178.178,0,0,0-.1.242.149.149,0,0,0,.238.038A.135.135,0,0,0,1081.242,266.744Z" transform="translate(-1076.084 -253.333)" fill="#efc775"/>
            <path id="Caminho_4210" data-name="Caminho 4210" d="M1083.068,266.833a.237.237,0,0,0-.066,0h-.008a.353.353,0,0,0-.328.366.343.343,0,0,0,.68.034A.353.353,0,0,0,1083.068,266.833Z" transform="translate(-1076.798 -253.401)" fill="#efc775"/>
            <path id="Caminho_4211" data-name="Caminho 4211" d="M1081.228,266.4a.274.274,0,0,0-.246.287v.024a.268.268,0,0,0,.286.246.273.273,0,0,0,.246-.286v-.024A.268.268,0,0,0,1081.228,266.4Z" transform="translate(-1076.066 -253.213)" fill="#efc775"/>
            <path id="Caminho_4212" data-name="Caminho 4212" d="M1082.782,264.953h-.024a.269.269,0,0,0-.246.286.274.274,0,0,0,.286.247h.024a.269.269,0,0,0,.246-.287A.273.273,0,0,0,1082.782,264.953Z" transform="translate(-1076.73 -252.585)" fill="#efc775"/>
            <path id="Caminho_4213" data-name="Caminho 4213" d="M1083.957,264.1c-.344,0-.3.533.04.533S1084.3,264.1,1083.957,264.1Z" transform="translate(-1077.256 -252.214)" fill="#efc775"/>
            <path id="Caminho_4214" data-name="Caminho 4214" d="M1082.434,262.993a.48.48,0,0,0-.279-.181.222.222,0,0,0-.133-.024.518.518,0,0,0-.124.035.414.414,0,0,0-.119.06.291.291,0,0,0-.071.076.45.45,0,0,0-.092.424.457.457,0,1,0,.817-.39Z" transform="translate(-1076.334 -251.642)" fill="#efc775"/>
          </g>
        </g>
      </g>
    </g>
    <g id="Grupo_7536" data-name="Grupo 7536" transform="translate(984.66 158.967)">
      <path id="Caminho_4215" data-name="Caminho 4215" d="M1027.054,172.143a7.324,7.324,0,1,1,10.161-1.334l-.008.008a11.562,11.562,0,0,0-.948.992,7.308,7.308,0,0,1-9.2.334Z" transform="translate(-1024.131 -158.967)" fill="#feaf66"/>
      <path id="Caminho_4216" data-name="Caminho 4216" d="M1038.51,181.7a8.735,8.735,0,0,0-2.287,4.938h-4.9a8.348,8.348,0,0,0-2.014-4.6,7.308,7.308,0,0,0,9.2-.334Z" transform="translate(-1026.383 -168.86)" fill="#feaf66"/>
      <path id="Caminho_4217" data-name="Caminho 4217" d="M1037.984,193.723v.97h-6.176v-.97h6.176Z" transform="translate(-1027.471 -174.09)" fill="#b0bfc1"/>
      <path id="Caminho_4218" data-name="Caminho 4218" d="M1037.984,190.444v1.141h-6.176v-1.141h6.176Z" transform="translate(-1027.471 -172.663)" fill="#b0bfc1"/>
      <rect id="Retângulo_4104" data-name="Retângulo 4104" width="5.092" height="0.711" transform="translate(4.789 18.922)" fill="#6d7272"/>
      <path id="Caminho_4219" data-name="Caminho 4219" d="M1033.447,195.44h4.341s-.228,1.339-2.182,1.339S1033.447,195.44,1033.447,195.44Z" transform="translate(-1028.185 -174.837)" fill="#6d7272"/>
      <path id="Caminho_4220" data-name="Caminho 4220" d="M1032.613,183.356q-1.193-4.417-2.386-8.835c-.063-.232-.414-.105-.352.127q1.193,4.417,2.386,8.835C1032.323,183.715,1032.676,183.587,1032.613,183.356Z" transform="translate(-1026.627 -165.681)" fill="#fff"/>
      <path id="Caminho_4221" data-name="Caminho 4221" d="M1041.816,173.419q-1.113,4.7-2.228,9.4c-.055.235.312.306.367.072q1.114-4.7,2.228-9.4C1042.24,173.257,1041.872,173.185,1041.816,173.419Z" transform="translate(-1030.854 -165.193)" fill="#fff"/>
      <g id="Grupo_7535" data-name="Grupo 7535" transform="translate(2.752 6.754)">
        <path id="Caminho_4222" data-name="Caminho 4222" d="M1030.548,176.562a1.475,1.475,0,0,1-.4-.055,1.62,1.62,0,0,1-1.141-1.4.188.188,0,0,1,.173-.2.185.185,0,0,1,.2.173,1.2,1.2,0,0,0,2.169.615,1.306,1.306,0,0,0,.153-.281,1.845,1.845,0,0,1-.518-.551,1.9,1.9,0,0,1-.319-1.19.561.561,0,0,1,1.088-.221,2.021,2.021,0,0,1,.263,1.076,3.147,3.147,0,0,1-.066.7,1.375,1.375,0,0,0,1.252-.259,2.071,2.071,0,0,0,.436-.467,2.634,2.634,0,0,1-.5-.871,4.153,4.153,0,0,1-.2-2.1.715.715,0,0,1,.3-.538.648.648,0,0,1,.7.106,1.8,1.8,0,0,1,.681,1.3,3.263,3.263,0,0,1-.224,1.406,4.362,4.362,0,0,1-.282.634,1.044,1.044,0,0,0,.754.216.854.854,0,0,0,.226-.068,2.753,2.753,0,0,1-.237-1.086,1.627,1.627,0,0,1,.424-1.238.424.424,0,0,1,.324-.15.451.451,0,0,1,.353.2,1.436,1.436,0,0,1,.244,1.083,2.168,2.168,0,0,1-.347,1.019,1.574,1.574,0,0,1-.263.295,1.35,1.35,0,0,0,.507.449,1.456,1.456,0,0,0,1.127.041,2,2,0,0,0,.922-.734,1.3,1.3,0,0,0,.273-.9.187.187,0,1,1,.37-.056,1.648,1.648,0,0,1-.337,1.167,2.368,2.368,0,0,1-1.1.871,1.806,1.806,0,0,1-1.422-.058,1.726,1.726,0,0,1-.655-.576,1.256,1.256,0,0,1-.356.11,1.4,1.4,0,0,1-1.008-.268,2.449,2.449,0,0,1-.487.511,1.765,1.765,0,0,1-1.594.32,1.683,1.683,0,0,1-.185.333A1.628,1.628,0,0,1,1030.548,176.562Zm.829-3.094a.089.089,0,0,0-.046.011.3.3,0,0,0-.1.229,1.532,1.532,0,0,0,.261.954,1.606,1.606,0,0,0,.309.363,2.894,2.894,0,0,0,.034-.495,1.6,1.6,0,0,0-.2-.877A.382.382,0,0,0,1031.377,173.467Zm4.426-.988a.208.208,0,0,0-.062.046,1.316,1.316,0,0,0-.308.963,2.4,2.4,0,0,0,.177.87,1.136,1.136,0,0,0,.138-.167,1.8,1.8,0,0,0,.284-.846,1.092,1.092,0,0,0-.164-.81A.177.177,0,0,0,1035.8,172.479Zm-2.119-1.181a.121.121,0,0,0-.062.014c-.054.031-.092.12-.118.273a3.778,3.778,0,0,0,.181,1.912,2.382,2.382,0,0,0,.351.66,4.276,4.276,0,0,0,.207-.486,2.9,2.9,0,0,0,.2-1.245,1.449,1.449,0,0,0-.531-1.033A.438.438,0,0,0,1033.684,171.3Z" transform="translate(-1029.003 -170.924)" fill="#fff"/>
      </g>
    </g>
    <path id="Caminho_4223" data-name="Caminho 4223" d="M983.62,166.561h-3.5s-.505-3.959,1.679-3.959S983.62,166.561,983.62,166.561Z" transform="translate(-20.298 -1.582)" fill="#224e72"/>
    <path id="Caminho_4224" data-name="Caminho 4224" d="M993.243,165.106v14.813l-4.548-4.5-3.742,5.022V166.561s.359-3.959-1.824-3.959h7.612A2.5,2.5,0,0,1,993.243,165.106Z" transform="translate(-21.63 -1.582)" fill="#41709e"/>
    <g id="Grupo_7541" data-name="Grupo 7541" transform="translate(998.047 233.342)">
      <g id="Grupo_7537" data-name="Grupo 7537" transform="translate(0 6.591)">
        <path id="Caminho_4225" data-name="Caminho 4225" d="M1083.545,319.585v0h-35.714c.115-.215.219-.427.317-.633l35.4-.993Z" transform="translate(-1047.831 -309.115)" fill="#f4eec3"/>
        <path id="Caminho_4226" data-name="Caminho 4226" d="M1084.1,313.173v1.251l-34.994,1.356a10.745,10.745,0,0,0,.706-2.931Z" transform="translate(-1048.386 -306.891)" fill="#f4eec3"/>
        <path id="Caminho_4227" data-name="Caminho 4227" d="M1084.031,305.831v.835l-34.278,1.417a7.432,7.432,0,0,0-.8-2.91Z" transform="translate(-1048.318 -303.551)" fill="#f4eec3"/>
        <path id="Caminho_4228" data-name="Caminho 4228" d="M1083.789,315.636v1.314l-35.4.993c.154-.327.288-.642.4-.951Z" transform="translate(-1048.075 -308.103)" fill="#fffde9"/>
        <path id="Caminho_4229" data-name="Caminho 4229" d="M1084.644,307.816v3.167l-34.288-.324a8.842,8.842,0,0,0,.01-1.426Z" transform="translate(-1048.93 -304.701)" fill="#fffde9"/>
        <path id="Caminho_4230" data-name="Caminho 4230" d="M1083.545,303.464v1.623l-35.082-.657a4.823,4.823,0,0,0-.631-.966Z" transform="translate(-1047.831 -302.807)" fill="#fffde9"/>
        <path id="Caminho_4231" data-name="Caminho 4231" d="M1111.055,303.464s1.129,1.163,1.129,4.977-1.129,4.835-1.129,4.835v-9.812Z" transform="translate(-1075.341 -302.807)" fill="#e5e4d3"/>
        <path id="Caminho_4232" data-name="Caminho 4232" d="M1131.912,302.958v9.955a.685.685,0,0,1-.7.657V302.3A.684.684,0,0,1,1131.912,302.958Z" transform="translate(-1084.111 -302.301)" fill="#41709e"/>
        <rect id="Retângulo_4105" data-name="Retângulo 4105" width="2.236" height="11.268" transform="translate(44.862 0)" fill="#5ff0ff"/>
        <rect id="Retângulo_4106" data-name="Retângulo 4106" width="3.05" height="11.268" transform="translate(41.812 0)" fill="#41709e"/>
        <rect id="Retângulo_4107" data-name="Retângulo 4107" width="1.071" height="11.268" transform="translate(40.741 0)" fill="#5ff0ff"/>
        <rect id="Retângulo_4108" data-name="Retângulo 4108" width="2.983" height="11.268" transform="translate(37.758 0)" fill="#41709e"/>
        <path id="Caminho_4233" data-name="Caminho 4233" d="M1085.589,302.3V313.57h-37.054a.685.685,0,0,1-.7-.657v-.139h35.714v0s1.129-1.02,1.129-4.835-1.129-4.977-1.129-4.977h-35.714a.684.684,0,0,1,.7-.657Z" transform="translate(-1047.831 -302.301)" fill="#5ff0ff"/>
        <path id="Caminho_4234" data-name="Caminho 4234" d="M1128.293,305.142c0-.118-.147-.1-.144.014l.042,1.738c0,.117.147.1.144-.014Q1128.314,306.011,1128.293,305.142Z" transform="translate(-1082.779 -303.502)" fill="#41709e"/>
        <path id="Caminho_4235" data-name="Caminho 4235" d="M1128.28,309.568l-.07,4.884c0,.117.143.1.145-.014q.035-2.442.069-4.884C1128.426,309.438,1128.281,309.452,1128.28,309.568Z" transform="translate(-1082.806 -305.422)" fill="#41709e"/>
        <path id="Caminho_4236" data-name="Caminho 4236" d="M1129.355,306.883c0-.117-.148-.1-.144.014q.024.819.049,1.639c0,.117.148.1.144-.014Z" transform="translate(-1083.241 -304.259)" fill="#41709e"/>
        <path id="Caminho_4237" data-name="Caminho 4237" d="M1130.608,314.717c0-.117-.145-.1-.145.014l.01,2.327c0,.117.145.1.145-.014Q1130.613,315.881,1130.608,314.717Z" transform="translate(-1083.786 -307.668)" fill="#41709e"/>
        <path id="Caminho_4238" data-name="Caminho 4238" d="M1130.572,319.606v.885c0,.117.144.1.144-.014v-.885C1130.716,319.475,1130.572,319.489,1130.572,319.606Z" transform="translate(-1083.833 -309.789)" fill="#41709e"/>
        <path id="Caminho_4239" data-name="Caminho 4239" d="M1129.946,318.662c-.006-.117-.15-.1-.144.014l.049.886c.006.117.151.1.144-.014Z" transform="translate(-1083.498 -309.385)" fill="#41709e"/>
        <path id="Caminho_4240" data-name="Caminho 4240" d="M1111.49,302.684c-.078-.063-.141.1-.064.164,1.361,1.105,1.563,3.3,1.449,5.164a15.564,15.564,0,0,1-1.255,5.255c-.045.1.085.182.13.08a15.819,15.819,0,0,0,1.29-5.806C1113.1,305.723,1112.784,303.735,1111.49,302.684Z" transform="translate(-1075.487 -302.461)" fill="#41709e"/>
      </g>
      <g id="Grupo_7538" data-name="Grupo 7538" transform="translate(1.786 24.976)">
        <path id="Caminho_4241" data-name="Caminho 4241" d="M1072.392,345.818v1.492h35.714a7.515,7.515,0,0,1-.576-1.029v0h0Z" transform="translate(-1060.304 -339.621)" fill="#f4eec3"/>
        <path id="Caminho_4242" data-name="Caminho 4242" d="M1072.392,341.391v.935l34.72.835a5.715,5.715,0,0,1-.149-1.707l-.012,0Z" transform="translate(-1060.304 -337.694)" fill="#f4eec3"/>
        <path id="Caminho_4243" data-name="Caminho 4243" d="M1072.392,337.973v.811l34.76-.063a5.828,5.828,0,0,1,.374-1.017Z" transform="translate(-1060.304 -336.09)" fill="#f4eec3"/>
        <path id="Caminho_4244" data-name="Caminho 4244" d="M1072.392,343.047v1.565l35.135.46a6.368,6.368,0,0,1-.415-1.19Z" transform="translate(-1060.304 -338.415)" fill="#fffde9"/>
        <path id="Caminho_4245" data-name="Caminho 4245" d="M1072.392,339.568v1l34.559.06.012,0a5.335,5.335,0,0,1,.19-1.129Z" transform="translate(-1060.304 -336.874)" fill="#fffde9"/>
        <path id="Caminho_4246" data-name="Caminho 4246" d="M1072.392,336.01v1.226l35.135-.269h0v0a4.8,4.8,0,0,1,.576-.954Z" transform="translate(-1060.304 -335.353)" fill="#fffde9"/>
        <path id="Caminho_4247" data-name="Caminho 4247" d="M1070.4,339.6c0,3.815,1.126,3.445,1.126,3.445v-7.033S1070.4,335.781,1070.4,339.6Z" transform="translate(-1059.436 -335.351)" fill="#e5e4d3"/>
        <rect id="Retângulo_4109" data-name="Retângulo 4109" width="1.943" height="8.486" transform="translate(1.139 0)" fill="#efc775"/>
        <rect id="Retângulo_4110" data-name="Retângulo 4110" width="1.926" height="8.486" transform="translate(7.991 0)" fill="#efc775"/>
        <path id="Caminho_4248" data-name="Caminho 4248" d="M1050.992,335.5v7.172a.685.685,0,0,0,.706.657h.433v-8.486h-.433A.687.687,0,0,0,1050.992,335.5Z" transform="translate(-1050.992 -334.847)" fill="#41709e"/>
        <rect id="Retângulo_4111" data-name="Retângulo 4111" width="2.983" height="8.486" transform="translate(3.082 0)" fill="#41709e"/>
        <rect id="Retângulo_4112" data-name="Retângulo 4112" width="1.926" height="8.486" transform="translate(6.065 0)" fill="#36395e"/>
        <path id="Caminho_4249" data-name="Caminho 4249" d="M1068.548,334.847v8.486h37.181a.681.681,0,0,0,.7-.657v-.14h-35.714s-1.126.369-1.126-3.445,1.126-3.588,1.126-3.588h35.714a.683.683,0,0,0-.7-.657Z" transform="translate(-1058.631 -334.847)" fill="#41709e"/>
        <path id="Caminho_4250" data-name="Caminho 4250" d="M1060.691,336.061c0-.117.145-.1.144.014l-.014,2.163c0,.118-.145.1-.145-.014Q1060.684,337.143,1060.691,336.061Z" transform="translate(-1055.206 -335.34)" fill="#2e5a7f"/>
        <path id="Caminho_4251" data-name="Caminho 4251" d="M1060.749,341.356q.007,1.868.014,3.737c0,.118-.144.1-.144-.014q-.007-1.868-.014-3.737C1060.6,341.225,1060.748,341.239,1060.749,341.356Z" transform="translate(-1055.174 -337.638)" fill="#2e5a7f"/>
        <path id="Caminho_4252" data-name="Caminho 4252" d="M1059.862,338.629v2.458c0,.117-.144.1-.144-.014v-2.458C1059.718,338.5,1059.862,338.512,1059.862,338.629Z" transform="translate(-1054.789 -336.451)" fill="#2e5a7f"/>
        <path id="Caminho_4253" data-name="Caminho 4253" d="M1057.259,341.574c0-.117.147-.1.144.014l-.048,2.2c0,.117-.147.1-.144-.014Q1057.235,342.673,1057.259,341.574Z" transform="translate(-1053.698 -337.739)" fill="#2e5a7f"/>
        <path id="Caminho_4254" data-name="Caminho 4254" d="M1057.534,347.043l.006.951c0,.117-.143.1-.145-.014l-.006-.95C1057.39,346.912,1057.533,346.926,1057.534,347.043Z" transform="translate(-1053.776 -340.112)" fill="#2e5a7f"/>
        <path id="Caminho_4255" data-name="Caminho 4255" d="M1057.96,344.531c.007-.117.151-.1.144.014q-.048.836-.1,1.673c-.007.117-.151.1-.145-.014Z" transform="translate(-1053.981 -339.026)" fill="#2e5a7f"/>
        <path id="Caminho_4256" data-name="Caminho 4256" d="M1070.229,335.249c.054-.1.173.007.119.1a8.016,8.016,0,0,0,.108,7.8c.057.093-.053.212-.109.119A8.243,8.243,0,0,1,1070.229,335.249Z" transform="translate(-1058.934 -335.005)" fill="#2e5a7f"/>
      </g>
      <g id="Grupo_7539" data-name="Grupo 7539" transform="translate(4.82 17.927)">
        <path id="Caminho_4257" data-name="Caminho 4257" d="M1065.243,323.918v1.063l-8.879-.469v-.593Z" transform="translate(-1056.364 -323.043)" fill="#f4eec3"/>
        <path id="Caminho_4258" data-name="Caminho 4258" d="M1065.243,326.576v1.438l-8.879-.188v-.781Z" transform="translate(-1056.364 -324.2)" fill="#f4eec3"/>
        <path id="Caminho_4259" data-name="Caminho 4259" d="M1065.243,330.784v.784l-8.879.279v-.969Z" transform="translate(-1056.364 -326.03)" fill="#f4eec3"/>
        <rect id="Retângulo_4113" data-name="Retângulo 4113" width="8.879" height="1.032" transform="translate(0 6.222)" fill="#f4eec3"/>
        <path id="Caminho_4260" data-name="Caminho 4260" d="M1065.243,332.172v.684h-8.879v-.406Z" transform="translate(-1056.364 -326.634)" fill="#fffde9"/>
        <path id="Caminho_4261" data-name="Caminho 4261" d="M1065.243,328.977v.939l-8.879.094v-1.22Z" transform="translate(-1056.364 -325.163)" fill="#fffde9"/>
        <path id="Caminho_4262" data-name="Caminho 4262" d="M1065.243,325.438v.439l-8.879.469v-1.378Z" transform="translate(-1056.364 -323.5)" fill="#fffde9"/>
        <rect id="Retângulo_4114" data-name="Retângulo 4114" width="8.879" height="0.875" fill="#fffde9"/>
        <rect id="Retângulo_4115" data-name="Retângulo 4115" width="4.35" height="7.254" transform="translate(38.972)" fill="#f49445"/>
        <rect id="Retângulo_4116" data-name="Retângulo 4116" width="1.477" height="7.254" transform="translate(37.495)" fill="#5ff0ff"/>
        <rect id="Retângulo_4117" data-name="Retângulo 4117" width="0.947" height="7.254" transform="translate(36.547)" fill="#efc775"/>
        <rect id="Retângulo_4118" data-name="Retângulo 4118" width="2.72" height="7.254" transform="translate(33.828)" fill="#5ff0ff"/>
        <rect id="Retângulo_4119" data-name="Retângulo 4119" width="16.294" height="7.254" transform="translate(17.534)" fill="#f49445"/>
        <rect id="Retângulo_4120" data-name="Retângulo 4120" width="1.477" height="7.254" transform="translate(16.056)" fill="#5ff0ff"/>
        <rect id="Retângulo_4121" data-name="Retângulo 4121" width="1.007" height="7.254" transform="translate(15.05)" fill="#efc775"/>
        <rect id="Retângulo_4122" data-name="Retângulo 4122" width="1.831" height="7.254" transform="translate(13.218)" fill="#5ff0ff"/>
        <path id="Caminho_4263" data-name="Caminho 4263" d="M1072.083,327.906v-5.537h4.339v7.254h-4.339v-1.717Z" transform="translate(-1063.204 -322.369)" fill="#f49445"/>
        <path id="Caminho_4264" data-name="Caminho 4264" d="M1072.943,323.782c0-.117-.13-.1-.128.014l.136,4.966c0,.118.131.1.127-.014Z" transform="translate(-1063.522 -322.948)" fill="#efc775"/>
        <path id="Caminho_4265" data-name="Caminho 4265" d="M1073.811,323.955c0-.118-.131-.1-.127.014l.062,1.869c0,.117.131.1.127-.014Z" transform="translate(-1063.9 -323.024)" fill="#efc775"/>
        <path id="Caminho_4266" data-name="Caminho 4266" d="M1074.86,326.477c-.007-.117-.134-.1-.128.014q.035.64.068,1.279c.006.117.134.1.128-.014Z" transform="translate(-1064.357 -324.121)" fill="#efc775"/>
        <path id="Caminho_4267" data-name="Caminho 4267" d="M1088.925,328.567c-.007-.117-.134-.1-.127.014q.086,1.5.173,3c.007.117.134.1.127-.014Q1089.011,330.067,1088.925,328.567Z" transform="translate(-1070.477 -325.031)" fill="#efc775"/>
        <path id="Caminho_4268" data-name="Caminho 4268" d="M1090.27,328.916c0-.118-.132-.1-.127.013l.086,2.41c0,.117.132.1.128-.014Q1090.313,330.121,1090.27,328.916Z" transform="translate(-1071.062 -325.182)" fill="#efc775"/>
        <path id="Caminho_4269" data-name="Caminho 4269" d="M1091.292,330.92c-.01-.116-.137-.1-.128.014l.1,1.229c.01.116.137.1.128-.014Q1091.344,331.534,1091.292,330.92Z" transform="translate(-1071.506 -326.054)" fill="#efc775"/>
        <path id="Caminho_4270" data-name="Caminho 4270" d="M1125.8,322.664l-.095,6.228c0,.118.125.1.127-.014q.047-3.114.095-6.228C1125.929,322.533,1125.8,322.548,1125.8,322.664Z" transform="translate(-1086.536 -322.456)" fill="#efc775"/>
        <path id="Caminho_4271" data-name="Caminho 4271" d="M1126.773,323.085c0-.118-.128-.1-.127.013l.012,1.295c0,.117.128.1.127-.014Q1126.779,323.733,1126.773,323.085Z" transform="translate(-1086.945 -322.645)" fill="#efc775"/>
        <path id="Caminho_4272" data-name="Caminho 4272" d="M1126.634,326.581l-.113,2.787c0,.117.123.1.127-.014q.057-1.394.114-2.787C1126.766,326.451,1126.639,326.466,1126.634,326.581Z" transform="translate(-1086.891 -324.161)" fill="#efc775"/>
        <path id="Caminho_4273" data-name="Caminho 4273" d="M1127.45,324.36c0-.117-.13-.1-.128.014q.021.844.043,1.688c0,.117.13.1.127-.014Z" transform="translate(-1087.24 -323.2)" fill="#efc775"/>
        <path id="Caminho_4274" data-name="Caminho 4274" d="M1115.274,324.986q-.031,2.376-.062,4.752c0,.117.126.1.128-.014q.031-2.377.062-4.752C1115.4,324.855,1115.276,324.87,1115.274,324.986Z" transform="translate(-1081.97 -323.466)" fill="#efc775"/>
        <path id="Caminho_4275" data-name="Caminho 4275" d="M1114.626,329.147c-.006-.117-.133-.1-.127.014a15.962,15.962,0,0,1-.02,2.073c-.009.116.116.152.125.035A16.2,16.2,0,0,0,1114.626,329.147Z" transform="translate(-1081.651 -325.283)" fill="#efc775"/>
      </g>
      <g id="Grupo_7540" data-name="Grupo 7540" transform="translate(9.573)">
        <path id="Caminho_4276" data-name="Caminho 4276" d="M1114.2,292.051v.973l7.2-.43v-.543Z" transform="translate(-1086.28 -291.25)" fill="#f4eec3"/>
        <path id="Caminho_4277" data-name="Caminho 4277" d="M1114.2,294.484V295.8l7.2-.172v-.715Z" transform="translate(-1086.28 -292.309)" fill="#f4eec3"/>
        <path id="Caminho_4278" data-name="Caminho 4278" d="M1114.2,298.335v.718l7.2.255v-.887Z" transform="translate(-1086.28 -293.984)" fill="#f4eec3"/>
        <rect id="Retângulo_4123" data-name="Retângulo 4123" width="7.197" height="0.945" transform="translate(27.915 5.695)" fill="#f4eec3"/>
        <path id="Caminho_4279" data-name="Caminho 4279" d="M1114.2,299.606v.626h7.2v-.371Z" transform="translate(-1086.28 -294.537)" fill="#fffde9"/>
        <path id="Caminho_4280" data-name="Caminho 4280" d="M1114.2,296.682v.859l7.2.086V296.51Z" transform="translate(-1086.28 -293.19)" fill="#fffde9"/>
        <path id="Caminho_4281" data-name="Caminho 4281" d="M1114.2,293.442v.4l7.2.43v-1.261Z" transform="translate(-1086.28 -291.668)" fill="#fffde9"/>
        <rect id="Retângulo_4124" data-name="Retângulo 4124" width="7.197" height="0.801" transform="translate(27.915)" fill="#fffde9"/>
        <rect id="Retângulo_4125" data-name="Retângulo 4125" width="3.525" height="6.64" fill="#00accb"/>
        <rect id="Retângulo_4126" data-name="Retângulo 4126" width="1.197" height="6.64" transform="translate(3.525)" fill="#f49445"/>
        <rect id="Retângulo_4127" data-name="Retângulo 4127" width="0.768" height="6.64" transform="translate(4.723)" fill="#00accb"/>
        <rect id="Retângulo_4128" data-name="Retângulo 4128" width="2.204" height="6.64" transform="translate(5.491)" fill="#f49445"/>
        <rect id="Retângulo_4129" data-name="Retângulo 4129" width="13.206" height="6.64" transform="translate(7.695)" fill="#00accb"/>
        <rect id="Retângulo_4130" data-name="Retângulo 4130" width="1.197" height="6.64" transform="translate(20.901)" fill="#f49445"/>
        <rect id="Retângulo_4131" data-name="Retângulo 4131" width="0.816" height="6.64" transform="translate(22.098)" fill="#00accb"/>
        <rect id="Retângulo_4132" data-name="Retângulo 4132" width="1.484" height="6.64" transform="translate(22.914)" fill="#f49445"/>
        <path id="Caminho_4282" data-name="Caminho 4282" d="M1111.487,295.7v-5.069h-3.517v6.64h3.517V295.7Z" transform="translate(-1083.571 -290.633)" fill="#00accb"/>
        <path id="Caminho_4283" data-name="Caminho 4283" d="M1113.334,291.926c0-.107.105-.094.1.013l-.11,4.546c0,.107-.106.095-.1-.012Z" transform="translate(-1085.858 -291.163)" fill="#41709e"/>
        <path id="Caminho_4284" data-name="Caminho 4284" d="M1112.676,292.085c0-.107.106-.095.1.012l-.05,1.711c0,.107-.107.094-.1-.013Z" transform="translate(-1085.597 -291.232)" fill="#41709e"/>
        <path id="Caminho_4285" data-name="Caminho 4285" d="M1111.822,294.394c.005-.107.108-.095.1.012l-.055,1.17c-.005.107-.108.095-.1-.012Z" transform="translate(-1085.223 -292.237)" fill="#41709e"/>
        <path id="Caminho_4286" data-name="Caminho 4286" d="M1100.357,296.307c.006-.107.109-.094.1.013l-.14,2.745c-.005.107-.108.094-.1-.012Z" transform="translate(-1080.198 -293.069)" fill="#41709e"/>
        <path id="Caminho_4287" data-name="Caminho 4287" d="M1099.321,296.626c0-.107.107-.095.1.012l-.07,2.207c0,.107-.107.094-.1-.013Z" transform="translate(-1079.777 -293.208)" fill="#41709e"/>
        <path id="Caminho_4288" data-name="Caminho 4288" d="M1098.481,298.46c.008-.107.111-.094.1.012l-.083,1.125c-.008.106-.111.094-.1-.012Z" transform="translate(-1079.406 -294.006)" fill="#41709e"/>
        <path id="Caminho_4289" data-name="Caminho 4289" d="M1070.519,290.9l.077,5.7c0,.107-.1.094-.1-.012q-.039-2.85-.077-5.7C1070.415,290.783,1070.518,290.8,1070.519,290.9Z" transform="translate(-1067.231 -290.713)" fill="#41709e"/>
        <path id="Caminho_4290" data-name="Caminho 4290" d="M1069.783,291.288c0-.107.1-.094.1.013l-.01,1.185c0,.107-.1.094-.1-.012Z" transform="translate(-1066.951 -290.885)" fill="#41709e"/>
        <path id="Caminho_4291" data-name="Caminho 4291" d="M1069.832,294.489l.092,2.55c0,.107-.1.093-.1-.012l-.092-2.551C1069.725,294.369,1069.828,294.383,1069.832,294.489Z" transform="translate(-1066.932 -292.273)" fill="#41709e"/>
        <path id="Caminho_4292" data-name="Caminho 4292" d="M1069.215,292.456c0-.107.106-.094.1.013q-.017.773-.035,1.546c0,.108-.105.095-.1-.012Z" transform="translate(-1066.693 -291.394)" fill="#41709e"/>
        <path id="Caminho_4293" data-name="Caminho 4293" d="M1079.071,293.028q.025,2.175.05,4.35c0,.107-.1.094-.1-.012q-.026-2.175-.05-4.35C1078.967,292.908,1079.07,292.921,1079.071,293.028Z" transform="translate(-1070.952 -291.637)" fill="#41709e"/>
        <path id="Caminho_4294" data-name="Caminho 4294" d="M1079.607,296.838c.005-.107.109-.094.1.013a16.518,16.518,0,0,0,.017,1.9c.007.106-.094.139-.1.032A16.823,16.823,0,0,1,1079.607,296.838Z" transform="translate(-1071.221 -293.3)" fill="#41709e"/>
      </g>
    </g>
    <g id="Grupo_7564" data-name="Grupo 7564" transform="translate(964.032 184.267)">
      <g id="Grupo_7549" data-name="Grupo 7549" transform="translate(17.555 35.166)">
        <path id="Caminho_4295" data-name="Caminho 4295" d="M1033.758,313.393a.254.254,0,0,1,.014.081,6.693,6.693,0,0,1-5.774-1.691l-.067.076c-.067.029-.129.058-.2.082q-.208-5.463-.666-10.92c-.211-2.515-.465-5.026-.911-7.508-.34-1.9-.8-3.776-1.021-5.692-.776-6.608,1.213-13.306.5-19.9a14.268,14.268,0,0,0,3.2-.6c1.084-.34,2.128-.8,3.235-1.059a17.054,17.054,0,0,1,5.06-.12l0,.11a22.949,22.949,0,0,1,2.818,9.094,90.112,90.112,0,0,1,.364,9.583,196.94,196.94,0,0,0,2.008,26.186l-.038.005c-.129.014-.259.033-.393.043a18.2,18.2,0,0,1-5.74-.311,66.334,66.334,0,0,0-1.4-13.632q-.64-3.688-1.274-7.369c-.571,7.2,1.586,14.523.671,21.639-.077.637-.182,1.265-.317,1.9Z" transform="translate(-1021.415 -266.009)" fill="#36395e"/>
        <path id="Caminho_4296" data-name="Caminho 4296" d="M1040.553,348.014a.253.253,0,0,0-.014-.081l.076-.01c.134-.633.24-1.26.316-1.9l.072.01a5.672,5.672,0,0,0,1.931-.546.754.754,0,0,0,0-.1,18.2,18.2,0,0,0,5.74.311v2.894q-3.988.029-7.973.163a.141.141,0,0,1-.062-.01c0-.019,0-.038,0-.058Q1040.6,348.351,1040.553,348.014Z" transform="translate(-1028.197 -300.549)" fill="#1e223a"/>
        <path id="Caminho_4297" data-name="Caminho 4297" d="M1025.009,347.2c.067-.024.129-.053.2-.082l.067-.076a6.692,6.692,0,0,0,5.774,1.691q.05.338.086.676c-.019,0-.034.01-.029.024a.041.041,0,0,0,.033.033c.048.455.086.905.106,1.361v.124h-10.877a3.259,3.259,0,0,1-1.155-.555,1.291,1.291,0,0,1-.479-.594,1.152,1.152,0,0,1,.661-1.294,4.1,4.1,0,0,1,1.547-.3A13.149,13.149,0,0,0,1025.009,347.2Z" transform="translate(-1018.69 -301.268)" fill="#1e223a"/>
        <g id="Grupo_7542" data-name="Grupo 7542" transform="translate(12.161 0.452)">
          <path id="Caminho_4298" data-name="Caminho 4298" d="M1043.186,266.913c-.025-.149-.261-.133-.236.018a13.658,13.658,0,0,1-2.284,10.127.116.116,0,0,0-.021.066.12.12,0,0,0-.039.087l-.388,13.215c0,.152.232.133.236-.017q.194-6.6.387-13.193l0,0A13.889,13.889,0,0,0,1043.186,266.913Z" transform="translate(-1040.218 -266.809)" fill="#1e223a"/>
        </g>
        <g id="Grupo_7543" data-name="Grupo 7543" transform="translate(4.205 1.192)">
          <path id="Caminho_4299" data-name="Caminho 4299" d="M1029.374,278.552q.582-5.147,1.165-10.293c.017-.151-.215-.2-.232-.046q-.2,1.793-.417,3.585a5.374,5.374,0,0,1-3.547-2.765c-.07-.135-.264,0-.194.134a5.591,5.591,0,0,0,3.713,2.867c-.573,4.829-1.169,9.661-1.583,14.5a49.373,49.373,0,0,0-.082,8.831c.275,2.925.872,5.805,1.361,8.7a36.416,36.416,0,0,1,.612,9.864c-.016.151.217.2.233.046.6-5.774-1.063-11.4-1.8-17.08C1027.816,290.768,1028.684,284.646,1029.374,278.552Z" transform="translate(-1026.134 -268.12)" fill="#1e223a"/>
        </g>
        <g id="Grupo_7544" data-name="Grupo 7544" transform="translate(13.863 9.305)">
          <path id="Caminho_4300" data-name="Caminho 4300" d="M1043.874,290.532q-.2-3.972-.407-7.945a.119.119,0,0,0-.236.018q.363,7.068.725,14.137c.24,4.668.477,9.34.983,13.988.285,2.609.657,5.207,1.153,7.784.029.147.265.132.236-.018C1044.556,309.3,1044.353,299.864,1043.874,290.532Z" transform="translate(-1043.231 -282.482)" fill="#1e223a"/>
        </g>
        <g id="Grupo_7545" data-name="Grupo 7545" transform="translate(7.951 23.62)">
          <path id="Caminho_4301" data-name="Caminho 4301" d="M1035.011,307.872a18.87,18.87,0,0,0-2.239,4.7c-.046.145.187.189.232.046a18.448,18.448,0,0,1,2.187-4.589C1035.273,307.9,1035.094,307.745,1035.011,307.872Z" transform="translate(-1032.766 -307.824)" fill="#1e223a"/>
        </g>
        <g id="Grupo_7546" data-name="Grupo 7546" transform="translate(8.531 25.467)">
          <path id="Caminho_4302" data-name="Caminho 4302" d="M1036.053,311.155l-2.244,3.825c-.077.132.136.234.213.1l2.243-3.825C1036.343,311.127,1036.129,311.024,1036.053,311.155Z" transform="translate(-1033.793 -311.094)" fill="#1e223a"/>
        </g>
        <g id="Grupo_7547" data-name="Grupo 7547" transform="translate(15.772 23.347)">
          <path id="Caminho_4303" data-name="Caminho 4303" d="M1047.926,307.4l-1.3,2.605a.119.119,0,0,0,.213.1l1.3-2.605A.119.119,0,0,0,1047.926,307.4Z" transform="translate(-1046.611 -307.34)" fill="#1e223a"/>
        </g>
        <g id="Grupo_7548" data-name="Grupo 7548" transform="translate(16.461 24.641)">
          <path id="Caminho_4304" data-name="Caminho 4304" d="M1049.126,309.692l-1.279,2.234c-.076.132.138.235.213.1l1.278-2.233C1049.414,309.663,1049.2,309.56,1049.126,309.692Z" transform="translate(-1047.831 -309.631)" fill="#1e223a"/>
        </g>
      </g>
      <g id="Grupo_7552" data-name="Grupo 7552" transform="translate(21.903 0.002)">
        <path id="Caminho_4305" data-name="Caminho 4305" d="M1034.122,215.276a3.692,3.692,0,0,1-.249-.441,1.707,1.707,0,0,0-.834-.81.961.961,0,0,0-.834.077,3.6,3.6,0,0,0,.714-1.011,1.444,1.444,0,0,0,.1-.877.691.691,0,0,0-.235-.412.514.514,0,0,0-.239-.105,1.017,1.017,0,0,0-.858.421c-.148.187-.268.4-.407.6a1.482,1.482,0,0,1-.374.4c-.22.149-.579.177-.714-.058a.7.7,0,0,1-.057-.345c0-.086,0-.172,0-.259.014-.436.019-.872.033-1.308v-.1a1.415,1.415,0,0,0-.34-1.131,1.917,1.917,0,0,0-.666-.3,3.552,3.552,0,0,1-1.73-1.322.094.094,0,0,1,.014-.038,1.045,1.045,0,0,1-.11-.1c-.2-.182-.388-.374-.575-.571l-.038-.038a.91.91,0,0,1-.331-.7c.077-.436.671-.527.963-.857.374-.421.173-1.1.422-1.605a1.382,1.382,0,0,1,1.566-.57,6.1,6.1,0,0,1,1.6.81,2.434,2.434,0,0,0,1.706.431c.35-.077.661-.282,1.006-.369a1.6,1.6,0,0,1,1.869,1.121,1.273,1.273,0,0,0,.225.628c.254.259.685.125,1.044.172a1.371,1.371,0,0,1,1.059,1.03,3.929,3.929,0,0,1,.038,1.552c-.029.293-.063.585-.091.877-.034.345-.072.69-.111,1.035-.053.517-.105,1.03-.163,1.543-.038.388-.077.772-.12,1.155-.009.105-.024.211-.038.316a1.793,1.793,0,0,1-.172.571,2.413,2.413,0,0,1-1.864.911,1.42,1.42,0,0,1-1.006-.106A.832.832,0,0,1,1034.122,215.276Z" transform="translate(-1026.387 -203.759)" fill="#36395e"/>
        <path id="Caminho_4306" data-name="Caminho 4306" d="M1032.223,217.6a.66.66,0,0,0-.211.221C1032.084,217.745,1032.156,217.673,1032.223,217.6Zm0,0a.96.96,0,0,1,.834-.077,1.708,1.708,0,0,1,.834.81,3.658,3.658,0,0,0,.249.441,8.328,8.328,0,0,0-3.469.729l-.259.028c-.019-.177-.033-.35-.053-.522l-.024-.058a3.387,3.387,0,0,1-1.193.316,1.49,1.49,0,0,1-1.428-.757c-.278-.613.044-1.39-.287-1.974-.215-.384-.661-.585-.92-.934a.277.277,0,0,1-.072-.2c.014-.129.158-.182.283-.24h.005c.01-.005.014-.005.024-.01a1.307,1.307,0,0,0,.647-1.217,3.527,3.527,0,0,0-.014-.5,5.682,5.682,0,0,1-.057-1.174,1.452,1.452,0,0,1,.129-.474,3.554,3.554,0,0,0,1.73,1.322,1.914,1.914,0,0,1,.666.3,1.414,1.414,0,0,1,.34,1.131v.1c-.014.436-.019.872-.033,1.308,0,.086,0,.172,0,.259a.7.7,0,0,0,.057.345c.135.234.494.206.714.058a1.483,1.483,0,0,0,.374-.4c.139-.2.259-.412.407-.6a1.017,1.017,0,0,1,.857-.421.512.512,0,0,1,.24.105.691.691,0,0,1,.235.412,1.443,1.443,0,0,1-.1.877A3.594,3.594,0,0,1,1032.228,217.592Z" transform="translate(-1026.409 -207.249)" fill="#ffe4b8"/>
        <g id="Grupo_7550" data-name="Grupo 7550" transform="translate(1.157 0.829)">
          <path id="Caminho_4307" data-name="Caminho 4307" d="M1037.3,208.519c-.442-.461-1.02-.391-1.6-.473a1.148,1.148,0,0,1-1.01-.876,1.673,1.673,0,0,0-.313-.564c-.442-.453-1.069-.206-1.588-.071-1.133.3-1.76-.59-2.658-1.064a1.624,1.624,0,0,0-1.642-.039c-.132.078,0,.272.134.195,1.384-.819,2.491,1.42,3.941,1.206.311-.046.6-.21.914-.241.636-.062.847.328,1.043.8a1.243,1.243,0,0,0,.746.81c.538.185,1.14.011,1.644.314.8.479.665,1.564.559,2.343-.214,1.573-.44,3.144-.661,4.716-.022.151.211.2.232.046.249-1.773.615-3.572.736-5.358A2.23,2.23,0,0,0,1037.3,208.519Z" transform="translate(-1028.436 -205.226)" fill="#1e223a"/>
        </g>
        <g id="Grupo_7551" data-name="Grupo 7551" transform="translate(0.894 2.158)">
          <path id="Caminho_4308" data-name="Caminho 4308" d="M1035.407,211.982c-.066-1.086-.706-1.545-1.764-1.526-.866.015-1.634.08-2.048-.851a4.38,4.38,0,0,0-.676-1.286,2.353,2.353,0,0,0-2.895-.429c-.134.071,0,.265.135.195a2.136,2.136,0,0,1,2.08-.012,2.741,2.741,0,0,1,1.1,1.533,1.606,1.606,0,0,0,1.611,1.114,3.425,3.425,0,0,1,1.677.136c.639.371.55,1.24.562,1.872q.039,1.978.077,3.955c0,.153.239.134.236-.018C1035.472,215.107,1035.5,213.536,1035.407,211.982Z" transform="translate(-1027.969 -207.578)" fill="#1e223a"/>
        </g>
      </g>
      <g id="Grupo_7563" data-name="Grupo 7563" transform="translate(0 0)">
        <path id="Caminho_4309" data-name="Caminho 4309" d="M1068.727,220.211l-1.226,3.92-.144-.033.01-.038a2.441,2.441,0,0,1-.33-2.563,3.505,3.505,0,0,1,1.682-1.285Z" transform="translate(-1022.07 -210.915)" fill="#037f8c"/>
        <path id="Caminho_4310" data-name="Caminho 4310" d="M1062.792,218.752l3.67.824a3.506,3.506,0,0,0-1.682,1.285,2.442,2.442,0,0,0,.33,2.563l-.01.038-3.483-.8A9.619,9.619,0,0,1,1062.792,218.752Z" transform="translate(-1019.814 -210.281)" fill="#00accb"/>
        <path id="Caminho_4311" data-name="Caminho 4311" d="M1055.438,219.7a8.307,8.307,0,0,1,.46-1.433,7.588,7.588,0,0,1,.47-.954h0l3.618.815a9.619,9.619,0,0,0-1.174,3.915l-3.637-.829.067-.292A8.125,8.125,0,0,1,1055.438,219.7Z" transform="translate(-1017.012 -209.653)" fill="#bfbfbf"/>
        <path id="Caminho_4312" data-name="Caminho 4312" d="M1049.252,215.528l3.292.738a7.6,7.6,0,0,0-.469.954l-5.683-1.274c.038-.345.077-.69.111-1.035l.508.115h.01a2.013,2.013,0,0,0,.627.235,13.068,13.068,0,0,0,1.423.254.956.956,0,0,0,.168.009Z" transform="translate(-1013.189 -208.609)" fill="#feaf66"/>
        <path id="Caminho_4313" data-name="Caminho 4313" d="M1046.266,216.742l5.683,1.274a8.309,8.309,0,0,0-.46,1.433h0l-5.381-1.165C1046.161,217.772,1046.213,217.259,1046.266,216.742Z" transform="translate(-1013.063 -209.406)" fill="#ffc392"/>
        <path id="Caminho_4314" data-name="Caminho 4314" d="M1047.855,221.409l-2.032-.465c.015-.105.029-.211.038-.316.043-.384.081-.767.12-1.155l5.381,1.165h0a8.125,8.125,0,0,0-.191,1.222l-.067.292Z" transform="translate(-1012.941 -210.594)" fill="#feaf66"/>
        <path id="Caminho_4315" data-name="Caminho 4315" d="M1021.067,222.566l.134-.12c-.024-.259-.052-.513-.081-.767l.259-.028a8.329,8.329,0,0,1,3.469-.729.836.836,0,0,0,.2.206,1.421,1.421,0,0,0,1.006.106,2.413,2.413,0,0,0,1.864-.911,1.793,1.793,0,0,0,.172-.571l2.032.465c.417.982.388,2.219.915,3.182.22.4.532.747.766,1.145a3.248,3.248,0,0,1-.177,3.459c-.206.283-.455.527-.656.81a6.062,6.062,0,0,0-.838,2.525,23.984,23.984,0,0,0-.517,7.269,14.07,14.07,0,0,1,.239,2.137,8.947,8.947,0,0,1-1.37,3.953,17.056,17.056,0,0,0-5.06.12c-1.107.254-2.151.719-3.235,1.059a14.272,14.272,0,0,1-3.2.6c-.206.019-.407.029-.613.034a6.206,6.206,0,0,1-.556-4.327,15.246,15.246,0,0,0,.4-4.619c-.144-.9-.508-1.749-.676-2.64a26.276,26.276,0,0,1-.072-4.389,3.293,3.293,0,0,0-.412-1.739,3.683,3.683,0,0,0-1.682-1.189,40.73,40.73,0,0,0-4.509-1.672,10.058,10.058,0,0,1-2.319-.891,2.908,2.908,0,0,1-1.452-1.931,4.224,4.224,0,0,1,.642-2.492c.579-1.183,1.164-2.367,1.744-3.546a.658.658,0,0,1,.225-.293.635.635,0,0,1,.412-.024c.009,0,.024,0,.033,0,.819.139,1.643.273,2.463.407l.077.015a11.742,11.742,0,0,0-.824,3.623,5.85,5.85,0,0,1,1.035.278,7.508,7.508,0,0,0,2.961.733c.953-.067,2.056-.565,2.774.067.23.2.388.5.681.585.393.12.762-.216,1.116-.426A2.109,2.109,0,0,1,1021.067,222.566Z" transform="translate(-995.209 -209.404)" fill="#00accb"/>
        <path id="Caminho_4316" data-name="Caminho 4316" d="M1049.837,214.492l0,.01a.559.559,0,0,1-.412.12l-.015-.005a.953.953,0,0,1-.168-.009,13.058,13.058,0,0,1-1.423-.254,2.013,2.013,0,0,1-.627-.235h-.01a.366.366,0,0,1-.043-.029.751.751,0,0,1-.345-.613.717.717,0,0,1,.5-.6,1.418,1.418,0,0,1,.81.019A2.659,2.659,0,0,1,1049.837,214.492Z" transform="translate(-1013.366 -207.702)" fill="#ffe4b8"/>
        <path id="Caminho_4317" data-name="Caminho 4317" d="M1023.869,210.412a1.212,1.212,0,0,0,.1.139,1.459,1.459,0,0,0-.129.474l-5.419-1.217a5.16,5.16,0,0,1,.853-.8.8.8,0,0,0,.072-.058l3.953.886C1023.481,210.038,1023.672,210.229,1023.869,210.412Z" transform="translate(-1001.016 -206.018)" fill="#feaf66"/>
        <path id="Caminho_4318" data-name="Caminho 4318" d="M1023.21,212.856a3.545,3.545,0,0,1,.014.5l-6.377-1.38a2.291,2.291,0,0,1,.12-.321,5.273,5.273,0,0,1,.767-1.193l5.419,1.217A5.69,5.69,0,0,0,1023.21,212.856Z" transform="translate(-1000.333 -206.675)" fill="#ffc392"/>
        <path id="Caminho_4319" data-name="Caminho 4319" d="M1016.784,213.145l6.377,1.38a1.307,1.307,0,0,1-.647,1.217c-.01,0-.014,0-.024.01h-.005l-4.912-1.121c-.052-.024-.1-.048-.157-.077a1.475,1.475,0,0,1-.556-.407A1.11,1.11,0,0,1,1016.784,213.145Z" transform="translate(-1000.271 -207.841)" fill="#feaf66"/>
        <path id="Caminho_4320" data-name="Caminho 4320" d="M1016.013,208.121a.212.212,0,0,1-.1.2.8.8,0,0,1-.072.058,5.166,5.166,0,0,0-.853.8,5.276,5.276,0,0,0-.767,1.193,2.292,2.292,0,0,0-.12.321,1.109,1.109,0,0,0,.077,1,1.474,1.474,0,0,0,.556.407c.052.029.105.053.158.077q.309.165.633.316l-.072.149c-.154.34-.6.412-.982.431-.489.029-.977.053-1.471.081-.82-.134-1.644-.268-2.463-.407l.01-.057a7.539,7.539,0,0,0,.685-2.195c.019-.139.038-.273.052-.412a6.746,6.746,0,0,1,.206-1.16,2.209,2.209,0,0,1,.2-.484,1.676,1.676,0,0,1,.728-.762,1.274,1.274,0,0,1,.225-.091,2.885,2.885,0,0,1,1.231-.034,14.367,14.367,0,0,1,1.892.378C1015.869,207.963,1015.993,208.011,1016.013,208.121Z" transform="translate(-997.587 -205.385)" fill="#ffe4b8"/>
        <path id="Caminho_4321" data-name="Caminho 4321" d="M996.059,203.755l9.8,2.2a1.27,1.27,0,0,0-.225.091,1.676,1.676,0,0,0-.728.762l-9.948-2.233Z" transform="translate(-990.811 -203.755)" fill="#feaf66"/>
        <path id="Caminho_4322" data-name="Caminho 4322" d="M994.648,205.206l9.948,2.233a2.215,2.215,0,0,0-.2.484,6.744,6.744,0,0,0-.206,1.16l-9.952-2.152Z" transform="translate(-990.497 -204.386)" fill="#ffc392"/>
        <path id="Caminho_4323" data-name="Caminho 4323" d="M1004.193,210.411c-.014.139-.033.273-.053.412a7.859,7.859,0,0,1-.168.809l-9.521-2.175v0l-.211-1.194Z" transform="translate(-990.497 -205.715)" fill="#feaf66"/>
        <path id="Caminho_4324" data-name="Caminho 4324" d="M994.3,203.755l-1.1.82-.407,1.725.211,1.194-2.089-1.562a3.6,3.6,0,0,0,.56-.968,1.643,1.643,0,0,0,.005-1.208Z" transform="translate(-989.05 -203.755)" fill="#f4d798"/>
        <path id="Caminho_4325" data-name="Caminho 4325" d="M990.044,203.755a1.642,1.642,0,0,1-.005,1.208,3.6,3.6,0,0,1-.56.968l-1.658-1.241a.519.519,0,0,1,.311-.934Z" transform="translate(-987.613 -203.755)" fill="#333028"/>
        <g id="Grupo_7553" data-name="Grupo 7553" transform="translate(11.856 11.217)">
          <path id="Caminho_4326" data-name="Caminho 4326" d="M1011.444,223.731a.116.116,0,0,0-.123-.119,4.7,4.7,0,0,0-2.671.964c-.121.092.012.288.134.195a4.457,4.457,0,0,1,1.821-.831,3.873,3.873,0,0,0-1.438.973c-.1.111.075.265.18.154a3.61,3.61,0,0,1,2.051-1.108A.124.124,0,0,0,1011.444,223.731Z" transform="translate(-1008.602 -223.612)" fill="#0298a0"/>
        </g>
        <g id="Grupo_7554" data-name="Grupo 7554" transform="translate(20.569 19.931)">
          <path id="Caminho_4327" data-name="Caminho 4327" d="M1033.481,243.605c-3.252-.107-5.878-2.17-8.124-4.326-.1-.1-.247.047-.175.157a26.282,26.282,0,0,0,4.438,5.163,10.836,10.836,0,0,1-5.36-5.488c-.06-.139-.284-.06-.223.08a11.077,11.077,0,0,0,6.168,5.917c.12.046.237-.1.129-.2a26.053,26.053,0,0,1-4.347-4.723c2.121,1.913,4.561,3.555,7.512,3.653C1033.651,243.846,1033.631,243.61,1033.481,243.605Z" transform="translate(-1024.027 -239.038)" fill="#0298a0"/>
        </g>
        <g id="Grupo_7555" data-name="Grupo 7555" transform="translate(25.757 28.943)">
          <path id="Caminho_4328" data-name="Caminho 4328" d="M1038,255.05a41.144,41.144,0,0,1-4.762,6.135c-.1.111.076.266.18.155a41.5,41.5,0,0,0,4.8-6.186C1038.3,255.025,1038.084,254.923,1038,255.05Z" transform="translate(-1033.21 -254.992)" fill="#0298a0"/>
        </g>
        <g id="Grupo_7556" data-name="Grupo 7556" transform="translate(26.925 31.829)">
          <path id="Caminho_4329" data-name="Caminho 4329" d="M1039.711,260.128a25.787,25.787,0,0,1-4.378,2.915c-.135.071,0,.265.135.195a25.781,25.781,0,0,0,4.378-2.915C1039.962,260.226,1039.829,260.031,1039.711,260.128Z" transform="translate(-1035.277 -260.101)" fill="#0298a0"/>
        </g>
        <g id="Grupo_7557" data-name="Grupo 7557" transform="translate(25.878 11.612)">
          <path id="Caminho_4330" data-name="Caminho 4330" d="M1038.874,224.435c-.017.478-1.269.381-1.571.408a12.373,12.373,0,0,0-1.359.2,12.9,12.9,0,0,0-2.447.766c-.14.059-.061.282.08.223a12.521,12.521,0,0,1,3.638-.943c.58-.058,1.864.19,1.895-.672C1039.115,224.265,1038.879,224.284,1038.874,224.435Z" transform="translate(-1033.424 -224.312)" fill="#0298a0"/>
        </g>
        <g id="Grupo_7558" data-name="Grupo 7558" transform="translate(31.669 11.889)">
          <path id="Caminho_4331" data-name="Caminho 4331" d="M1047.61,229.6a10.432,10.432,0,0,0-3.733-4.779c-.124-.087-.279.092-.154.18a10.208,10.208,0,0,1,3.665,4.679C1047.442,229.825,1047.666,229.746,1047.61,229.6Z" transform="translate(-1043.677 -224.802)" fill="#0298a0"/>
        </g>
        <g id="Grupo_7559" data-name="Grupo 7559" transform="translate(33.092 11.057)">
          <path id="Caminho_4332" data-name="Caminho 4332" d="M1048.591,227.282a17.351,17.351,0,0,0-2.177-3.9c-.09-.122-.286.012-.195.135a17.06,17.06,0,0,1,2.149,3.849C1048.424,227.5,1048.647,227.424,1048.591,227.282Z" transform="translate(-1046.195 -223.33)" fill="#0298a0"/>
        </g>
        <g id="Grupo_7560" data-name="Grupo 7560" transform="translate(34.24 11.375)">
          <path id="Caminho_4333" data-name="Caminho 4333" d="M1048.97,225.371l-.511-1.4a.119.119,0,0,0-.223.08l.512,1.4A.118.118,0,0,0,1048.97,225.371Z" transform="translate(-1048.228 -223.891)" fill="#0298a0"/>
        </g>
        <g id="Grupo_7561" data-name="Grupo 7561" transform="translate(21.05 12.801)">
          <path id="Caminho_4334" data-name="Caminho 4334" d="M1025.571,227.133c-.1-.31-.214-.629-.557-.712-.149-.036-.193.2-.046.233.34.082.457.786.5,1.063a3.949,3.949,0,0,1,.043.822c-.006.152.23.133.236-.018A3.951,3.951,0,0,0,1025.571,227.133Z" transform="translate(-1024.877 -226.417)" fill="#0298a0"/>
        </g>
        <g id="Grupo_7562" data-name="Grupo 7562" transform="translate(22.143 13.182)">
          <path id="Caminho_4335" data-name="Caminho 4335" d="M1027.284,227.181l-.466,1.635c-.042.147.191.191.232.045l.466-1.635C1027.558,227.08,1027.326,227.035,1027.284,227.181Z" transform="translate(-1026.813 -227.092)" fill="#0298a0"/>
        </g>
        <path id="Caminho_4336" data-name="Caminho 4336" d="M1059.536,217.983a9.894,9.894,0,0,0-1.448,3.856c-.023.151.209.2.232.046a9.741,9.741,0,0,1,1.428-3.8C1059.83,217.958,1059.616,217.856,1059.536,217.983Z" transform="translate(-1018.277 -209.921)" fill="#777"/>
        <path id="Caminho_4337" data-name="Caminho 4337" d="M1057.589,217.535a9,9,0,0,0-1.451,3.8c-.021.15.211.2.232.045a8.746,8.746,0,0,1,1.4-3.69C1057.852,217.564,1057.674,217.408,1057.589,217.535Z" transform="translate(-1017.429 -209.73)" fill="#777"/>
        <path id="Caminho_4338" data-name="Caminho 4338" d="M1061.338,218.525a8.14,8.14,0,0,0-1.4,3.75c-.016.15.216.2.232.045a7.915,7.915,0,0,1,1.346-3.641C1061.6,218.555,1061.424,218.4,1061.338,218.525Z" transform="translate(-1019.084 -210.162)" fill="#777"/>
      </g>
    </g>
    <g id="Grupo_7566" data-name="Grupo 7566" transform="translate(1006.091 178.511)">
      <g id="Grupo_7565" data-name="Grupo 7565">
        <path id="Caminho_4339" data-name="Caminho 4339" d="M1074.491,201.948a4.03,4.03,0,1,1-4.033-4.033A4.036,4.036,0,0,1,1074.491,201.948Z" transform="translate(-1063.967 -195.458)" fill="#f2f2f2" opacity="0.51"/>
        <path id="Caminho_4340" data-name="Caminho 4340" d="M1079.389,214.793l.652.616a2.76,2.76,0,0,1-.414.178l-.6-.58C1079.147,214.94,1079.27,214.869,1079.389,214.793Z" transform="translate(-1069.447 -202.802)" fill="#bfbfbf"/>
        <path id="Caminho_4341" data-name="Caminho 4341" d="M1081.206,212.418l.609.555a3.665,3.665,0,0,1-1.492,1.4l-.652-.616A6.537,6.537,0,0,0,1081.206,212.418Z" transform="translate(-1069.729 -201.768)" fill="#bfbfbf"/>
        <path id="Caminho_4342" data-name="Caminho 4342" d="M1082.658,211.808l.513.556a3.388,3.388,0,0,1-.173.343l-.609-.555C1082.482,212.042,1082.572,211.927,1082.658,211.808Z" transform="translate(-1070.911 -201.503)" fill="#bfbfbf"/>
        <path id="Caminho_4343" data-name="Caminho 4343" d="M1090.141,220.53s1.161.935.186,1.864c-.777.74-1.734-.242-1.734-.242l-7.768-7.348a3.667,3.667,0,0,0,1.492-1.4Z" transform="translate(-1070.231 -202.196)" fill="#0dbacc"/>
        <path id="Caminho_4344" data-name="Caminho 4344" d="M1068.561,193.565a6.493,6.493,0,1,0,3.084,12.207c.124-.068.249-.141.367-.215a6.6,6.6,0,0,0,1.536-1.344c.09-.107.181-.226.265-.345a6.485,6.485,0,0,0-5.253-10.3Zm0,10.524a4.033,4.033,0,1,1,4.033-4.033A4.035,4.035,0,0,1,1068.561,204.089Z" transform="translate(-1062.07 -193.565)" fill="#0dbacc"/>
      </g>
    </g>
  </g>
</svg>
