<svg id="Grupo_7271" data-name="Grupo 7271" xmlns="http://www.w3.org/2000/svg" width="162.482" height="122.677" viewBox="0 0 162.482 122.677">
  <g id="Grupo_7270" data-name="Grupo 7270">
    <g id="Grupo_7181" data-name="Grupo 7181" transform="translate(0.174)">
      <g id="Grupo_7165" data-name="Grupo 7165">
        <path id="Caminho_3745" data-name="Caminho 3745" d="M145.977,278.354a5.725,5.725,0,0,0-2.186.451c0-.208.035-.416.035-.59a7.914,7.914,0,0,0-13.187-5.9,8.044,8.044,0,0,0-3.644-1.284v-4.2a8.4,8.4,0,0,0-16.727-1.111,11.478,11.478,0,0,0-3.3-.486,11.692,11.692,0,0,0-6.455,1.943,11.623,11.623,0,0,0-19.4,8.641,7.845,7.845,0,0,0,.035.9,7.694,7.694,0,0,0-3.227-.694,7.8,7.8,0,0,0-3.679.9,7.91,7.91,0,0,0-13.083-4.65A8.044,8.044,0,0,0,57.518,271v-4.2a8.4,8.4,0,0,0-16.727-1.111,11.477,11.477,0,0,0-3.3-.486,11.692,11.692,0,0,0-6.455,1.943,11.623,11.623,0,0,0-19.4,8.641,7.844,7.844,0,0,0,.035.9,7.694,7.694,0,0,0-3.227-.694A8.012,8.012,0,0,0,.5,283.178H151.356A5.392,5.392,0,0,0,145.977,278.354Z" transform="translate(-0.5 -168.726)" fill="#00c685"/>
        <g id="Grupo_7164" data-name="Grupo 7164" transform="translate(39.525)">
          <g id="Grupo_7163" data-name="Grupo 7163">
            <g id="Grupo_7159" data-name="Grupo 7159" transform="translate(1.564)">
              <path id="Caminho_3746" data-name="Caminho 3746" d="M183.1,111.988h-59.69a4.5,4.5,0,0,1-4.511-4.511V4.511A4.5,4.5,0,0,1,123.411,0H183.1a4.5,4.5,0,0,1,4.511,4.511V107.477A4.525,4.525,0,0,1,183.1,111.988Z" transform="translate(-118.9 0)" fill="#fff"/>
              <ellipse id="Elipse_589" data-name="Elipse 589" cx="5.24" cy="5.24" rx="5.24" ry="5.24" transform="translate(29.116 98.697)" fill="#d3d3d3"/>
              <g id="Grupo_7158" data-name="Grupo 7158" transform="translate(25.785 5.344)">
                <path id="Caminho_3747" data-name="Caminho 3747" d="M215.23,16.927H202.564a.77.77,0,0,1-.763-.763h0a.77.77,0,0,1,.763-.763H215.23a.77.77,0,0,1,.763.763h0A.77.77,0,0,1,215.23,16.927Z" transform="translate(-198.816 -15.4)" fill="#d3d3d3"/>
                <ellipse id="Elipse_590" data-name="Elipse 590" cx="0.763" cy="0.763" rx="0.763" ry="0.763" transform="translate(0 0)" fill="#d3d3d3"/>
              </g>
            </g>
            <g id="Grupo_7162" data-name="Grupo 7162" transform="translate(0 14.08)">
              <g id="Grupo_7160" data-name="Grupo 7160">
                <rect id="Retângulo_4018" data-name="Retângulo 4018" width="7.808" height="1.562" transform="translate(1.562) rotate(90)" fill="#d3d3d3"/>
              </g>
              <g id="Grupo_7161" data-name="Grupo 7161" transform="translate(70.274 0)">
                <rect id="Retângulo_4019" data-name="Retângulo 4019" width="7.808" height="1.562" transform="translate(1.562) rotate(90)" fill="#d3d3d3"/>
                <rect id="Retângulo_4020" data-name="Retângulo 4020" width="7.808" height="1.562" transform="translate(1.573 15.038) rotate(90)" fill="#d3d3d3"/>
              </g>
            </g>
          </g>
        </g>
      </g>
      <g id="Grupo_7180" data-name="Grupo 7180" transform="translate(46.398 10.758)">
        <rect id="Retângulo_4021" data-name="Retângulo 4021" width="58.302" height="84.538" fill="#444a97"/>
        <g id="Grupo_7179" data-name="Grupo 7179" transform="translate(4.789 4.546)">
          <g id="Grupo_7173" data-name="Grupo 7173" transform="translate(0 21.03)">
            <g id="Grupo_7172" data-name="Grupo 7172">
              <g id="Grupo_7169" data-name="Grupo 7169" transform="translate(0)">
                <g id="Grupo_7166" data-name="Grupo 7166" transform="translate(0 0)">
                  <path id="Caminho_3748" data-name="Caminho 3748" d="M160.354,118.581H149.527A1.541,1.541,0,0,1,148,117.054V106.227a1.541,1.541,0,0,1,1.527-1.527h10.827a1.541,1.541,0,0,1,1.527,1.527v10.827A1.541,1.541,0,0,1,160.354,118.581Z" transform="translate(-148 -104.7)" fill="#ff7979"/>
                </g>
                <g id="Grupo_7167" data-name="Grupo 7167" transform="translate(17.386 0)">
                  <path id="Caminho_3749" data-name="Caminho 3749" d="M210.454,118.581H199.627a1.541,1.541,0,0,1-1.527-1.527V106.227a1.541,1.541,0,0,1,1.527-1.527h10.827a1.541,1.541,0,0,1,1.527,1.527v10.827A1.5,1.5,0,0,1,210.454,118.581Z" transform="translate(-198.1 -104.7)" fill="#00de91"/>
                </g>
                <rect id="Retângulo_4022" data-name="Retângulo 4022" width="13.881" height="13.881" transform="translate(34.808)" fill="#3b4182"/>
                <g id="Grupo_7168" data-name="Grupo 7168" transform="translate(19.573 3.401)">
                  <path id="Caminho_3750" data-name="Caminho 3750" d="M209.254,117.554l4.754-2.325a.864.864,0,0,0-.868-.729h-7.808a.9.9,0,0,0-.833.59Z" transform="translate(-204.465 -114.5)" fill="#fff"/>
                  <path id="Caminho_3751" data-name="Caminho 3751" d="M209.154,121.233,204.4,118.7v4.72a.859.859,0,0,0,.868.868h7.808a.859.859,0,0,0,.868-.868v-4.546Z" transform="translate(-204.4 -117.242)" fill="#fff"/>
                </g>
                <path id="Caminho_3752" data-name="Caminho 3752" d="M163.49,113.317a2.108,2.108,0,0,0-.243-.347l.174-.174a.545.545,0,0,0,0-.763l-1.527-1.527a.545.545,0,0,0-.763,0l-1.527,1.527a.525.525,0,0,0-.069.659c.035.035.035.069.069.1l.868.868.659.659a.545.545,0,0,0,.763,0l.416-.416a3.785,3.785,0,0,1,.208.382,1.778,1.778,0,0,1-.416,1.943l-2.082,2.082a1.857,1.857,0,0,1-1.943.416,1.042,1.042,0,0,1-.382-.208l.729-.729a.545.545,0,0,0,0-.763l-.659-.659-.868-.868c-.035-.035-.069-.069-.1-.069a.525.525,0,0,0-.659.069l-1.527,1.527a.545.545,0,0,0,0,.763l1.527,1.527a.558.558,0,0,0,.555.139,1.541,1.541,0,0,0,.382.278,3.158,3.158,0,0,0,3.921-.451l2.082-2.082A3.187,3.187,0,0,0,163.49,113.317Z" transform="translate(-152.212 -108.389)" fill="#fff"/>
              </g>
              <g id="Grupo_7170" data-name="Grupo 7170" transform="translate(0 19.434)">
                <rect id="Retângulo_4023" data-name="Retângulo 4023" width="13.881" height="13.881" fill="#3b4182"/>
                <rect id="Retângulo_4024" data-name="Retângulo 4024" width="13.881" height="13.881" transform="translate(17.421)" fill="#3b4182"/>
                <rect id="Retângulo_4025" data-name="Retângulo 4025" width="13.881" height="13.881" transform="translate(34.808)" fill="#3b4182"/>
              </g>
              <g id="Grupo_7171" data-name="Grupo 7171" transform="translate(0 38.868)">
                <rect id="Retângulo_4026" data-name="Retângulo 4026" width="13.881" height="13.881" fill="#3b4182"/>
                <rect id="Retângulo_4027" data-name="Retângulo 4027" width="13.881" height="13.881" transform="translate(17.421)" fill="#3b4182"/>
                <rect id="Retângulo_4028" data-name="Retângulo 4028" width="13.881" height="13.881" transform="translate(34.808)" fill="#3b4182"/>
              </g>
            </g>
          </g>
          <g id="Grupo_7178" data-name="Grupo 7178" transform="translate(0.035)">
            <g id="Grupo_7176" data-name="Grupo 7176">
              <g id="Grupo_7175" data-name="Grupo 7175">
                <path id="Caminho_3753" data-name="Caminho 3753" d="M153.444,50h-4.824a.511.511,0,0,1-.521-.521V44.621a.511.511,0,0,1,.521-.521h4.824a.511.511,0,0,1,.521.521v4.824A.542.542,0,0,1,153.444,50Z" transform="translate(-148.1 -44.1)" fill="#ff7292"/>
                <g id="Grupo_7174" data-name="Grupo 7174" transform="translate(0.902 1.111)">
                  <rect id="Retângulo_4029" data-name="Retângulo 4029" width="4.026" height="0.833" fill="#fff"/>
                  <rect id="Retângulo_4030" data-name="Retângulo 4030" width="4.026" height="0.833" transform="translate(0 1.423)" fill="#fff"/>
                  <rect id="Retângulo_4031" data-name="Retângulo 4031" width="4.026" height="0.833" transform="translate(0 2.846)" fill="#fff"/>
                </g>
              </g>
            </g>
            <g id="Grupo_7177" data-name="Grupo 7177" transform="translate(38.538)">
              <path id="Caminho_3754" data-name="Caminho 3754" d="M268.537,44.1h-6.073a.829.829,0,0,0-.486.174L259.41,46.46a.76.76,0,0,0,0,1.145l2.568,2.186a.829.829,0,0,0,.486.174h6.073a.77.77,0,0,0,.763-.763V44.829A.763.763,0,0,0,268.537,44.1Z" transform="translate(-259.15 -44.1)" fill="#ff7292"/>
              <path id="Caminho_3755" data-name="Caminho 3755" d="M274.07,48.5l-.9-.9-.833.833L271.5,47.6l-.9.9.833.833-.833.833.9.868.833-.833.833.833.9-.868-.833-.833Z" transform="translate(-266.626 -46.385)" fill="#fff"/>
            </g>
          </g>
        </g>
      </g>
    </g>
    <g id="Grupo_7212" data-name="Grupo 7212" transform="translate(2.672 36.126)">
      <path id="Caminho_3756" data-name="Caminho 3756" d="M55.174,341.988a203.653,203.653,0,0,1-47.474,0A204.3,204.3,0,0,1,31.437,340.6,214.774,214.774,0,0,1,55.174,341.988Z" transform="translate(-7.7 -258.526)" fill="#d3d3d3"/>
      <g id="Grupo_7211" data-name="Grupo 7211" transform="translate(9.076)">
        <g id="Grupo_7182" data-name="Grupo 7182" transform="translate(18.478 17.213)">
          <path id="Caminho_3757" data-name="Caminho 3757" d="M119.059,170.234l-.243-2.429.555-2.985.729.139.035,2.36,3.436-3.019.625.312.625-.208.555.521-.833,1.492.382.451-2.742,3.54-1.7.763L120,172.421l-1.6-.972Z" transform="translate(-107.538 -160.621)" fill="#ffdfc4"/>
          <path id="Caminho_3758" data-name="Caminho 3758" d="M87.135,153.7a5.822,5.822,0,0,1,3.089,3.54c.659,2.533,3.019,10.133,3.54,10.272.521.174,3.852-5.379,3.852-5.379l3.852,2.672s-3.54,8.5-7.739,8.988S87.1,163.764,87.1,163.764V153.7Z" transform="translate(-87.1 -153.7)" fill="#d0d0dd"/>
        </g>
        <g id="Grupo_7194" data-name="Grupo 7194" transform="translate(0.259 37.029)">
          <g id="Grupo_7193" data-name="Grupo 7193" transform="translate(0 37.896)">
            <g id="Grupo_7187" data-name="Grupo 7187" transform="translate(17.074)">
              <path id="Caminho_3759" data-name="Caminho 3759" d="M83.8,327.7l2.95.208.1-.9c1.041.9,4.893,1.319,8.086,1.492l.069-1.111a23.7,23.7,0,0,1-7.427-3.887h0a11.615,11.615,0,0,1-.278-3.3L84.425,320l.243,3.991c-.035.035-.035.069-.069.1A12.193,12.193,0,0,0,83.8,327.7Z" transform="translate(-83.8 -320)" fill="#5e4941"/>
              <path id="Caminho_3760" data-name="Caminho 3760" d="M85.908,324.091c-.035.035-.035.069-.069.1a7.659,7.659,0,0,0,3.019-.59,11.616,11.616,0,0,1-.278-3.3L85.7,320.1Z" transform="translate(-85.041 -320.065)" fill="#fff"/>
              <g id="Grupo_7186" data-name="Grupo 7186" transform="translate(3.624 3.723)">
                <g id="Grupo_7183" data-name="Grupo 7183" transform="translate(1.4 0.923)">
                  <rect id="Retângulo_4032" data-name="Retângulo 4032" width="1.562" height="0.521" transform="matrix(0.622, -0.783, 0.783, 0.622, 0, 1.222)" fill="#fff"/>
                </g>
                <g id="Grupo_7184" data-name="Grupo 7184" transform="translate(0.755 0.48)">
                  <rect id="Retângulo_4033" data-name="Retângulo 4033" width="1.562" height="0.521" transform="translate(0 1.222) rotate(-51.516)" fill="#fff"/>
                </g>
                <g id="Grupo_7185" data-name="Grupo 7185" transform="translate(0 0)">
                  <rect id="Retângulo_4034" data-name="Retângulo 4034" width="1.562" height="0.521" transform="translate(0 1.222) rotate(-51.516)" fill="#fff"/>
                </g>
              </g>
            </g>
            <g id="Grupo_7192" data-name="Grupo 7192">
              <path id="Caminho_3761" data-name="Caminho 3761" d="M45.809,327.7l-2.95.208-.1-.9c-1.041.9-4.893,1.319-8.086,1.492l-.069-1.111a23.7,23.7,0,0,0,7.427-3.887h0a11.616,11.616,0,0,0,.278-3.3l2.88-.208-.243,3.991c.035.035.035.069.069.1A12.194,12.194,0,0,1,45.809,327.7Z" transform="translate(-34.6 -320)" fill="#5e4941"/>
              <path id="Caminho_3762" data-name="Caminho 3762" d="M58.95,324.091c.035.035.035.069.069.1a7.659,7.659,0,0,1-3.019-.59,11.616,11.616,0,0,0,.278-3.3l2.88-.208Z" transform="translate(-48.573 -320.065)" fill="#fff"/>
              <g id="Grupo_7191" data-name="Grupo 7191" transform="translate(4.825 3.707)">
                <g id="Grupo_7188" data-name="Grupo 7188" transform="translate(0 0.902)">
                  <rect id="Retângulo_4035" data-name="Retângulo 4035" width="0.521" height="1.562" transform="matrix(0.783, -0.622, 0.622, 0.783, 0, 0.324)" fill="#fff"/>
                </g>
                <g id="Grupo_7189" data-name="Grupo 7189" transform="translate(0.636 0.469)">
                  <rect id="Retângulo_4036" data-name="Retângulo 4036" width="0.521" height="1.562" transform="matrix(0.783, -0.622, 0.622, 0.783, 0, 0.324)" fill="#fff"/>
                </g>
                <g id="Grupo_7190" data-name="Grupo 7190" transform="translate(1.404 0)">
                  <rect id="Retângulo_4037" data-name="Retângulo 4037" width="0.521" height="1.562" transform="translate(0 0.324) rotate(-38.484)" fill="#fff"/>
                </g>
              </g>
            </g>
          </g>
          <path id="Caminho_3763" data-name="Caminho 3763" d="M52.531,210.8s-2.152,36.335-1.666,39.007h5.448s1.249-30.227,2.672-30.886,2.846,30.886,2.846,30.886h5.275l-2.846-38.451Z" transform="translate(-45.174 -210.8)" fill="#444a97"/>
        </g>
        <g id="Grupo_7195" data-name="Grupo 7195" transform="translate(0 16.484)">
          <path id="Caminho_3764" data-name="Caminho 3764" d="M58.506,151.6s-2.36.278-2.984,1.284c-.625,1.041-.1,19.26-.1,19.26a16.27,16.27,0,0,0,11.73.555s-.382-19.955-.833-20.371a5.953,5.953,0,0,0-2.221-.694l-2.811,1.076Z" transform="translate(-47.802 -151.6)" fill="#dddde9"/>
          <path id="Caminho_3765" data-name="Caminho 3765" d="M52.034,170.6,46.1,179.276l6.316,4.06,6.281-8.364Z" transform="translate(-41.85 -164.006)" fill="#242143"/>
          <path id="Caminho_3766" data-name="Caminho 3766" d="M60.859,176.019a3.885,3.885,0,0,0,0-2.429l.59-.382.8,1.492s.659-1.492.416-1.77l-.347-.347s.937-.208,1.18.139l.59.069.416.451.59.139.625.972-1.249,2.256-2.256,2.117L60.2,176.609Z" transform="translate(-51.057 -165.261)" fill="#ffdfc4"/>
          <path id="Caminho_3767" data-name="Caminho 3767" d="M41.574,155.3s-11.07,12.7-6.7,17.733S45.7,167.585,45.7,167.585l-2.568-2.707s-4.164,4.824-4.477,4.164c-.347-.694,2.637-6.385,2.637-6.385Z" transform="translate(-33.854 -154.016)" fill="#d0d0dd"/>
        </g>
        <g id="Grupo_7210" data-name="Grupo 7210" transform="translate(7.396)">
          <g id="Grupo_7208" data-name="Grupo 7208">
            <g id="Grupo_7196" data-name="Grupo 7196" transform="translate(4.454 13.083)">
              <path id="Caminho_3768" data-name="Caminho 3768" d="M71.366,141.8v3.4s-.8,1.145-1.735,1.145S68,144.819,68,144.819l.208-1.77.139-1.249Z" transform="translate(-68 -141.8)" fill="#ffdfc4"/>
              <path id="Caminho_3769" data-name="Caminho 3769" d="M71.758,141.8v1.492a3.675,3.675,0,0,1-3.158-.243l.139-1.249Z" transform="translate(-68.392 -141.8)" fill="#ffc1a0"/>
            </g>
            <g id="Grupo_7207" data-name="Grupo 7207">
              <g id="Grupo_7199" data-name="Grupo 7199" transform="translate(1.294 4.026)">
                <path id="Caminho_3770" data-name="Caminho 3770" d="M65.7,115.7s5.171,6.871,2.048,9.3c-2.568,1.978-4.789.451-5.344-.764a50.79,50.79,0,0,1-1.8-7.01Z" transform="translate(-60.008 -115.7)" fill="#ffdfc4"/>
                <path id="Caminho_3771" data-name="Caminho 3771" d="M78.8,122.476s.972-1.7,2.013-.174c1.076,1.492-.763,2.88-.763,2.88Z" transform="translate(-71.892 -119.596)" fill="#ffdfc4"/>
                <path id="Caminho_3772" data-name="Caminho 3772" d="M60.7,127.984s-1.735-.9-1.8.937,2.186,1.978,2.186,1.978Z" transform="translate(-58.895 -123.576)" fill="#ffdfc4"/>
                <g id="Grupo_7197" data-name="Grupo 7197" transform="translate(8.053 2.568)">
                  <path id="Caminho_3773" data-name="Caminho 3773" d="M82.1,123.135s.1.069.243.174a1.559,1.559,0,0,1,.382.521,1.617,1.617,0,0,1,.1.659,2.546,2.546,0,0,1-.069.278.121.121,0,0,0,.035-.069.565.565,0,0,0,.1-.208.956.956,0,0,0,0-.763,1.027,1.027,0,0,0-.521-.555,1.364,1.364,0,0,0-.208-.069Z" transform="translate(-82.1 -123.1)" fill="#fac1a1"/>
                </g>
                <g id="Grupo_7198" data-name="Grupo 7198" transform="translate(0.5 4.893)">
                  <path id="Caminho_3774" data-name="Caminho 3774" d="M60.7,129.8a.838.838,0,0,0-.1.278,2,2,0,0,0-.035.659,1.336,1.336,0,0,0,.278.59.96.96,0,0,0,.208.208.107.107,0,0,1-.069-.035c-.035-.035-.1-.035-.208-.1a.956.956,0,0,1-.416-.625.926.926,0,0,1,.139-.729c.069-.069.1-.139.139-.173C60.67,129.8,60.7,129.8,60.7,129.8Z" transform="translate(-60.335 -129.8)" fill="#fac1a1"/>
                </g>
                <path id="Caminho_3775" data-name="Caminho 3775" d="M78.071,128.361a.56.56,0,1,0,.382-.694A.578.578,0,0,0,78.071,128.361Z" transform="translate(-71.407 -123.503)" fill="#ffc1a0"/>
                <path id="Caminho_3776" data-name="Caminho 3776" d="M65.143,132.161a.56.56,0,1,0,.382-.694A.524.524,0,0,0,65.143,132.161Z" transform="translate(-62.955 -125.984)" fill="#ffc1a0"/>
              </g>
              <g id="Grupo_7200" data-name="Grupo 7200" transform="translate(5.911 7.6)">
                <path id="Caminho_3777" data-name="Caminho 3777" d="M72.686,128.95a1.027,1.027,0,0,0,.139.1.265.265,0,0,0,.174.069.38.38,0,0,0,.278,0,.54.54,0,0,0,.278-.208.568.568,0,0,0,.069-.416,3.888,3.888,0,0,0-.208-.8,4.816,4.816,0,0,0-.763-1.284l-.312-.312a.6.6,0,0,0-.139-.1.38.38,0,0,1,.069.139,1.881,1.881,0,0,1,.208.382,11.881,11.881,0,0,1,.59,1.284c.1.243.174.521.243.729a.361.361,0,0,1-.139.416.75.75,0,0,1-.382.035A.269.269,0,0,0,72.686,128.95Z" transform="translate(-72.2 -126)" fill="#ffc1a0"/>
              </g>
              <g id="Grupo_7206" data-name="Grupo 7206">
                <path id="Caminho_3778" data-name="Caminho 3778" d="M55.178,108.4c.174-.59,1.7-1.978,5.136-2.325,1.631-.139,1.353-1.978,1.353-1.978s2.117,1.735,1.631,3.332a1.276,1.276,0,0,1,.486.625,13.732,13.732,0,0,1,.451,2.152s-.59.035-.1,1.145l-1.77-2.742a8.844,8.844,0,0,1-5.206,1.492l.694,2.95s-.451-.868-1.041-.555C56.809,112.533,55,108.958,55.178,108.4Z" transform="translate(-55.166 -104.1)" fill="#242143"/>
                <g id="Grupo_7205" data-name="Grupo 7205" transform="translate(0.697 1.943)">
                  <g id="Grupo_7201" data-name="Grupo 7201" transform="translate(1.813)">
                    <path id="Caminho_3779" data-name="Caminho 3779" d="M62.4,112.65s.1.035.243.069a2.941,2.941,0,0,0,.694.1,4.159,4.159,0,0,0,2.256-.486,3.577,3.577,0,0,0,1.562-1.7,1.348,1.348,0,0,0,.1-.694.26.26,0,0,0-.035-.174v.174a2.313,2.313,0,0,1-.208.659,3.673,3.673,0,0,1-1.562,1.527,4.676,4.676,0,0,1-2.117.59,4,4,0,0,1-.694-.035A.6.6,0,0,1,62.4,112.65Z" transform="translate(-62.4 -109.7)" fill="#3a3750"/>
                  </g>
                  <g id="Grupo_7202" data-name="Grupo 7202" transform="translate(1.605 0.521)">
                    <path id="Caminho_3780" data-name="Caminho 3780" d="M61.8,113.074a6.188,6.188,0,0,0,.694.035,4.479,4.479,0,0,0,1.666-.243,2.911,2.911,0,0,0,1.284-1.076c.243-.347.382-.59.382-.59a5.089,5.089,0,0,1-.486.486,3.9,3.9,0,0,1-2.846,1.284C62.078,113.039,61.8,113.074,61.8,113.074Z" transform="translate(-61.8 -111.2)" fill="#3a3750"/>
                  </g>
                  <g id="Grupo_7203" data-name="Grupo 7203" transform="translate(0 1.423)">
                    <path id="Caminho_3781" data-name="Caminho 3781" d="M57.253,115.743v-.1c0-.069.035-.139.035-.243a1.849,1.849,0,0,1,.312-.729,2.473,2.473,0,0,1,.521-.625.92.92,0,0,1,.208-.174l.069-.069a.269.269,0,0,0-.1.035.461.461,0,0,0-.243.1,1.484,1.484,0,0,0-.659.59,1.447,1.447,0,0,0-.208.868c0,.1.035.208.035.278A.107.107,0,0,1,57.253,115.743Z" transform="translate(-57.175 -113.8)" fill="#3a3750"/>
                  </g>
                  <g id="Grupo_7204" data-name="Grupo 7204" transform="translate(0.425 2.984)">
                    <path id="Caminho_3782" data-name="Caminho 3782" d="M58.712,119.341a.421.421,0,0,1-.035-.174,1.753,1.753,0,0,1,0-.694.421.421,0,0,1,.035-.174.6.6,0,0,0-.139.1.586.586,0,0,0,0,.833C58.643,119.341,58.712,119.341,58.712,119.341Z" transform="translate(-58.4 -118.3)" fill="#3a3750"/>
                  </g>
                </g>
              </g>
            </g>
          </g>
          <g id="Grupo_7209" data-name="Grupo 7209" transform="translate(3.309 16.102)">
            <path id="Caminho_3783" data-name="Caminho 3783" d="M65.845,150.5l-1.145.382,1.353,2.984,1.423-1.874Z" transform="translate(-64.7 -150.5)" fill="#fff"/>
            <path id="Caminho_3784" data-name="Caminho 3784" d="M72.7,151.992l1.388,1.874,1.423-2.95-1.076-.416Z" transform="translate(-69.924 -150.5)" fill="#fff"/>
          </g>
        </g>
      </g>
    </g>
    <g id="Grupo_7213" data-name="Grupo 7213" transform="translate(0 39.215)">
      <rect id="Retângulo_4038" data-name="Retângulo 4038" width="5.83" height="5.83" fill="#ff7292"/>
      <rect id="Retângulo_4039" data-name="Retângulo 4039" width="5.83" height="5.83" transform="translate(4.511 7.808)" fill="#ffcb45"/>
    </g>
    <g id="Grupo_7250" data-name="Grupo 7250" transform="translate(79.737 12.412)">
      <g id="Grupo_7219" data-name="Grupo 7219" transform="translate(5.703 70.564)">
        <path id="Caminho_3785" data-name="Caminho 3785" d="M323.242,346.333c-4.338-.382-11.07-.833-18.6-.833-6.871,0-13.014.382-17.352.729-4.338-.347-10.515-.729-17.352-.729a204.306,204.306,0,0,0-23.737,1.388,204.3,204.3,0,0,0,23.737,1.388c6.871,0,13.014-.382,17.352-.729,4.338.347,10.515.729,17.352.729,7.531,0,14.228-.451,18.6-.833Z" transform="translate(-246.2 -308.576)" fill="#d3d3d3"/>
        <g id="Grupo_7214" data-name="Grupo 7214" transform="translate(8.433 20.093)">
          <rect id="Retângulo_4040" data-name="Retângulo 4040" width="28.457" height="17.907" fill="#ffcb45"/>
          <path id="Caminho_3786" data-name="Caminho 3786" d="M270.5,297l28.457,17.907H270.5Z" transform="translate(-270.5 -297)" fill="#ffa127"/>
        </g>
        <g id="Grupo_7218" data-name="Grupo 7218" transform="translate(45.462)">
          <g id="Grupo_7215" data-name="Grupo 7215" transform="translate(0 20.093)">
            <rect id="Retângulo_4041" data-name="Retângulo 4041" width="28.457" height="17.907" fill="#ffcb45"/>
            <path id="Caminho_3787" data-name="Caminho 3787" d="M377.2,297l28.457,17.907H377.2Z" transform="translate(-377.2 -297)" fill="#ffa127"/>
          </g>
          <g id="Grupo_7216" data-name="Grupo 7216" transform="translate(6.767 7.392)">
            <rect id="Retângulo_4042" data-name="Retângulo 4042" width="20.163" height="12.701" fill="#ffcb45"/>
            <path id="Caminho_3788" data-name="Caminho 3788" d="M396.7,260.4l20.2,12.7H396.7Z" transform="translate(-396.7 -260.4)" fill="#ffa127"/>
          </g>
          <g id="Grupo_7217" data-name="Grupo 7217" transform="translate(10.758)">
            <rect id="Retângulo_4043" data-name="Retângulo 4043" width="11.764" height="7.392" fill="#ffcb45"/>
            <path id="Caminho_3789" data-name="Caminho 3789" d="M408.2,239.1l11.764,7.392H408.2Z" transform="translate(-408.2 -239.1)" fill="#ffa127"/>
          </g>
        </g>
      </g>
      <g id="Grupo_7249" data-name="Grupo 7249">
        <g id="Grupo_7231" data-name="Grupo 7231" transform="translate(13.13 44.779)">
          <g id="Grupo_7230" data-name="Grupo 7230" transform="translate(0 38.174)">
            <g id="Grupo_7224" data-name="Grupo 7224" transform="translate(19.087)">
              <path id="Caminho_3790" data-name="Caminho 3790" d="M322.6,282.5l2.95.035.069-.9c1.111.833,5,.972,8.155.937v-1.111a24.127,24.127,0,0,1-7.669-3.366h0a11.265,11.265,0,0,1-.521-3.262l-2.915-.035.521,3.991c-.035.035-.035.069-.069.1A12.98,12.98,0,0,0,322.6,282.5Z" transform="translate(-322.6 -274.8)" fill="#242143"/>
              <path id="Caminho_3791" data-name="Caminho 3791" d="M323.255,278.756c-.035.035-.035.069-.069.1a7.637,7.637,0,0,0,2.95-.764,11.266,11.266,0,0,1-.521-3.262L322.7,274.8Z" transform="translate(-322.665 -274.8)" fill="#ffdfc4"/>
              <g id="Grupo_7223" data-name="Grupo 7223" transform="translate(3.439 3.431)">
                <g id="Grupo_7220" data-name="Grupo 7220" transform="translate(1.434 0.797)">
                  <rect id="Retângulo_4044" data-name="Retângulo 4044" width="1.562" height="0.521" transform="translate(0 1.284) rotate(-55.326)" fill="#fff"/>
                </g>
                <g id="Grupo_7221" data-name="Grupo 7221" transform="translate(0.734 0.384)">
                  <rect id="Retângulo_4045" data-name="Retângulo 4045" width="1.562" height="0.521" transform="translate(0 1.284) rotate(-55.331)" fill="#fff"/>
                </g>
                <g id="Grupo_7222" data-name="Grupo 7222" transform="translate(0 0)">
                  <rect id="Retângulo_4046" data-name="Retângulo 4046" width="1.562" height="0.521" transform="translate(0 1.284) rotate(-55.326)" fill="#fff"/>
                </g>
              </g>
            </g>
            <g id="Grupo_7229" data-name="Grupo 7229">
              <path id="Caminho_3792" data-name="Caminho 3792" d="M278.775,282.5l-2.95.035-.069-.9c-1.111.833-5,.972-8.155.937v-1.111a24.128,24.128,0,0,0,7.669-3.366h0a11.266,11.266,0,0,0,.521-3.262l2.915-.035-.521,3.991c.035.035.035.069.069.1A12.98,12.98,0,0,1,278.775,282.5Z" transform="translate(-267.6 -274.8)" fill="#242143"/>
              <path id="Caminho_3793" data-name="Caminho 3793" d="M292.58,278.756c.035.035.035.069.069.1a7.637,7.637,0,0,1-2.95-.764,11.263,11.263,0,0,0,.521-3.262l2.915-.035Z" transform="translate(-282.031 -274.8)" fill="#ffdfc4"/>
              <g id="Grupo_7228" data-name="Grupo 7228" transform="translate(4.978 3.373)">
                <g id="Grupo_7225" data-name="Grupo 7225" transform="translate(0 0.837)">
                  <rect id="Retângulo_4047" data-name="Retângulo 4047" width="0.521" height="1.562" transform="translate(0 0.296) rotate(-34.674)" fill="#fff"/>
                </g>
                <g id="Grupo_7226" data-name="Grupo 7226" transform="translate(0.692 0.415)">
                  <rect id="Retângulo_4048" data-name="Retângulo 4048" width="0.521" height="1.562" transform="translate(0 0.296) rotate(-34.674)" fill="#fff"/>
                </g>
                <g id="Grupo_7227" data-name="Grupo 7227" transform="translate(1.449 0)">
                  <rect id="Retângulo_4049" data-name="Retângulo 4049" width="0.521" height="1.562" transform="translate(0 0.296) rotate(-34.674)" fill="#fff"/>
                </g>
              </g>
            </g>
          </g>
          <path id="Caminho_3794" data-name="Caminho 3794" d="M303.875,164.8s2.152,36.335,1.666,39.007h-5.448s-1.249-30.227-2.672-30.886-2.846,30.886-2.846,30.886H289.3l2.846-38.451Z" transform="translate(-281.769 -164.8)" fill="#242143"/>
        </g>
        <g id="Grupo_7248" data-name="Grupo 7248">
          <g id="Grupo_7233" data-name="Grupo 7233">
            <path id="Caminho_3795" data-name="Caminho 3795" d="M278.05,41.712l-46.711,7.947a.661.661,0,0,1-.763-.555l-.8-4.616a.661.661,0,0,1,.555-.763l46.711-7.947a.661.661,0,0,1,.763.555l.8,4.616A.661.661,0,0,1,278.05,41.712Z" transform="translate(-229.766 -35.766)" fill="#fff"/>
            <g id="Grupo_7232" data-name="Grupo 7232" transform="translate(39.018 0)">
              <path id="Caminho_3796" data-name="Caminho 3796" d="M351.466,41.712l-8.259,1.423L342.2,37.2l8.259-1.423a.661.661,0,0,1,.763.555l.8,4.616A.661.661,0,0,1,351.466,41.712Z" transform="translate(-342.2 -35.766)" fill="#ffa127"/>
              <path id="Caminho_3797" data-name="Caminho 3797" d="M355.2,43.18l-1.423-1.006a1.81,1.81,0,0,0-.625-2.082,1.767,1.767,0,1,0,.139,2.776l1.423,1.006a.215.215,0,0,0,.278-.035l.278-.416A.23.23,0,0,0,355.2,43.18Zm-2.846-.347a1.287,1.287,0,1,1,1.041-1.492A1.29,1.29,0,0,1,352.358,42.833Z" transform="translate(-347.534 -38.379)" fill="#fff"/>
            </g>
          </g>
          <g id="Grupo_7247" data-name="Grupo 7247" transform="translate(13.401 3.413)">
            <path id="Caminho_3798" data-name="Caminho 3798" d="M295.5,135.739s.521-21.03,1.423-21.933a3.394,3.394,0,0,1,2.152-.9l3.054.174,3.054-.278s1.666.9,1.909,1.8c.243.937,1.458,21.377,1.458,21.377A19.919,19.919,0,0,1,295.5,135.739Z" transform="translate(-286.089 -89.479)" fill="#00de91"/>
            <g id="Grupo_7234" data-name="Grupo 7234" transform="translate(13.992 18.809)">
              <path id="Caminho_3799" data-name="Caminho 3799" d="M312.83,103.9a7.423,7.423,0,0,1-4.13.035,4.084,4.084,0,0,0,.451-1.7,6.427,6.427,0,0,0,.035-.8c0-.8-.069-1.458-.069-1.458L312.1,99.8l.069.416.347,1.943Z" transform="translate(-308.7 -99.8)" fill="#ffdfc4"/>
              <path id="Caminho_3800" data-name="Caminho 3800" d="M313.3,103.009a15.509,15.509,0,0,1-3.4.069,6.415,6.415,0,0,0,.035-.8,8.162,8.162,0,0,0,3.019-1.18Z" transform="translate(-309.484 -100.649)" fill="#ffc1a0"/>
            </g>
            <g id="Grupo_7244" data-name="Grupo 7244" transform="translate(11.03 7.045)">
              <path id="Caminho_3801" data-name="Caminho 3801" d="M302.848,76s-2.325,8.086.833,9.578c3.3,1.562,5.587-2.88,5.587-2.88l.763-5.691Z" transform="translate(-301.379 -72.495)" fill="#ffdfc4"/>
              <g id="Grupo_7235" data-name="Grupo 7235" transform="translate(4.836 9.613)">
                <path id="Caminho_3802" data-name="Caminho 3802" d="M314.586,93.6s.035.1.069.243a1.174,1.174,0,0,1-.035.59,1.308,1.308,0,0,1-.312.486.6.6,0,0,1-.208.139h.069a1.366,1.366,0,0,0,.208-.069.708.708,0,0,0,.451-.486,1,1,0,0,0-.069-.659.757.757,0,0,0-.139-.174C314.621,93.6,314.586,93.6,314.586,93.6Z" transform="translate(-314.1 -93.6)" fill="#fac1a1"/>
              </g>
              <path id="Caminho_3803" data-name="Caminho 3803" d="M304.243,91.961a.56.56,0,1,0,.382-.694A.524.524,0,0,0,304.243,91.961Z" transform="translate(-302.808 -82.452)" fill="#ffc1a0"/>
              <g id="Grupo_7243" data-name="Grupo 7243">
                <path id="Caminho_3804" data-name="Caminho 3804" d="M309.825,76.311a6.864,6.864,0,0,0,2.013-4.164,4.014,4.014,0,0,0-.347-2.707A1.987,1.987,0,0,0,309.1,68.5,1.467,1.467,0,0,0,308.4,67.5a4.078,4.078,0,0,0-2.95-.729c-.8.1-1.631.451-2.325,0-.278-.174-.486-.625-.208-.868a1.428,1.428,0,0,0-.59,1.943,1.891,1.891,0,0,1-.659-.278c-.174-.139-.382-.382-.278-.59a2.582,2.582,0,0,0-1.18,1.7,2.472,2.472,0,0,0,.486,2.013,3.309,3.309,0,0,0,1.874,1.145,9.449,9.449,0,0,0,2.221.174,22.3,22.3,0,0,1,.069,4.026,2.205,2.205,0,0,1,.486-.763.68.68,0,0,1,.833-.035.821.821,0,0,1,.174.694,2.117,2.117,0,0,1-.417,1.18,1.332,1.332,0,0,1-1.076.555c-.347,2.048,1.77,2.811,1.978,2.915a1.7,1.7,0,0,1,.035-.833,1.57,1.57,0,0,0,.868.625,1.207,1.207,0,0,1,.208-1.215A11.237,11.237,0,0,1,309.825,76.311Z" transform="translate(-300.166 -65.9)" fill="#242143"/>
                <g id="Grupo_7242" data-name="Grupo 7242" transform="translate(0.498 1.697)">
                  <g id="Grupo_7236" data-name="Grupo 7236" transform="translate(0 1.044)">
                    <path id="Caminho_3805" data-name="Caminho 3805" d="M306.806,76.229s-.069.035-.243.1a2.2,2.2,0,0,1-.694.174,4.752,4.752,0,0,1-2.325-.243,3.335,3.335,0,0,1-1.145-.625,2.13,2.13,0,0,1-.625-.9,4,4,0,0,1-.174-.694V73.8a2.07,2.07,0,0,0,.1.243c.069.139.173.347.312.59a2.461,2.461,0,0,0,.694.625,5.829,5.829,0,0,0,1.041.486,8.567,8.567,0,0,0,2.117.486,5.4,5.4,0,0,0,.694.035A1.451,1.451,0,0,1,306.806,76.229Z" transform="translate(-301.6 -73.8)" fill="#3a3750"/>
                  </g>
                  <g id="Grupo_7237" data-name="Grupo 7237" transform="translate(7.357 2.602)">
                    <path id="Caminho_3806" data-name="Caminho 3806" d="M322.869,81.833v.139l-.035-.035a3.454,3.454,0,0,0,.382-.625,4.347,4.347,0,0,0,.416-1.076c.312-1.041.173-2.013.035-1.943a.35.35,0,0,1,.173.069,1.431,1.431,0,0,1,.278.416,2.4,2.4,0,0,1,.1,1.6,2.6,2.6,0,0,1-.694,1.18,1.7,1.7,0,0,1-.659.416l-.069.035.035-.069Z" transform="translate(-322.8 -78.29)" fill="#3a3750"/>
                  </g>
                  <g id="Grupo_7238" data-name="Grupo 7238" transform="translate(7.912 2.189)">
                    <path id="Caminho_3807" data-name="Caminho 3807" d="M324.4,81.854a.77.77,0,0,0,.173-.139,4.934,4.934,0,0,0,.382-.416,4.3,4.3,0,0,0,.8-1.6,7.2,7.2,0,0,0,.208-1.8,2.815,2.815,0,0,0-.035-.59V77.1l.1.208c.069.139.139.312.243.555a3.48,3.48,0,0,1,.069,2.013,2.848,2.848,0,0,1-1.18,1.666,2.046,2.046,0,0,1-.555.278A.971.971,0,0,1,324.4,81.854Z" transform="translate(-324.4 -77.1)" fill="#3a3750"/>
                  </g>
                  <g id="Grupo_7239" data-name="Grupo 7239" transform="translate(1.284 1.079)">
                    <path id="Caminho_3808" data-name="Caminho 3808" d="M310.783,74.837a1.588,1.588,0,0,0-.208.139,3.385,3.385,0,0,1-.59.243,6.428,6.428,0,0,1-2.117.174,4.46,4.46,0,0,1-1.18-.243,2.621,2.621,0,0,1-.868-.521,2.236,2.236,0,0,1-.416-.521l-.1-.208.173.174a1.954,1.954,0,0,0,.486.347,4.63,4.63,0,0,0,1.909.382c.8.069,1.492.139,2.013.139.243,0,.451-.035.625-.035A2.549,2.549,0,0,0,310.783,74.837Z" transform="translate(-305.3 -73.9)" fill="#3a3750"/>
                  </g>
                  <g id="Grupo_7240" data-name="Grupo 7240" transform="translate(3.366 0.801)">
                    <path id="Caminho_3809" data-name="Caminho 3809" d="M314.493,73.412a1.6,1.6,0,0,1-.451.278,2.466,2.466,0,0,1-1.215.208,2.717,2.717,0,0,1-1.145-.451c-.243-.208-.382-.347-.382-.347s.208.035.486.069.694.1,1.11.139.8.069,1.111.1Z" transform="translate(-311.3 -73.1)" fill="#3a3750"/>
                  </g>
                  <g id="Grupo_7241" data-name="Grupo 7241" transform="translate(5.31)">
                    <path id="Caminho_3810" data-name="Caminho 3810" d="M318.253,71.453h-.243a2.723,2.723,0,0,1-.486-.069,2.2,2.2,0,0,1-.416-.243L316.9,71a.77.77,0,0,1,.243-.139.8.8,0,0,1,1.041.347C318.219,71.349,318.253,71.453,318.253,71.453Z" transform="translate(-316.9 -70.791)" fill="#3a3750"/>
                  </g>
                </g>
              </g>
            </g>
            <path id="Caminho_3811" data-name="Caminho 3811" d="M306.806,111.6l-1.006.521a4.466,4.466,0,0,0,3.3.9,4.368,4.368,0,0,0,2.846-1.006l-.972-.416A10,10,0,0,1,306.806,111.6Z" transform="translate(-292.815 -88.696)" fill="#fff"/>
            <g id="Grupo_7245" data-name="Grupo 7245" transform="translate(0 3.574)">
              <path id="Caminho_3812" data-name="Caminho 3812" d="M275.579,58.4l-.486-.833-.521-1.458-1.145-.208-1.006.868s-1.423.278-1.666.868a14.148,14.148,0,0,0-.035,3.193l.729.694-.069.694-1.18,8.606h3.054l.9-8.364.139-.625,1.492-1.215Z" transform="translate(-269.569 -55.9)" fill="#ffdfc4"/>
              <path id="Caminho_3813" data-name="Caminho 3813" d="M273.212,90.808c-.694-1.076-.174-2.742.243-5.553L268.84,84.7c-.312,2.6-.868,5.553.035,8.086.972,2.742,6.316,6.49,11.14,8.225l1.319-6.42C277.134,94.729,274.5,92.821,273.212,90.808Z" transform="translate(-268.382 -74.705)" fill="#00de91"/>
            </g>
            <g id="Grupo_7246" data-name="Grupo 7246" transform="translate(19.128)">
              <path id="Caminho_3814" data-name="Caminho 3814" d="M341.4,48.376l.382-.9.312-1.527L343.2,45.6l1.076.729s1.423.1,1.735.659a14.194,14.194,0,0,1,.451,3.158l-.659.763.174.659,2.221,8.4-3.019.382-1.909-8.19L343.1,51.6,341.469,50.6Z" transform="translate(-335.188 -45.6)" fill="#ffdfc4"/>
              <path id="Caminho_3815" data-name="Caminho 3815" d="M332.523,79.694c.555-1.145-.139-2.742-.9-5.483l4.511-1.111c.625,2.568,1.527,5.414.937,8.016-.625,2.846-7.322,9.058-11.9,11.383L323.5,86.877C327.6,86.044,331.482,81.88,332.523,79.694Z" transform="translate(-323.5 -63.557)" fill="#00de91"/>
            </g>
          </g>
        </g>
      </g>
    </g>
    <g id="Grupo_7268" data-name="Grupo 7268" transform="translate(42.616 34.56)">
      <path id="Caminho_3816" data-name="Caminho 3816" d="M170.274,341.988a203.653,203.653,0,0,1-47.474,0,204.3,204.3,0,0,1,23.737-1.388A214.773,214.773,0,0,1,170.274,341.988Z" transform="translate(-122.8 -256.96)" fill="#d3d3d3"/>
      <g id="Grupo_7267" data-name="Grupo 7267" transform="translate(9.643)">
        <path id="Caminho_3817" data-name="Caminho 3817" d="M192.5,164.828l3.54-5.275,3.887-1.353.1.659-2.29,1.492,2.533.694,2.846-2.221.486.486-2.985,2.95-3.887-.312-1.77,3.505Z" transform="translate(-177.954 -137.859)" fill="#ffc1a0"/>
        <path id="Caminho_3818" data-name="Caminho 3818" d="M154.928,152.9s-6.143,12.424-3.817,16,9.162,1.249,9.162,1.249Z" transform="translate(-150.585 -134.398)" fill="#ec4c77"/>
        <g id="Grupo_7253" data-name="Grupo 7253" transform="translate(4.482 74.617)">
          <g id="Grupo_7251" data-name="Grupo 7251" transform="translate(7.392)">
            <path id="Caminho_3819" data-name="Caminho 3819" d="M191.949,323.831v1.18H184.8l.382-3.505.139-1.353.59-5.553h2.742s-.173,3.123-.1,5.379a11.632,11.632,0,0,0,.139,1.909.121.121,0,0,0,.035.069C189.069,323.276,191.949,323.831,191.949,323.831Z" transform="translate(-184.8 -314.6)" fill="#ffdfc4"/>
            <path id="Caminho_3820" data-name="Caminho 3820" d="M191.949,333.952v1.18H184.8l.382-3.505.139-1.353a.493.493,0,0,0,.208.069,4.9,4.9,0,0,0,2.984-.243,11.633,11.633,0,0,0,.139,1.909.121.121,0,0,0,.035.069C189.069,333.4,191.949,333.952,191.949,333.952Z" transform="translate(-184.8 -324.721)" fill="#fff"/>
            <path id="Caminho_3821" data-name="Caminho 3821" d="M191.949,336.825v1.18H184.8l.382-3.505a.121.121,0,0,1,.069.035,3.928,3.928,0,0,0,1.735.555,4.492,4.492,0,0,0,1.666-.208.121.121,0,0,0,.035.069C189.069,336.27,191.949,336.825,191.949,336.825Z" transform="translate(-184.8 -327.594)" fill="#242143"/>
          </g>
          <g id="Grupo_7252" data-name="Grupo 7252">
            <path id="Caminho_3822" data-name="Caminho 3822" d="M170.649,323.831v1.18H163.5l.382-3.505.139-1.353.59-5.553h2.742s-.174,3.123-.1,5.379a11.632,11.632,0,0,0,.139,1.909.121.121,0,0,0,.035.069C167.769,323.276,170.649,323.831,170.649,323.831Z" transform="translate(-163.5 -314.6)" fill="#ffdfc4"/>
            <path id="Caminho_3823" data-name="Caminho 3823" d="M170.649,333.952v1.18H163.5l.382-3.505.139-1.353a.493.493,0,0,0,.208.069,4.9,4.9,0,0,0,2.984-.243,11.631,11.631,0,0,0,.139,1.909.121.121,0,0,0,.035.069C167.769,333.4,170.649,333.952,170.649,333.952Z" transform="translate(-163.5 -324.721)" fill="#fff"/>
            <path id="Caminho_3824" data-name="Caminho 3824" d="M170.649,336.825v1.18H163.5l.382-3.505a.121.121,0,0,1,.069.035,3.928,3.928,0,0,0,1.735.555,4.493,4.493,0,0,0,1.666-.208.121.121,0,0,0,.035.069C167.769,336.27,170.649,336.825,170.649,336.825Z" transform="translate(-163.5 -327.594)" fill="#242143"/>
          </g>
        </g>
        <g id="Grupo_7258" data-name="Grupo 7258" transform="translate(2.677 4.204)">
          <g id="Grupo_7257" data-name="Grupo 7257">
            <g id="Grupo_7256" data-name="Grupo 7256">
              <path id="Caminho_3825" data-name="Caminho 3825" d="M170,166.554s1.18-18.011.139-18.809a3.022,3.022,0,0,0-2.672-.416l-3.054.174-1.18-.278s-2.5.416-3.332,1.943c-.451.833-1.6,17.629-1.6,17.629A15.6,15.6,0,0,0,170,166.554Z" transform="translate(-158.3 -134.87)" fill="#ff7292"/>
              <g id="Grupo_7254" data-name="Grupo 7254" transform="translate(5.934 7.843)">
                <path id="Caminho_3826" data-name="Caminho 3826" d="M175.4,138.4a7.423,7.423,0,0,0,4.13.035,4.084,4.084,0,0,1-.451-1.7,6.413,6.413,0,0,1-.035-.8c0-.8.069-1.458.069-1.458l-2.984-.174-.069.416-.347,1.943Z" transform="translate(-175.4 -134.3)" fill="#ffdfc4"/>
                <path id="Caminho_3827" data-name="Caminho 3827" d="M176.3,137.609a15.51,15.51,0,0,0,3.4.069,6.418,6.418,0,0,1-.035-.8,8.162,8.162,0,0,1-3.019-1.18Z" transform="translate(-175.988 -135.214)" fill="#ffc1a0"/>
              </g>
              <g id="Grupo_7255" data-name="Grupo 7255" transform="translate(5.344)">
                <path id="Caminho_3828" data-name="Caminho 3828" d="M181.682,112.6s.069,8.433-3.366,9.023c-3.609.625-4.616-4.269-4.616-4.269l.8-5.657Z" transform="translate(-173.7 -111.7)" fill="#ffdfc4"/>
                <path id="Caminho_3829" data-name="Caminho 3829" d="M190.259,129.385a.554.554,0,1,1-.174-.763A.534.534,0,0,1,190.259,129.385Z" transform="translate(-183.839 -122.688)" fill="#ffc1a0"/>
              </g>
              <path id="Caminho_3830" data-name="Caminho 3830" d="M177.736,146.2l1.006.521a4.466,4.466,0,0,1-3.3.9,4.368,4.368,0,0,1-2.846-1.006l.972-.416A10.621,10.621,0,0,0,177.736,146.2Z" transform="translate(-167.637 -134.224)" fill="#fff"/>
            </g>
          </g>
        </g>
        <path id="Caminho_3831" data-name="Caminho 3831" d="M157.449,226.39l.451,18.5h3.887c.035-4.3,1.041-19.191,1.041-19.191s-2.5-14.09-.763-14.333c.763-.1,3.089,14.194,3.089,14.194l-.174,19.365h4.3l1.7-19.156L167.513,203l-11.66.243s-1.388,4.893-1.353,6.385C154.6,211.537,157.449,226.39,157.449,226.39Z" transform="translate(-153.14 -167.112)" fill="#242143"/>
        <path id="Caminho_3832" data-name="Caminho 3832" d="M161.7,320.6l.208,2.186,5.067-.278v-1.527Z" transform="translate(-157.843 -243.9)" fill="#ff7292"/>
        <g id="Grupo_7259" data-name="Grupo 7259" transform="translate(20.411 8.958)">
          <path id="Caminho_3833" data-name="Caminho 3833" d="M221.754,139.281H210.927a1.541,1.541,0,0,1-1.527-1.527V126.927a1.541,1.541,0,0,1,1.527-1.527h10.827a1.541,1.541,0,0,1,1.527,1.527v10.827A1.541,1.541,0,0,1,221.754,139.281Z" transform="translate(-209.4 -125.4)" fill="#ffcb45"/>
          <path id="Caminho_3834" data-name="Caminho 3834" d="M222.824,136.73a2.155,2.155,0,1,0-3.019-1.978,2.18,2.18,0,0,0,1.284,1.978A3.945,3.945,0,0,0,218,140.582v.243h7.878v-.243A3.907,3.907,0,0,0,222.824,136.73Z" transform="translate(-215.016 -130.101)" fill="#fff"/>
        </g>
        <path id="Caminho_3835" data-name="Caminho 3835" d="M188.81,319.7l-.243,2.221-5.067-.312v-1.492Z" transform="translate(-172.077 -243.313)" fill="#ff7292"/>
        <g id="Grupo_7260" data-name="Grupo 7260" transform="translate(13.456 16.767)">
          <path id="Caminho_3836" data-name="Caminho 3836" d="M220.8,165.228l3.574-5.275,3.887-1.353.069.659-2.29,1.458,2.568.694,2.846-2.221.451.521-2.95,2.915-3.887-.312-1.77,3.505Z" transform="translate(-209.889 -154.887)" fill="#ffdfc4"/>
          <path id="Caminho_3837" data-name="Caminho 3837" d="M189.86,147.9a5.822,5.822,0,0,1,3.089,3.54c.659,2.533,3.019,10.133,3.54,10.272.521.174,3.852-5.379,3.852-5.379l3.852,2.672s-3.54,8.5-7.739,8.988c-2.776.312-5.206-6.767-6.524-11.66a16.922,16.922,0,0,1-.069-8.433Z" transform="translate(-189.36 -147.9)" fill="#ec4c77"/>
          <path id="Caminho_3838" data-name="Caminho 3838" d="M217.4,172.609l1.18-1.909,4.511,3.332-.555.868Z" transform="translate(-207.669 -162.788)" fill="#fff"/>
        </g>
        <g id="Grupo_7266" data-name="Grupo 7266" transform="translate(1.74)">
          <path id="Caminho_3839" data-name="Caminho 3839" d="M169.828,105.976c.035-.1,0-.382.035-.486a4.11,4.11,0,0,0-3.193,3.332,4.069,4.069,0,0,0,2.117,4.1,18.853,18.853,0,0,1-7.253-.312c-2.36-.659-4.928-2.186-5.934-4.407a1.443,1.443,0,0,0,1.284-.278c1.458-1.423,1.909-3.574,2.637-5.448a4.616,4.616,0,0,1,1.215-1.909,1.92,1.92,0,0,1,2.117-.312,2.937,2.937,0,0,1,2.221-.659,6.381,6.381,0,0,1,5.587,4.234,2.226,2.226,0,0,1,.139,1.249A1.233,1.233,0,0,1,169.828,105.976Z" transform="translate(-155.6 -99.586)" fill="#242143"/>
          <g id="Grupo_7265" data-name="Grupo 7265" transform="translate(2.186 1.454)">
            <g id="Grupo_7261" data-name="Grupo 7261" transform="translate(0 0.425)">
              <path id="Caminho_3840" data-name="Caminho 3840" d="M161.9,112.045h.1a.883.883,0,0,0,.243-.069,1.3,1.3,0,0,0,.659-.59,6.126,6.126,0,0,0,.521-1.319c.173-.521.382-1.076.59-1.666.243-.59.451-1.111.694-1.631a3.915,3.915,0,0,1,.833-1.249,1.937,1.937,0,0,1,.9-.486.862.862,0,0,1,.278-.035h.1a.269.269,0,0,0-.1.035,1.26,1.26,0,0,0-.243.1,1.753,1.753,0,0,0-.694.59,4.4,4.4,0,0,0-.59,1.215c-.174.521-.382,1.076-.59,1.666-.243.59-.486,1.145-.694,1.631a5.651,5.651,0,0,1-.729,1.284,1.477,1.477,0,0,1-.868.521H161.9Z" transform="translate(-161.9 -105)" fill="#3a3750"/>
            </g>
            <g id="Grupo_7262" data-name="Grupo 7262" transform="translate(2.152)">
              <path id="Caminho_3841" data-name="Caminho 3841" d="M176.88,105.1a1.539,1.539,0,0,0-.486-.278,11.972,11.972,0,0,0-1.423-.521,2.836,2.836,0,0,0-2.048.174,5.079,5.079,0,0,0-1.7,1.909,14.93,14.93,0,0,0-.868,2.568,9.6,9.6,0,0,1-.833,2.152,4.2,4.2,0,0,1-.972,1.215,3.556,3.556,0,0,1-.451.347s.139-.139.382-.416a5.638,5.638,0,0,0,.763-1.284,12.917,12.917,0,0,0,.625-2.117,10,10,0,0,1,.833-2.707,6.188,6.188,0,0,1,.868-1.249,4.379,4.379,0,0,1,1.111-.868,2.428,2.428,0,0,1,1.284-.243,3.271,3.271,0,0,1,1.076.243,10.129,10.129,0,0,1,1.388.694c.139.1.278.174.347.243A1.027,1.027,0,0,0,176.88,105.1Z" transform="translate(-168.1 -103.775)" fill="#3a3750"/>
            </g>
            <g id="Grupo_7263" data-name="Grupo 7263" transform="translate(4.477 1.778)">
              <path id="Caminho_3842" data-name="Caminho 3842" d="M181.116,109.421a.43.43,0,0,0-.1-.069,1.612,1.612,0,0,0-.312-.1,2.8,2.8,0,0,0-1.215,0,2.431,2.431,0,0,0-1.562.59,3.931,3.931,0,0,0-.59.833,8.983,8.983,0,0,0-.486,1.006,9.911,9.911,0,0,0-.521,2.117,7.522,7.522,0,0,1-.486,1.8,4.116,4.116,0,0,1-.694,1.076,3.652,3.652,0,0,1-.347.312s.1-.139.278-.382a3.755,3.755,0,0,0,.486-1.111,11.03,11.03,0,0,0,.278-1.8,8.478,8.478,0,0,1,.486-2.29,5.24,5.24,0,0,1,.555-1.076,5.929,5.929,0,0,1,.729-.9,1.667,1.667,0,0,1,1.006-.451,4.111,4.111,0,0,1,.9-.069,3.712,3.712,0,0,1,1.249.208,1.31,1.31,0,0,1,.278.174A.38.38,0,0,0,181.116,109.421Z" transform="translate(-174.8 -108.9)" fill="#3a3750"/>
            </g>
            <g id="Grupo_7264" data-name="Grupo 7264" transform="translate(7.01 3.34)">
              <path id="Caminho_3843" data-name="Caminho 3843" d="M185.917,113.4a.108.108,0,0,0-.069.035.882.882,0,0,0-.243.069,2.6,2.6,0,0,0-.763.382,3.519,3.519,0,0,0-.9.868,4.1,4.1,0,0,0-.659,1.353,8.067,8.067,0,0,0-.347,1.527,6.775,6.775,0,0,1-.278,1.319c-.139.347-.278.625-.382.833-.1.174-.174.278-.174.278a2.286,2.286,0,0,0,.069-.312,7.519,7.519,0,0,0,.173-.868c.069-.347.035-.8.069-1.284a5.066,5.066,0,0,1,.278-1.666,3.765,3.765,0,0,1,.868-1.492,3,3,0,0,1,1.145-.8,2.911,2.911,0,0,1,.9-.208h.243A.108.108,0,0,1,185.917,113.4Z" transform="translate(-182.1 -113.4)" fill="#3a3750"/>
            </g>
          </g>
        </g>
      </g>
    </g>
    <g id="Grupo_7269" data-name="Grupo 7269" transform="translate(125.488 53.79)">
      <rect id="Retângulo_4050" data-name="Retângulo 4050" width="24.292" height="16.727" fill="#444a97"/>
      <rect id="Retângulo_4051" data-name="Retângulo 4051" width="18.323" height="10.203" transform="translate(2.984 3.262)" fill="#00de91"/>
      <rect id="Retângulo_4052" data-name="Retângulo 4052" width="12.25" height="5.518" transform="translate(6.004 5.587)" fill="#eee"/>
    </g>
  </g>
</svg>
