<svg xmlns="http://www.w3.org/2000/svg" xmlns:xlink="http://www.w3.org/1999/xlink" width="124.481" height="124.135" viewBox="0 0 124.481 124.135">
  <defs>
    <linearGradient id="linear-gradient" x1="1.396" y1="1.801" x2="0.518" y2="1.801" gradientUnits="objectBoundingBox">
      <stop offset="0" stop-color="#ffe2c4"/>
      <stop offset="1" stop-color="#ffb870"/>
    </linearGradient>
    <linearGradient id="linear-gradient-2" x1="0.965" y1="0.421" x2="0.023" y2="0.632" gradientUnits="objectBoundingBox">
      <stop offset="0" stop-color="#ffb870"/>
      <stop offset="1" stop-color="#ffe2c4"/>
    </linearGradient>
    <linearGradient id="linear-gradient-3" x1="0.972" y1="0.454" x2="-0.004" y2="0.549" xlink:href="#linear-gradient-2"/>
    <linearGradient id="linear-gradient-4" x1="0" y1="0.5" x2="1" y2="0.5" xlink:href="#linear-gradient-2"/>
    <linearGradient id="linear-gradient-5" x1="0" y1="0.5" x2="1" y2="0.5" xlink:href="#linear-gradient"/>
    <linearGradient id="linear-gradient-7" x1="4.401" y1="1.137" x2="3.523" y2="1.137" xlink:href="#linear-gradient"/>
    <linearGradient id="linear-gradient-8" x1="-4.645" y1="0.454" x2="-5.621" y2="0.549" xlink:href="#linear-gradient-2"/>
  </defs>
  <g id="Grupo_7515" data-name="Grupo 7515" transform="translate(-53.464 -54.012)">
    <path id="Caminho_3900" data-name="Caminho 3900" d="M95.557,234.9,53.464,260.056l26.151,15.126,33.243-13.328-17.164-25.8" transform="translate(0 -123.604)" fill="#d6eaf2" style="mix-blend-mode: multiply;isolation: isolate"/>
    <g id="Grupo_7514" data-name="Grupo 7514" transform="translate(65.476 54.012)">
      <g id="Grupo_7483" data-name="Grupo 7483" transform="translate(0 16.385)">
        <g id="Grupo_7381" data-name="Grupo 7381" transform="translate(7.498 0.197)">
          <g id="Grupo_7378" data-name="Grupo 7378">
            <g id="Grupo_7376" data-name="Grupo 7376" transform="translate(9.786 53.581)">
              <path id="Caminho_3901" data-name="Caminho 3901" d="M180.321,285.493h0v-2.036l-1.462.736-2.568-1.484a3.35,3.35,0,0,0-3.029,0l-25.81,14.9-1.47-.717v2.012h0a1.023,1.023,0,0,0,.621.944l3.408,1.968a3.351,3.351,0,0,0,3.029,0L179.7,286.427A1.028,1.028,0,0,0,180.321,285.493Z" transform="translate(-145.977 -280.199)" fill="#55c3fe"/>
              <path id="Caminho_3902" data-name="Caminho 3902" d="M147.452,325.525l-1.47-.717v2.012h0a1.023,1.023,0,0,0,.621.944l3.408,1.968a3.09,3.09,0,0,0,1.472.359V323.2Z" transform="translate(-145.977 -308.112)" fill="#179ecc"/>
              <path id="Caminho_3903" data-name="Caminho 3903" d="M150.007,295.032a3.347,3.347,0,0,0,3.029,0l26.658-15.391a.923.923,0,0,0,0-1.748l-3.407-1.968a3.348,3.348,0,0,0-3.029,0L146.6,291.317a.923.923,0,0,0,0,1.749Z" transform="translate(-145.972 -275.563)" fill="#97dfff"/>
            </g>
            <g id="Grupo_7377" data-name="Grupo 7377" transform="translate(20.037 50.258)">
              <path id="Caminho_3904" data-name="Caminho 3904" d="M180.2,282.549l-1.858-1.051V271.99l11.988-6.921Z" transform="translate(-178.341 -265.069)" fill="#179ecc"/>
              <path id="Caminho_3905" data-name="Caminho 3905" d="M196.2,277.9l-11.988,6.921v-9.507L196.2,268.39Z" transform="translate(-182.351 -267.338)" fill="#35afe5"/>
            </g>
            <path id="Caminho_3906" data-name="Caminho 3906" d="M168.7,107.468l-1.744-1a.45.45,0,0,0-.119-.068h0a.732.732,0,0,0-.622.1l-50.17,28.966a2.153,2.153,0,0,0-.974,1.687v38.527a.684.684,0,0,0,.285.631.509.509,0,0,0,.082.037l1.735,1,.361-1.877-.518.215,49.2-28.405a2.153,2.153,0,0,0,.975-1.688V108.519Z" transform="translate(-115.07 -106.372)" fill="#35afe5"/>
            <path id="Caminho_3907" data-name="Caminho 3907" d="M167.733,106.473a.45.45,0,0,0-.119-.068h0a.732.732,0,0,0-.622.1l-50.17,28.966a1.925,1.925,0,0,0-.613.612l33.538,21.156,17.245-9.957a2.153,2.153,0,0,0,.975-1.688V108.519l1.512-1.05Z" transform="translate(-115.848 -106.372)" fill="#97dfff"/>
            <path id="Caminho_3908" data-name="Caminho 3908" d="M172.883,148.844a2.154,2.154,0,0,1-.974,1.688L121.738,179.5c-.538.31-.973.059-.973-.562V140.408a2.152,2.152,0,0,1,.973-1.687l50.171-28.966c.537-.311.974-.059.974.562Z" transform="translate(-118.961 -108.592)" fill="#55c3fe"/>
            <path id="Caminho_3909" data-name="Caminho 3909" d="M173.976,149.733l-50.226,29V144.05l50.226-29Z" transform="translate(-121.001 -112.304)" fill="#e6f7ff"/>
            <path id="Caminho_3910" data-name="Caminho 3910" d="M173.485,115.336v34.015L123.75,178.065v.666l50.226-29V115.053Z" transform="translate(-121.001 -112.304)" fill="#fff"/>
          </g>
          <g id="Grupo_7380" data-name="Grupo 7380" transform="translate(17.01 10.123)">
            <g id="Grupo_7379" data-name="Grupo 7379">
              <path id="Caminho_3911" data-name="Caminho 3911" d="M224.309,139.485l-20.021,11.559V149.9l20.021-11.559Z" transform="translate(-193.043 -138.337)" fill="#cbe9f4"/>
              <path id="Caminho_3912" data-name="Caminho 3912" d="M200.047,145.955l-31.266,18.051v-1.147l31.266-18.051Z" transform="translate(-168.781 -142.759)" fill="#cbe9f4"/>
              <path id="Caminho_3913" data-name="Caminho 3913" d="M200.047,152.425l-31.266,18.051V169.33l31.266-18.051Z" transform="translate(-168.781 -147.18)" fill="#cbe9f4"/>
              <path id="Caminho_3914" data-name="Caminho 3914" d="M200.047,158.9l-31.266,18.051V175.8l31.266-18.051Z" transform="translate(-168.781 -151.601)" fill="#cbe9f4"/>
              <path id="Caminho_3915" data-name="Caminho 3915" d="M200.047,165.366l-31.266,18.051V182.27l31.266-18.051Z" transform="translate(-168.781 -156.022)" fill="#cbe9f4"/>
              <path id="Caminho_3916" data-name="Caminho 3916" d="M200.047,171.836l-31.266,18.051V188.74l31.266-18.051Z" transform="translate(-168.781 -160.444)" fill="#cbe9f4"/>
              <path id="Caminho_3917" data-name="Caminho 3917" d="M224.309,184.776l-20.021,11.559v-1.147l20.021-11.559Z" transform="translate(-193.043 -169.286)" fill="#cbe9f4"/>
              <path id="Caminho_3918" data-name="Caminho 3918" d="M200.047,191.246,168.781,209.3v-1.147L200.047,190.1Z" transform="translate(-168.781 -173.707)" fill="#cbe9f4"/>
              <path id="Caminho_3919" data-name="Caminho 3919" d="M200.047,197.716l-31.266,18.051v-1.147l31.266-18.052Z" transform="translate(-168.781 -178.128)" fill="#cbe9f4"/>
              <path id="Caminho_3920" data-name="Caminho 3920" d="M200.047,204.187l-31.266,18.051v-1.147l31.266-18.051Z" transform="translate(-168.781 -182.549)" fill="#cbe9f4"/>
              <path id="Caminho_3921" data-name="Caminho 3921" d="M200.047,210.657l-31.266,18.051v-1.147l31.266-18.051Z" transform="translate(-168.781 -186.97)" fill="#cbe9f4"/>
              <path id="Caminho_3922" data-name="Caminho 3922" d="M183.774,246.794l-14.993,8.656V254.3l14.993-8.656Z" transform="translate(-168.781 -211.663)" fill="#cbe9f4"/>
            </g>
          </g>
        </g>
        <g id="Grupo_7391" data-name="Grupo 7391" transform="translate(18.228 15.101)">
          <g id="Grupo_7386" data-name="Grupo 7386" transform="translate(47.835)">
            <g id="Grupo_7383" data-name="Grupo 7383" transform="translate(6.062)">
              <g id="Grupo_7382" data-name="Grupo 7382">
                <path id="Caminho_3923" data-name="Caminho 3923" d="M351.24,208.585l-26.9-15.531-5.2-36.649,5.2-2.972,26.9,15.531Z" transform="translate(-319.139 -153.434)" fill="#144682"/>
                <path id="Caminho_3924" data-name="Caminho 3924" d="M350.153,211.082l-4.513,2.305-26.132-52.453,4.964-2.837,25.681,14.827Z" transform="translate(-319.391 -156.62)" fill="#fff"/>
                <path id="Caminho_3925" data-name="Caminho 3925" d="M346.04,217.969l-26.9-15.531v-39.62l26.9,15.531Z" transform="translate(-319.139 -159.846)" fill="#2d5ca0"/>
              </g>
            </g>
            <g id="Grupo_7385" data-name="Grupo 7385" transform="translate(0 2.011)">
              <g id="Grupo_7384" data-name="Grupo 7384" transform="translate(0 1.495)">
                <path id="Caminho_3926" data-name="Caminho 3926" d="M332.1,219.658l-26.9-15.531L300,167.478l5.2-2.972,26.9,15.531Z" transform="translate(-299.996 -164.506)" fill="#1890c6"/>
                <path id="Caminho_3927" data-name="Caminho 3927" d="M331.012,222.154,326.5,224.46l-26.132-52.453,4.964-2.837L331.012,184Z" transform="translate(-300.25 -167.693)" fill="#fff"/>
                <path id="Caminho_3928" data-name="Caminho 3928" d="M326.9,229.041,300,213.51V173.89l26.9,15.531Z" transform="translate(-299.996 -170.918)" fill="#55c3fe"/>
                <path id="Caminho_3929" data-name="Caminho 3929" d="M300,213.51V173.89l26.9,15.531Z" transform="translate(-299.996 -170.918)" fill="#c4dde8" style="mix-blend-mode: multiply;isolation: isolate"/>
              </g>
              <path id="Caminho_3930" data-name="Caminho 3930" d="M316.737,165.945l-2.288-1.293v-4.868l1.144,1.624,1.144-.753Z" transform="translate(-309.872 -159.784)" fill="#ea4266"/>
            </g>
          </g>
          <g id="Grupo_7390" data-name="Grupo 7390" transform="translate(0 30.067)">
            <g id="Grupo_7387" data-name="Grupo 7387" transform="translate(0 10.643)">
              <path id="Caminho_3931" data-name="Caminho 3931" d="M179.689,329.49l-21.4-12.355-9.34-5.046,33.406-18.555,38.006,16.5-33.648,19.456Z" transform="translate(-148.95 -289.877)" fill="#d6eaf2" style="mix-blend-mode: multiply;isolation: isolate"/>
              <path id="Caminho_3932" data-name="Caminho 3932" d="M213.528,333.3l-24.917-14.386v-5.584l33.427-13.714L246.953,314Z" transform="translate(-176.051 -294.033)" fill="#144682"/>
              <path id="Caminho_3933" data-name="Caminho 3933" d="M224.712,293.949l-32.188,14.935v5.079L216.2,327.634l33.426-19.3Z" transform="translate(-178.724 -290.16)" fill="#e5e5e5"/>
              <path id="Caminho_3934" data-name="Caminho 3934" d="M224.712,289.851l-5.337,2.476v15.992H192.524v1.546l23.678,13.67,33.426-19.3Z" transform="translate(-178.724 -287.359)" fill="#f4f4f4"/>
              <path id="Caminho_3935" data-name="Caminho 3935" d="M224.712,286.093l-5.337,2.476v17.182H192.524v.356L216.2,319.777l33.426-19.3Z" transform="translate(-178.724 -284.792)" fill="#fff"/>
              <path id="Caminho_3936" data-name="Caminho 3936" d="M213.528,315.668l-24.917-14.385,33.427-19.3,24.916,14.385Z" transform="translate(-176.051 -281.984)" fill="#2d5ca0"/>
            </g>
            <g id="Grupo_7388" data-name="Grupo 7388" transform="translate(13.883 5.024)">
              <path id="Caminho_3937" data-name="Caminho 3937" d="M216.461,313l-23.674-13.668v-5.305l31.758-13.03,23.673,13.667Z" transform="translate(-192.788 -275.687)" fill="#1890c6"/>
              <path id="Caminho_3938" data-name="Caminho 3938" d="M227.086,275.607,196.5,289.8v4.826L219,307.611l31.757-18.336Z" transform="translate(-195.327 -272.007)" fill="#e5e5e5"/>
              <path id="Caminho_3939" data-name="Caminho 3939" d="M227.086,271.713l-5.07,2.353v15.194H196.5v1.468L219,303.716l31.757-18.336Z" transform="translate(-195.327 -269.346)" fill="#f4f4f4"/>
              <path id="Caminho_3940" data-name="Caminho 3940" d="M227.086,268.143l-5.07,2.353V286.82H196.5v.338L219,300.146l31.757-18.336Z" transform="translate(-195.327 -266.906)" fill="#fff"/>
              <path id="Caminho_3941" data-name="Caminho 3941" d="M216.461,296.242l-23.674-13.667,31.758-18.335,23.673,13.667Z" transform="translate(-192.788 -264.239)" fill="#55c3fe"/>
            </g>
            <g id="Grupo_7389" data-name="Grupo 7389" transform="translate(15.106)">
              <path id="Caminho_3942" data-name="Caminho 3942" d="M219.278,294.981l-22.629-13.065v-5.071l30.357-12.455,22.628,13.064Z" transform="translate(-196.649 -259.319)" fill="#ea4266"/>
              <path id="Caminho_3943" data-name="Caminho 3943" d="M229.434,259.242,200.2,272.805v4.613l21.5,12.415,30.356-17.527Z" transform="translate(-199.077 -255.801)" fill="#e5e5e5"/>
              <path id="Caminho_3944" data-name="Caminho 3944" d="M229.434,255.52l-4.846,2.249v14.523H200.2v1.4l21.5,12.415,30.356-17.527Z" transform="translate(-199.077 -253.257)" fill="#f4f4f4"/>
              <path id="Caminho_3945" data-name="Caminho 3945" d="M229.434,252.107l-4.846,2.249v15.6H200.2v.323l21.5,12.415,30.356-17.526Z" transform="translate(-199.077 -250.926)" fill="#fff"/>
              <path id="Caminho_3946" data-name="Caminho 3946" d="M219.278,278.967,196.649,265.9l30.357-17.526,22.628,13.064Z" transform="translate(-196.649 -248.376)" fill="#fe7386"/>
              <path id="Caminho_3947" data-name="Caminho 3947" d="M196.649,285.043l17.968,10.373,14.991-8.655-17.967-10.374Z" transform="translate(-196.649 -267.517)" fill="#ef92a9" style="mix-blend-mode: multiply;isolation: isolate"/>
              <path id="Caminho_3948" data-name="Caminho 3948" d="M239.442,258.078l16.8-9.7,12.327,7.117Z" transform="translate(-225.89 -248.376)" fill="#ef92a9" style="mix-blend-mode: multiply;isolation: isolate"/>
            </g>
          </g>
        </g>
        <g id="Grupo_7401" data-name="Grupo 7401" transform="translate(71.393)">
          <path id="Caminho_3949" data-name="Caminho 3949" d="M341.464,138.136c-.783-1.142.16-9.062-.966-9.77a3.081,3.081,0,0,0-.019-.577c.268-.058-5.367-6.669-6.494-5.637s-.247,2.781-.247,2.781.067.295-.38.487a1.558,1.558,0,0,0,.718.093c.009.068.017.136.027.208h0a12.022,12.022,0,0,0,.257,1.272c.126.485.232.93.328,1.337-.048.048-.1.092-.144.143-.016,0-.018.02-.018.02-.03.034-.053.069-.082.1-.059.072-.12.143-.176.221-2.013,2.6-1.354,5.653-2.593,6.681a9.925,9.925,0,0,1-2.526,1.574l-1.628.379-2.3-4.381.046,1.359-.046-.061.138,3.52h0c-.584.055-1.042,1.907-.072,2.465.06.035,2.131.182,2.186.2l.317,2.338-.095,2.261a8.382,8.382,0,0,0-2.663,3.657c-.809,3.313-.518,10.991-.518,10.991s.014.024.034.057a15.55,15.55,0,0,0-2.18,1.927.569.569,0,0,0-.073.153h0a.424.424,0,0,0,.213.507h0a.777.777,0,0,0,.077.038l.04.019c.023.009.048.016.073.024l.065.018c.023.005.049.009.074.013s.055.009.084.011l.077,0c.033,0,.066,0,.1,0s.054,0,.082,0,.075-.007.114-.012.057-.007.086-.012.085-.016.129-.026l.09-.021c.046-.012.1-.028.144-.043l.091-.029c.054-.019.111-.042.168-.065.028-.011.054-.021.082-.034.086-.037.174-.079.264-.127,1.507-.8,1.828-1,2.121-1.172a.491.491,0,0,0,.118-.094l.021-.023a.361.361,0,0,0,.062-.111V160.8a.514.514,0,0,0,.02-.133c0-.009,0-.019,0-.028a1.621,1.621,0,0,0-.012-.191l.066-.029,1.269-11.238s2.04,3.352,3.537,2.745c-.958,1.185-.738-.324-.912.93-.468,3.378-.476,10.728-.476,10.728s.02.022.05.051a14.682,14.682,0,0,0-2.094,1.86.55.55,0,0,0-.074.154h0a.422.422,0,0,0,.212.507h0a.6.6,0,0,0,.077.038c.014.007.027.014.041.019a.653.653,0,0,0,.073.023c.022.006.043.013.065.018a.733.733,0,0,0,.074.014l.085.012.077,0c.033,0,.066,0,.1,0l.081,0c.037,0,.076-.006.115-.012s.056-.007.086-.013.086-.016.129-.025l.091-.021c.046-.012.094-.028.143-.043.03-.009.06-.018.091-.029.055-.019.111-.042.168-.066l.082-.033c.086-.038.174-.08.265-.128,1.507-.8,1.827-1,2.12-1.172a.508.508,0,0,0,.119-.093l.021-.024a.365.365,0,0,0,.062-.112l0-.006a.557.557,0,0,0,.02-.133c0-.009,0-.018,0-.028a3.459,3.459,0,0,0-.043-.441.193.193,0,0,0-.077-.119c.074-.056,1.532-14.476,1.532-14.476s5.984-2.679,6.809-3.127C344.6,144.043,341.464,138.136,341.464,138.136Z" transform="translate(-320.55 -116.882)" fill="#e2e2e2" style="mix-blend-mode: multiply;isolation: isolate"/>
          <g id="Grupo_7400" data-name="Grupo 7400">
            <path id="Caminho_3950" data-name="Caminho 3950" d="M336.391,130.873s.033-.321.9,1.6-1.216,8.078-1.711,8.753-6.7,2.575-8.06.469c.851-.437.029-1.066.2-2.05,2.533.886,5.048-1.131,5.822-1.773C334.83,136.807,334.053,133.537,336.391,130.873Z" transform="translate(-324.135 -122.903)" fill="#c7ebf9"/>
            <g id="Grupo_7397" data-name="Grupo 7397">
              <g id="Grupo_7395" data-name="Grupo 7395" transform="translate(0 21.07)">
                <g id="Grupo_7392" data-name="Grupo 7392" transform="translate(0 18.181)">
                  <path id="Caminho_3951" data-name="Caminho 3951" d="M319.216,229.69a17.327,17.327,0,0,0-2.288,2.009c-.4.586.474,1.214,1.981.418s1.828-1,2.121-1.172.237-.4.181-.837S319.216,229.69,319.216,229.69Z" transform="translate(-316.83 -229.69)" fill="#fff"/>
                  <path id="Caminho_3952" data-name="Caminho 3952" d="M321.038,232.172c-.293.167-.614.377-2.121,1.172-1.132.6-1.909.392-2.055,0-.169.531.679.991,2.055.265,1.507-.8,1.828-1,2.121-1.172.224-.128.244-.3.215-.563A.391.391,0,0,1,321.038,232.172Z" transform="translate(-316.837 -231.185)" fill="#4c4c4c"/>
                </g>
                <path id="Caminho_3953" data-name="Caminho 3953" d="M340.073,172.369s-.069,4.256-3.828,5.181a46.446,46.446,0,0,0-7.733,2.84L326.044,191.1a1.943,1.943,0,0,1-1.061.17,1.617,1.617,0,0,1-1.173-.784s-.291-7.678.518-10.99,7.577-7.215,7.577-7.215Z" transform="translate(-321.565 -172.281)" fill="#112f5b"/>
                <g id="Grupo_7394" data-name="Grupo 7394" transform="translate(5.755 2.602)">
                  <g id="Grupo_7393" data-name="Grupo 7393" transform="translate(0 19.286)">
                    <path id="Caminho_3954" data-name="Caminho 3954" d="M337.389,241.394A17.359,17.359,0,0,0,335.1,243.4c-.405.586.474,1.214,1.981.419s1.827-1,2.121-1.172.238-.4.181-.837S337.389,241.394,337.389,241.394Z" transform="translate(-335.003 -241.394)" fill="#fff"/>
                    <path id="Caminho_3955" data-name="Caminho 3955" d="M339.21,243.876c-.293.167-.614.377-2.121,1.172-1.132.6-1.91.391-2.055,0-.169.531.68.992,2.055.265,1.507-.8,1.827-1,2.121-1.172.224-.128.244-.3.216-.563A.391.391,0,0,1,339.21,243.876Z" transform="translate(-335.009 -242.889)" fill="#4c4c4c"/>
                  </g>
                  <path id="Caminho_3956" data-name="Caminho 3956" d="M354.98,180.5s.363,4.241-3.283,5.543a46.486,46.486,0,0,0-7.4,3.611l-1.368,10.332a1.522,1.522,0,0,1-1.1.4,1.641,1.641,0,0,1-1.183-.507s-.846-7.82-.379-11.2,5.594-7.354,5.594-7.354Z" transform="translate(-338.504 -180.496)" fill="#164072"/>
                </g>
              </g>
              <path id="Caminho_3957" data-name="Caminho 3957" d="M347.781,142.007s-.406-12.714,3.473-14.2,7.432,2.049,8.948,5.472,1.117,9.382,0,11.595C354.881,148.536,347.629,143.765,347.781,142.007Z" transform="translate(-337.971 -120.584)" fill="#e6f7ff"/>
              <path id="Caminho_3958" data-name="Caminho 3958" d="M366.928,133.279c-1.516-3.423-5.07-6.957-8.948-5.472a2.272,2.272,0,0,0-.367.183c2.856.363,5.284,3.105,6.469,5.78,1.515,3.423,1.116,9.382,0,11.594a7.514,7.514,0,0,1-1.643.853,7.732,7.732,0,0,0,4.489-1.343C368.045,142.661,368.443,136.7,366.928,133.279Z" transform="translate(-344.698 -120.584)" fill="#fff"/>
              <g id="Grupo_7396" data-name="Grupo 7396" transform="translate(10.304)">
                <path id="Caminho_3959" data-name="Caminho 3959" d="M354.326,110.353s-.968,1.55-.1,4.913c.7,2.725.809,4.233,1.946,4.348s4.543-.716,4.171-3.553a2.008,2.008,0,0,0,.485-2.4c-.547-1.032-.931.1-.931.1s.022-2.249-1.567-3.068A7.265,7.265,0,0,0,354.326,110.353Z" transform="translate(-352.441 -108.797)" fill="url(#linear-gradient)"/>
                <path id="Caminho_3960" data-name="Caminho 3960" d="M354.99,110.007c-.006-.13-1.214,1.593-3.154,1.036a1.2,1.2,0,0,0,.822-.672,1.715,1.715,0,0,1-1.765.574,2.572,2.572,0,0,0,.706-.409,1.923,1.923,0,0,1-1.448.107c.447-.193.38-.487.38-.487s-.4.4-1.163-.275c.312-.04.282-1.474,1.41-2.506a3.649,3.649,0,0,1,3.556-1.018,1.4,1.4,0,0,0-1.3-.512c.6-.337,1.88.267,2.257.825,1.173-.45,3.384.331,2.655,4.607-.012-.107-.113-.8-.527-.935s-.764.684-.669.89a9.2,9.2,0,0,1,.139,1.426l-.536.281s.167-1.061-.216-1.38S355.063,111.637,354.99,110.007Z" transform="translate(-349.367 -105.749)" fill="#112f5b"/>
              </g>
            </g>
            <g id="Grupo_7399" data-name="Grupo 7399" transform="translate(2.455 12.547)">
              <g id="Grupo_7398" data-name="Grupo 7398" transform="translate(0.497)">
                <path id="Caminho_3961" data-name="Caminho 3961" d="M326.152,149.466l2.3,3.084,7.424-1.73-.426,9.6-6.753-.082-2.224-2.706Z" transform="translate(-326.152 -148.168)" fill="#fff"/>
                <path id="Caminho_3962" data-name="Caminho 3962" d="M326.152,145.369l2.3,4.381.245,7.784-2.224-2.706Z" transform="translate(-326.152 -145.369)" fill="#e6f7ff"/>
              </g>
              <path id="Caminho_3963" data-name="Caminho 3963" d="M351.057,167.624s-.228.352-.713,0-.666-.949-.966-1.171c-.036.766,0,1.3-.951,1.284s-1.562-.148-2.1-.111.1,2.422,2.879,2.476a3,3,0,0,0,2.18-.95Z" transform="translate(-339.321 -159.776)" fill="url(#linear-gradient-2)"/>
              <path id="Caminho_3964" data-name="Caminho 3964" d="M325.218,160.582s.51,1.044.826,1.164.071,1.859-.9,1.3S324.633,160.637,325.218,160.582Z" transform="translate(-324.583 -155.764)" fill="url(#linear-gradient-3)"/>
            </g>
            <path id="Caminho_3965" data-name="Caminho 3965" d="M366.241,140.658s.164-2.614,2-1.573,3.792,7.236,3.792,8.073-8.519,4.986-10.863,4.093a3.294,3.294,0,0,0-.019-2.865c2.567-.781,5.859-1.786,6.417-2.623S365.929,144.189,366.241,140.658Z" transform="translate(-347.116 -128.361)" fill="#c7ebf9"/>
          </g>
        </g>
        <g id="Grupo_7466" data-name="Grupo 7466" transform="translate(0 74.081)">
          <path id="Caminho_3966" data-name="Caminho 3966" d="M129.79,386.064,91.393,363.9v-1.449l50.89,14.956v1.448Z" transform="translate(-91.393 -355.235)" fill="#55c3fe"/>
          <path id="Caminho_3967" data-name="Caminho 3967" d="M129.79,386.064,91.393,363.9v-1.449l38.4,22.024v1.449Z" transform="translate(-91.393 -355.235)" fill="#35afe5"/>
          <path id="Caminho_3968" data-name="Caminho 3968" d="M129.79,369.055l-38.4-22.169,12.493-7.212,38.4,22.168Z" transform="translate(-91.393 -339.674)" fill="#97dfff"/>
          <g id="Grupo_7465" data-name="Grupo 7465" transform="translate(2.561 1.344)">
            <g id="Grupo_7415" data-name="Grupo 7415" transform="translate(8.515)">
              <g id="Grupo_7402" data-name="Grupo 7402">
                <path id="Caminho_3969" data-name="Caminho 3969" d="M128.9,348.665,126.37,347.2v-.31l4.164.519v.31Z" transform="translate(-126.37 -345.952)" fill="#32a5c4"/>
                <path id="Caminho_3970" data-name="Caminho 3970" d="M128.9,346.322l-2.532-1.461,1.633-.942,2.531,1.461Z" transform="translate(-126.37 -343.919)" fill="#adf8ff"/>
              </g>
              <g id="Grupo_7403" data-name="Grupo 7403" transform="translate(2.709 1.566)">
                <path id="Caminho_3971" data-name="Caminho 3971" d="M137.457,353.612l-2.531-1.462v-.31l4.164.52v.31Z" transform="translate(-134.925 -350.898)" fill="#32a5c4"/>
                <path id="Caminho_3972" data-name="Caminho 3972" d="M137.457,351.269l-2.531-1.462,1.633-.942,2.532,1.462Z" transform="translate(-134.925 -348.865)" fill="#adf8ff"/>
              </g>
              <g id="Grupo_7404" data-name="Grupo 7404" transform="translate(5.419 3.133)">
                <path id="Caminho_3973" data-name="Caminho 3973" d="M146.013,358.558l-2.532-1.462v-.31l4.165.519v.31Z" transform="translate(-143.481 -355.844)" fill="#32a5c4"/>
                <path id="Caminho_3974" data-name="Caminho 3974" d="M146.013,356.214l-2.532-1.462,1.633-.942,2.532,1.462Z" transform="translate(-143.481 -353.81)" fill="#adf8ff"/>
              </g>
              <g id="Grupo_7405" data-name="Grupo 7405" transform="translate(8.128 4.699)">
                <path id="Caminho_3975" data-name="Caminho 3975" d="M154.567,363.506l-2.532-1.462v-.309l4.165.519v.31Z" transform="translate(-152.036 -360.792)" fill="#32a5c4"/>
                <path id="Caminho_3976" data-name="Caminho 3976" d="M154.567,361.162l-2.532-1.462,1.633-.943,2.532,1.461Z" transform="translate(-152.036 -358.758)" fill="#adf8ff"/>
              </g>
              <g id="Grupo_7406" data-name="Grupo 7406" transform="translate(10.838 6.266)">
                <path id="Caminho_3977" data-name="Caminho 3977" d="M163.124,368.451l-2.532-1.461v-.31l4.164.52v.31Z" transform="translate(-160.592 -365.737)" fill="#32a5c4"/>
                <path id="Caminho_3978" data-name="Caminho 3978" d="M163.124,366.108l-2.532-1.461,1.632-.942,2.532,1.462Z" transform="translate(-160.592 -363.704)" fill="#adf8ff"/>
              </g>
              <g id="Grupo_7407" data-name="Grupo 7407" transform="translate(13.547 7.832)">
                <path id="Caminho_3979" data-name="Caminho 3979" d="M171.679,373.4l-2.532-1.462v-.31l4.164.52v.31Z" transform="translate(-169.147 -370.683)" fill="#32a5c4"/>
                <path id="Caminho_3980" data-name="Caminho 3980" d="M171.679,371.054l-2.532-1.462,1.633-.942,2.531,1.462Z" transform="translate(-169.147 -368.65)" fill="#adf8ff"/>
              </g>
              <g id="Grupo_7408" data-name="Grupo 7408" transform="translate(16.257 9.399)">
                <path id="Caminho_3981" data-name="Caminho 3981" d="M180.235,378.344l-2.531-1.461v-.31l4.165.519v.31Z" transform="translate(-177.704 -375.631)" fill="#32a5c4"/>
                <path id="Caminho_3982" data-name="Caminho 3982" d="M180.235,376l-2.531-1.463,1.633-.943,2.532,1.462Z" transform="translate(-177.704 -373.597)" fill="#adf8ff"/>
              </g>
              <g id="Grupo_7409" data-name="Grupo 7409" transform="translate(18.966 10.965)">
                <path id="Caminho_3983" data-name="Caminho 3983" d="M188.789,383.29l-2.532-1.461v-.31l4.165.519v.31Z" transform="translate(-186.257 -380.577)" fill="#32a5c4"/>
                <path id="Caminho_3984" data-name="Caminho 3984" d="M188.789,380.948l-2.532-1.461,1.634-.942,2.532,1.462Z" transform="translate(-186.257 -378.544)" fill="#adf8ff"/>
              </g>
              <g id="Grupo_7410" data-name="Grupo 7410" transform="translate(21.676 12.532)">
                <path id="Caminho_3985" data-name="Caminho 3985" d="M197.346,388.239l-2.531-1.461v-.31l4.165.518v.31Z" transform="translate(-194.815 -385.525)" fill="#32a5c4"/>
                <path id="Caminho_3986" data-name="Caminho 3986" d="M197.346,385.894l-2.531-1.461,1.632-.943,2.532,1.461Z" transform="translate(-194.815 -383.49)" fill="#adf8ff"/>
              </g>
              <g id="Grupo_7411" data-name="Grupo 7411" transform="translate(24.385 14.098)">
                <path id="Caminho_3987" data-name="Caminho 3987" d="M205.9,393.184l-2.532-1.462v-.31l4.165.519v.31Z" transform="translate(-203.37 -390.469)" fill="#32a5c4"/>
                <path id="Caminho_3988" data-name="Caminho 3988" d="M205.9,390.84l-2.532-1.462,1.632-.943,2.533,1.462Z" transform="translate(-203.37 -388.435)" fill="#adf8ff"/>
              </g>
              <g id="Grupo_7412" data-name="Grupo 7412" transform="translate(27.094 15.665)">
                <path id="Caminho_3989" data-name="Caminho 3989" d="M214.456,398.13l-2.532-1.461v-.31l4.165.519v.31Z" transform="translate(-211.924 -395.417)" fill="#32a5c4"/>
                <path id="Caminho_3990" data-name="Caminho 3990" d="M214.456,395.787l-2.532-1.462,1.633-.943,2.532,1.461Z" transform="translate(-211.924 -393.383)" fill="#adf8ff"/>
              </g>
              <g id="Grupo_7413" data-name="Grupo 7413" transform="translate(29.804 17.231)">
                <path id="Caminho_3991" data-name="Caminho 3991" d="M223.013,403.078l-2.532-1.461v-.31l4.165.519v.31Z" transform="translate(-220.481 -400.364)" fill="#32a5c4"/>
                <path id="Caminho_3992" data-name="Caminho 3992" d="M223.013,400.734l-2.532-1.462,1.633-.943,2.531,1.462Z" transform="translate(-220.481 -398.33)" fill="#adf8ff"/>
              </g>
              <g id="Grupo_7414" data-name="Grupo 7414" transform="translate(32.513 18.798)">
                <path id="Caminho_3993" data-name="Caminho 3993" d="M231.568,408.025l-2.532-1.462v-.309l4.164.519v.31Z" transform="translate(-229.037 -405.311)" fill="#32a5c4"/>
                <path id="Caminho_3994" data-name="Caminho 3994" d="M231.568,405.681l-2.532-1.462,1.633-.943,2.532,1.462Z" transform="translate(-229.037 -403.276)" fill="#adf8ff"/>
              </g>
            </g>
            <g id="Grupo_7428" data-name="Grupo 7428" transform="translate(6.404 1.216)">
              <g id="Grupo_7416" data-name="Grupo 7416">
                <path id="Caminho_3995" data-name="Caminho 3995" d="M123.709,353.39l-4.006-2.345v-.31l5.638,1.4v.31Z" transform="translate(-119.704 -349.793)" fill="#32a5c4"/>
                <path id="Caminho_3996" data-name="Caminho 3996" d="M123.709,351.047,119.7,348.7l1.633-.942,4.005,2.345Z" transform="translate(-119.704 -347.76)" fill="#adf8ff"/>
              </g>
              <g id="Grupo_7417" data-name="Grupo 7417" transform="translate(4.183 2.449)">
                <path id="Caminho_3997" data-name="Caminho 3997" d="M135.445,360.24l-2.532-1.462v-.31l4.164.519v.31Z" transform="translate(-132.913 -357.527)" fill="#32a5c4"/>
                <path id="Caminho_3998" data-name="Caminho 3998" d="M135.445,357.9l-2.532-1.462,1.633-.942,2.531,1.461Z" transform="translate(-132.913 -355.494)" fill="#adf8ff"/>
              </g>
              <g id="Grupo_7418" data-name="Grupo 7418" transform="translate(6.892 4.016)">
                <path id="Caminho_3999" data-name="Caminho 3999" d="M144,365.188l-2.532-1.461v-.31l4.165.519v.309Z" transform="translate(-141.466 -362.474)" fill="#32a5c4"/>
                <path id="Caminho_4000" data-name="Caminho 4000" d="M144,362.844l-2.532-1.462,1.634-.943,2.531,1.462Z" transform="translate(-141.466 -360.439)" fill="#adf8ff"/>
              </g>
              <g id="Grupo_7419" data-name="Grupo 7419" transform="translate(9.602 5.582)">
                <path id="Caminho_4001" data-name="Caminho 4001" d="M152.555,370.133l-2.531-1.462v-.31l4.165.519v.31Z" transform="translate(-150.024 -367.419)" fill="#32a5c4"/>
                <path id="Caminho_4002" data-name="Caminho 4002" d="M152.555,367.79l-2.531-1.462,1.633-.942,2.532,1.461Z" transform="translate(-150.024 -365.387)" fill="#adf8ff"/>
              </g>
              <g id="Grupo_7420" data-name="Grupo 7420" transform="translate(12.312 7.148)">
                <path id="Caminho_4003" data-name="Caminho 4003" d="M161.112,375.08l-2.531-1.461v-.31l4.164.519v.31Z" transform="translate(-158.581 -372.367)" fill="#32a5c4"/>
                <path id="Caminho_4004" data-name="Caminho 4004" d="M161.112,372.736l-2.531-1.461,1.632-.943,2.532,1.462Z" transform="translate(-158.581 -370.332)" fill="#adf8ff"/>
              </g>
              <g id="Grupo_7421" data-name="Grupo 7421" transform="translate(15.021 8.715)">
                <path id="Caminho_4005" data-name="Caminho 4005" d="M169.667,380.026l-2.532-1.462v-.31l4.165.52v.31Z" transform="translate(-167.134 -377.312)" fill="#32a5c4"/>
                <path id="Caminho_4006" data-name="Caminho 4006" d="M169.667,377.683l-2.532-1.462,1.633-.943,2.532,1.462Z" transform="translate(-167.134 -375.278)" fill="#adf8ff"/>
              </g>
              <g id="Grupo_7422" data-name="Grupo 7422" transform="translate(17.73 10.282)">
                <path id="Caminho_4007" data-name="Caminho 4007" d="M178.222,384.973l-2.532-1.462v-.31l4.165.52v.31Z" transform="translate(-175.69 -382.259)" fill="#32a5c4"/>
                <path id="Caminho_4008" data-name="Caminho 4008" d="M178.222,382.631l-2.532-1.463,1.633-.942,2.531,1.462Z" transform="translate(-175.69 -380.226)" fill="#adf8ff"/>
              </g>
              <g id="Grupo_7423" data-name="Grupo 7423" transform="translate(20.439 11.848)">
                <path id="Caminho_4009" data-name="Caminho 4009" d="M186.777,389.919l-2.532-1.462v-.31l4.165.52v.31Z" transform="translate(-184.245 -387.205)" fill="#32a5c4"/>
                <path id="Caminho_4010" data-name="Caminho 4010" d="M186.777,387.576l-2.532-1.462,1.634-.942,2.532,1.462Z" transform="translate(-184.245 -385.173)" fill="#adf8ff"/>
              </g>
              <g id="Grupo_7424" data-name="Grupo 7424" transform="translate(23.15 13.414)">
                <path id="Caminho_4011" data-name="Caminho 4011" d="M195.334,394.867,192.8,393.4v-.31l4.164.519v.31Z" transform="translate(-192.802 -392.152)" fill="#32a5c4"/>
                <path id="Caminho_4012" data-name="Caminho 4012" d="M195.334,392.523l-2.532-1.462,1.633-.943,2.532,1.461Z" transform="translate(-192.802 -390.118)" fill="#adf8ff"/>
              </g>
              <g id="Grupo_7425" data-name="Grupo 7425" transform="translate(25.859 14.981)">
                <path id="Caminho_4013" data-name="Caminho 4013" d="M203.89,399.815l-2.532-1.462v-.309l4.165.519v.31Z" transform="translate(-201.358 -397.101)" fill="#32a5c4"/>
                <path id="Caminho_4014" data-name="Caminho 4014" d="M203.89,397.471l-2.532-1.461,1.633-.943,2.532,1.462Z" transform="translate(-201.358 -395.066)" fill="#adf8ff"/>
              </g>
              <g id="Grupo_7426" data-name="Grupo 7426" transform="translate(28.568 16.548)">
                <path id="Caminho_4015" data-name="Caminho 4015" d="M212.445,404.759l-2.532-1.462v-.31l4.164.519v.31Z" transform="translate(-209.914 -402.045)" fill="#32a5c4"/>
                <path id="Caminho_4016" data-name="Caminho 4016" d="M212.445,402.416l-2.532-1.462,1.632-.942,2.532,1.462Z" transform="translate(-209.914 -400.012)" fill="#adf8ff"/>
              </g>
              <g id="Grupo_7427" data-name="Grupo 7427" transform="translate(31.277 18.114)">
                <path id="Caminho_4017" data-name="Caminho 4017" d="M222.224,410.427l-3.757-2.181v-.31l5.39,1.239v.309Z" transform="translate(-218.467 -406.992)" fill="#32a5c4"/>
                <path id="Caminho_4018" data-name="Caminho 4018" d="M222.224,408.082l-3.757-2.181,1.633-.943,3.757,2.182Z" transform="translate(-218.467 -404.958)" fill="#adf8ff"/>
              </g>
            </g>
            <g id="Grupo_7442" data-name="Grupo 7442" transform="translate(4.262 2.456)">
              <g id="Grupo_7429" data-name="Grupo 7429">
                <path id="Caminho_4019" data-name="Caminho 4019" d="M115.952,356.715l-3.012-1.755v-.309l4.429.686v.31Z" transform="translate(-112.94 -353.708)" fill="#32a5c4"/>
                <path id="Caminho_4020" data-name="Caminho 4020" d="M116.045,354.422l-3.1-1.806,1.632-.943,3.105,1.807Z" transform="translate(-112.94 -351.673)" fill="#adf8ff"/>
              </g>
              <g id="Grupo_7430" data-name="Grupo 7430" transform="translate(2.973 1.733)">
                <path id="Caminho_4021" data-name="Caminho 4021" d="M124.86,361.893l-2.531-1.461v-.31l4.165.519v.31Z" transform="translate(-122.329 -359.179)" fill="#32a5c4"/>
                <path id="Caminho_4022" data-name="Caminho 4022" d="M124.86,359.549l-2.531-1.462,1.632-.943,2.533,1.462Z" transform="translate(-122.329 -357.145)" fill="#adf8ff"/>
              </g>
              <g id="Grupo_7431" data-name="Grupo 7431" transform="translate(5.682 3.3)">
                <path id="Caminho_4023" data-name="Caminho 4023" d="M133.416,366.84l-2.532-1.462v-.31l4.165.519v.31Z" transform="translate(-130.883 -364.126)" fill="#32a5c4"/>
                <path id="Caminho_4024" data-name="Caminho 4024" d="M133.416,364.5l-2.532-1.462,1.633-.942,2.532,1.462Z" transform="translate(-130.883 -362.093)" fill="#adf8ff"/>
              </g>
              <g id="Grupo_7432" data-name="Grupo 7432" transform="translate(8.392 4.866)">
                <path id="Caminho_4025" data-name="Caminho 4025" d="M141.972,371.788l-2.532-1.461v-.309l4.165.518v.31Z" transform="translate(-139.44 -369.074)" fill="#32a5c4"/>
                <path id="Caminho_4026" data-name="Caminho 4026" d="M141.972,369.443l-2.532-1.462,1.633-.944L143.6,368.5Z" transform="translate(-139.44 -367.038)" fill="#adf8ff"/>
              </g>
              <g id="Grupo_7433" data-name="Grupo 7433" transform="translate(11.102 6.433)">
                <path id="Caminho_4027" data-name="Caminho 4027" d="M150.528,376.735,148,375.272v-.309l4.164.519v.31Z" transform="translate(-147.997 -374.02)" fill="#32a5c4"/>
                <path id="Caminho_4028" data-name="Caminho 4028" d="M150.528,374.39,148,372.929l1.633-.943,2.531,1.461Z" transform="translate(-147.997 -371.986)" fill="#adf8ff"/>
              </g>
              <g id="Grupo_7434" data-name="Grupo 7434" transform="translate(13.811 7.999)">
                <path id="Caminho_4029" data-name="Caminho 4029" d="M159.083,381.681l-2.531-1.462v-.309l4.165.519v.309Z" transform="translate(-156.551 -378.967)" fill="#32a5c4"/>
                <path id="Caminho_4030" data-name="Caminho 4030" d="M159.083,379.337l-2.531-1.462,1.633-.943,2.532,1.462Z" transform="translate(-156.551 -376.933)" fill="#adf8ff"/>
              </g>
              <g id="Grupo_7435" data-name="Grupo 7435" transform="translate(16.521 9.566)">
                <path id="Caminho_4031" data-name="Caminho 4031" d="M167.639,386.626l-2.532-1.462v-.31l4.165.519v.309Z" transform="translate(-165.107 -383.912)" fill="#32a5c4"/>
                <path id="Caminho_4032" data-name="Caminho 4032" d="M167.639,384.282l-2.532-1.462,1.633-.943,2.532,1.462Z" transform="translate(-165.107 -381.878)" fill="#adf8ff"/>
              </g>
              <g id="Grupo_7436" data-name="Grupo 7436" transform="translate(19.23 11.132)">
                <path id="Caminho_4033" data-name="Caminho 4033" d="M176.194,391.574l-2.533-1.462v-.31l4.164.519v.31Z" transform="translate(-173.662 -388.86)" fill="#32a5c4"/>
                <path id="Caminho_4034" data-name="Caminho 4034" d="M176.194,389.23l-2.533-1.462,1.633-.943,2.531,1.462Z" transform="translate(-173.662 -386.825)" fill="#adf8ff"/>
              </g>
              <g id="Grupo_7437" data-name="Grupo 7437" transform="translate(21.939 12.699)">
                <path id="Caminho_4035" data-name="Caminho 4035" d="M184.749,396.52l-2.533-1.462v-.31l4.165.519v.311Z" transform="translate(-182.216 -393.805)" fill="#32a5c4"/>
                <path id="Caminho_4036" data-name="Caminho 4036" d="M184.749,394.176l-2.533-1.462,1.633-.943,2.532,1.461Z" transform="translate(-182.216 -391.772)" fill="#adf8ff"/>
              </g>
              <g id="Grupo_7438" data-name="Grupo 7438" transform="translate(24.65 14.266)">
                <path id="Caminho_4037" data-name="Caminho 4037" d="M193.307,401.466,190.776,400v-.31l4.165.519v.31Z" transform="translate(-190.776 -398.753)" fill="#32a5c4"/>
                <path id="Caminho_4038" data-name="Caminho 4038" d="M193.307,399.125l-2.531-1.462,1.632-.942,2.532,1.461Z" transform="translate(-190.776 -396.721)" fill="#adf8ff"/>
              </g>
              <g id="Grupo_7439" data-name="Grupo 7439" transform="translate(27.359 15.833)">
                <path id="Caminho_4039" data-name="Caminho 4039" d="M201.861,406.414l-2.532-1.461v-.31l4.164.519v.31Z" transform="translate(-199.33 -403.7)" fill="#32a5c4"/>
                <path id="Caminho_4040" data-name="Caminho 4040" d="M201.861,404.071l-2.532-1.462,1.633-.942,2.532,1.462Z" transform="translate(-199.33 -401.667)" fill="#adf8ff"/>
              </g>
              <g id="Grupo_7440" data-name="Grupo 7440" transform="translate(30.068 17.399)">
                <path id="Caminho_4041" data-name="Caminho 4041" d="M210.418,411.36l-2.531-1.463v-.309l4.164.519v.309Z" transform="translate(-207.886 -408.646)" fill="#32a5c4"/>
                <path id="Caminho_4042" data-name="Caminho 4042" d="M210.418,409.017l-2.531-1.462,1.633-.942,2.532,1.461Z" transform="translate(-207.886 -406.612)" fill="#adf8ff"/>
              </g>
              <g id="Grupo_7441" data-name="Grupo 7441" transform="translate(32.777 18.965)">
                <path id="Caminho_4043" data-name="Caminho 4043" d="M218.7,416.146l-2.256-1.3v-.309l3.889.358v.31Z" transform="translate(-216.44 -413.593)" fill="#32a5c4"/>
                <path id="Caminho_4044" data-name="Caminho 4044" d="M218.7,413.8l-2.256-1.3,1.633-.943,2.256,1.3Z" transform="translate(-216.44 -411.559)" fill="#adf8ff"/>
              </g>
            </g>
            <g id="Grupo_7455" data-name="Grupo 7455" transform="translate(2.104 3.694)">
              <g id="Grupo_7443" data-name="Grupo 7443">
                <path id="Caminho_4045" data-name="Caminho 4045" d="M110.442,361.358l-4.316-2.489v-.311l5.949,1.548v.308Z" transform="translate(-106.125 -357.617)" fill="#32a5c4"/>
                <path id="Caminho_4046" data-name="Caminho 4046" d="M110.442,359.017l-4.316-2.491,1.632-.942,4.317,2.49Z" transform="translate(-106.125 -355.584)" fill="#adf8ff"/>
              </g>
              <g id="Grupo_7444" data-name="Grupo 7444" transform="translate(4.494 2.594)">
                <path id="Caminho_4047" data-name="Caminho 4047" d="M122.848,368.523l-2.532-1.461v-.31l4.164.519v.31Z" transform="translate(-120.316 -365.81)" fill="#32a5c4"/>
                <path id="Caminho_4048" data-name="Caminho 4048" d="M122.848,366.18l-2.532-1.461,1.633-.942,2.531,1.462Z" transform="translate(-120.316 -363.776)" fill="#adf8ff"/>
              </g>
              <g id="Grupo_7445" data-name="Grupo 7445" transform="translate(7.203 4.161)">
                <path id="Caminho_4049" data-name="Caminho 4049" d="M131.4,373.468l-2.532-1.462v-.31l4.165.519v.31Z" transform="translate(-128.872 -370.754)" fill="#32a5c4"/>
                <path id="Caminho_4050" data-name="Caminho 4050" d="M131.4,371.126l-2.532-1.462,1.633-.942,2.532,1.461Z" transform="translate(-128.872 -368.722)" fill="#adf8ff"/>
              </g>
              <g id="Grupo_7446" data-name="Grupo 7446" transform="translate(9.913 5.727)">
                <path id="Caminho_4051" data-name="Caminho 4051" d="M139.959,378.417l-2.532-1.462v-.311l4.165.519v.31Z" transform="translate(-137.426 -375.702)" fill="#32a5c4"/>
                <path id="Caminho_4052" data-name="Caminho 4052" d="M139.959,376.072l-2.532-1.462,1.633-.943,2.532,1.462Z" transform="translate(-137.426 -373.667)" fill="#adf8ff"/>
              </g>
              <g id="Grupo_7447" data-name="Grupo 7447" transform="translate(12.622 7.293)">
                <path id="Caminho_4053" data-name="Caminho 4053" d="M148.515,383.362l-2.532-1.462v-.31l4.165.52v.31Z" transform="translate(-145.983 -380.647)" fill="#32a5c4"/>
                <path id="Caminho_4054" data-name="Caminho 4054" d="M148.515,381.019l-2.532-1.462,1.633-.942,2.532,1.462Z" transform="translate(-145.983 -378.614)" fill="#adf8ff"/>
              </g>
              <g id="Grupo_7448" data-name="Grupo 7448" transform="translate(15.332 8.86)">
                <path id="Caminho_4055" data-name="Caminho 4055" d="M157.071,388.308l-2.532-1.461v-.311l4.165.52v.31Z" transform="translate(-154.539 -385.593)" fill="#32a5c4"/>
                <path id="Caminho_4056" data-name="Caminho 4056" d="M157.071,385.966l-2.532-1.462,1.633-.942,2.532,1.461Z" transform="translate(-154.539 -383.561)" fill="#adf8ff"/>
              </g>
              <g id="Grupo_7449" data-name="Grupo 7449" transform="translate(18.041 10.427)">
                <path id="Caminho_4057" data-name="Caminho 4057" d="M165.626,393.257l-2.532-1.462v-.309l4.164.519v.31Z" transform="translate(-163.094 -390.543)" fill="#32a5c4"/>
                <path id="Caminho_4058" data-name="Caminho 4058" d="M165.626,390.912l-2.532-1.461,1.633-.943,2.531,1.462Z" transform="translate(-163.094 -388.508)" fill="#adf8ff"/>
              </g>
              <g id="Grupo_7450" data-name="Grupo 7450" transform="translate(20.751 11.993)">
                <path id="Caminho_4059" data-name="Caminho 4059" d="M174.182,398.2l-2.531-1.462v-.309l4.164.519v.31Z" transform="translate(-171.651 -395.488)" fill="#32a5c4"/>
                <path id="Caminho_4060" data-name="Caminho 4060" d="M174.182,395.858l-2.531-1.462,1.633-.943,2.531,1.462Z" transform="translate(-171.651 -393.453)" fill="#adf8ff"/>
              </g>
              <g id="Grupo_7451" data-name="Grupo 7451" transform="translate(23.46 13.56)">
                <path id="Caminho_4061" data-name="Caminho 4061" d="M182.738,403.149l-2.532-1.462v-.309l4.165.519v.309Z" transform="translate(-180.206 -400.435)" fill="#32a5c4"/>
                <path id="Caminho_4062" data-name="Caminho 4062" d="M182.738,400.806l-2.532-1.462,1.633-.943,2.532,1.462Z" transform="translate(-180.206 -398.401)" fill="#adf8ff"/>
              </g>
              <g id="Grupo_7452" data-name="Grupo 7452" transform="translate(26.17 15.126)">
                <path id="Caminho_4063" data-name="Caminho 4063" d="M191.293,408.1l-2.532-1.462v-.31l4.164.519v.31Z" transform="translate(-188.761 -405.381)" fill="#32a5c4"/>
                <path id="Caminho_4064" data-name="Caminho 4064" d="M191.293,405.751l-2.532-1.461,1.633-.943,2.532,1.462Z" transform="translate(-188.761 -403.347)" fill="#adf8ff"/>
              </g>
              <g id="Grupo_7453" data-name="Grupo 7453" transform="translate(28.879 16.693)">
                <path id="Caminho_4065" data-name="Caminho 4065" d="M199.847,413.043l-2.532-1.461v-.31l4.165.518v.31Z" transform="translate(-197.315 -410.329)" fill="#32a5c4"/>
                <path id="Caminho_4066" data-name="Caminho 4066" d="M199.847,410.7l-2.532-1.461,1.634-.943,2.532,1.462Z" transform="translate(-197.315 -408.294)" fill="#adf8ff"/>
              </g>
              <g id="Grupo_7454" data-name="Grupo 7454" transform="translate(31.589 18.259)">
                <path id="Caminho_4067" data-name="Caminho 4067" d="M209.359,418.512l-3.486-1.985v-.31l5.118,1.043v.31Z" transform="translate(-205.874 -415.274)" fill="#32a5c4"/>
                <path id="Caminho_4068" data-name="Caminho 4068" d="M209.359,416.169l-3.486-1.986,1.632-.943,3.486,1.986Z" transform="translate(-205.874 -413.24)" fill="#adf8ff"/>
              </g>
            </g>
            <g id="Grupo_7464" data-name="Grupo 7464" transform="translate(0 4.908)">
              <g id="Grupo_7456" data-name="Grupo 7456">
                <path id="Caminho_4069" data-name="Caminho 4069" d="M102.549,364.5l-3.068-1.8v-.31l4.7.856v.31Z" transform="translate(-99.481 -361.451)" fill="#32a5c4"/>
                <path id="Caminho_4070" data-name="Caminho 4070" d="M102.549,362.159l-3.068-1.8,1.633-.942,3.069,1.8Z" transform="translate(-99.481 -359.418)" fill="#adf8ff"/>
              </g>
              <g id="Grupo_7457" data-name="Grupo 7457" transform="translate(3.247 1.903)">
                <path id="Caminho_4071" data-name="Caminho 4071" d="M112.265,370.177l-2.532-1.462v-.309l4.165.518v.309Z" transform="translate(-109.733 -367.463)" fill="#32a5c4"/>
                <path id="Caminho_4072" data-name="Caminho 4072" d="M112.265,367.832l-2.532-1.462,1.633-.944,2.532,1.462Z" transform="translate(-109.733 -365.427)" fill="#adf8ff"/>
              </g>
              <g id="Grupo_7458" data-name="Grupo 7458" transform="translate(5.956 3.47)">
                <path id="Caminho_4073" data-name="Caminho 4073" d="M120.821,375.122l-2.532-1.461v-.309l4.164.518v.31Z" transform="translate(-118.29 -372.409)" fill="#32a5c4"/>
                <path id="Caminho_4074" data-name="Caminho 4074" d="M120.821,372.779l-2.532-1.461,1.633-.943,2.531,1.462Z" transform="translate(-118.29 -370.374)" fill="#adf8ff"/>
              </g>
              <g id="Grupo_7459" data-name="Grupo 7459" transform="translate(8.666 5.036)">
                <path id="Caminho_4075" data-name="Caminho 4075" d="M142.872,387.894l-16.027-9.286v-.31l17.659,8.344v.309Z" transform="translate(-126.845 -377.355)" fill="#32a5c4"/>
                <path id="Caminho_4076" data-name="Caminho 4076" d="M142.872,385.55l-16.027-9.287,1.633-.943,16.026,9.287Z" transform="translate(-126.845 -375.32)" fill="#adf8ff"/>
              </g>
              <g id="Grupo_7460" data-name="Grupo 7460" transform="translate(24.923 14.436)">
                <path id="Caminho_4077" data-name="Caminho 4077" d="M180.71,409.749l-2.532-1.461v-.31l4.164.519v.31Z" transform="translate(-178.178 -407.035)" fill="#32a5c4"/>
                <path id="Caminho_4078" data-name="Caminho 4078" d="M180.71,407.405l-2.532-1.462,1.633-.943,2.531,1.462Z" transform="translate(-178.178 -405.001)" fill="#adf8ff"/>
              </g>
              <g id="Grupo_7461" data-name="Grupo 7461" transform="translate(27.632 16.002)">
                <path id="Caminho_4079" data-name="Caminho 4079" d="M189.265,414.7l-2.532-1.462v-.31l4.165.519v.31Z" transform="translate(-186.733 -411.981)" fill="#32a5c4"/>
                <path id="Caminho_4080" data-name="Caminho 4080" d="M189.265,412.352l-2.532-1.462,1.633-.943,2.532,1.462Z" transform="translate(-186.733 -409.947)" fill="#adf8ff"/>
              </g>
              <g id="Grupo_7462" data-name="Grupo 7462" transform="translate(30.342 17.569)">
                <path id="Caminho_4081" data-name="Caminho 4081" d="M197.821,419.641l-2.532-1.461v-.31l4.165.519v.31Z" transform="translate(-195.29 -416.928)" fill="#32a5c4"/>
                <path id="Caminho_4082" data-name="Caminho 4082" d="M197.821,417.3l-2.532-1.462,1.632-.942,2.532,1.462Z" transform="translate(-195.29 -414.895)" fill="#adf8ff"/>
              </g>
              <g id="Grupo_7463" data-name="Grupo 7463" transform="translate(33.051 19.135)">
                <path id="Caminho_4083" data-name="Caminho 4083" d="M205.848,424.274l-2-1.148v-.31l3.636.2v.31Z" transform="translate(-203.844 -421.874)" fill="#32a5c4"/>
                <path id="Caminho_4084" data-name="Caminho 4084" d="M205.848,421.93l-2-1.147,1.633-.943,2,1.147Z" transform="translate(-203.844 -419.84)" fill="#adf8ff"/>
              </g>
            </g>
          </g>
        </g>
        <path id="Caminho_4085" data-name="Caminho 4085" d="M304.518,324.029v19.146l16.266,5.636,4.059-3.112Z" transform="translate(-237.023 -254.902)" fill="#d6eaf2" style="mix-blend-mode: multiply;isolation: isolate"/>
        <g id="Grupo_7475" data-name="Grupo 7475" transform="translate(67.494 65.047)">
          <g id="Grupo_7474" data-name="Grupo 7474" transform="translate(0 0)">
            <g id="Grupo_7467" data-name="Grupo 7467">
              <path id="Caminho_4086" data-name="Caminho 4086" d="M304.518,315.226l7.041-4.08,7.472,5.489-7.04,4.08Z" transform="translate(-304.518 -311.147)" fill="#97dfff"/>
              <path id="Caminho_4087" data-name="Caminho 4087" d="M328.111,334.589l7.042-4.081v-2.031l-7.04,4.08Z" transform="translate(-320.639 -322.989)" fill="#55c3fe"/>
            </g>
            <g id="Grupo_7468" data-name="Grupo 7468" transform="translate(7.472 7.519)">
              <path id="Caminho_4088" data-name="Caminho 4088" d="M328.111,338.969l7.042-4.079,1.758,1.015-7.04,4.08Z" transform="translate(-328.111 -334.89)" fill="#97dfff"/>
              <path id="Caminho_4089" data-name="Caminho 4089" d="M333.666,344.207l7.041-4.08V338.1l-7.04,4.08Z" transform="translate(-331.907 -337.08)" fill="#55c3fe"/>
            </g>
            <g id="Grupo_7469" data-name="Grupo 7469" transform="translate(9.231 10.569)">
              <path id="Caminho_4090" data-name="Caminho 4090" d="M333.666,348.6l7.041-4.08,1.758,1.016-7.04,4.08Z" transform="translate(-333.666 -344.522)" fill="#97dfff"/>
              <path id="Caminho_4091" data-name="Caminho 4091" d="M339.219,353.841l7.041-4.08v-2.031l-7.04,4.08Z" transform="translate(-337.46 -346.714)" fill="#55c3fe"/>
            </g>
            <g id="Grupo_7470" data-name="Grupo 7470" transform="translate(10.989 13.62)">
              <path id="Caminho_4092" data-name="Caminho 4092" d="M339.219,358.235l7.041-4.08,1.759,1.016-7.04,4.08Z" transform="translate(-339.219 -354.155)" fill="#97dfff"/>
              <path id="Caminho_4093" data-name="Caminho 4093" d="M344.773,363.475l7.041-4.08v-2.032l-7.04,4.08Z" transform="translate(-343.014 -356.347)" fill="#55c3fe"/>
            </g>
            <g id="Grupo_7471" data-name="Grupo 7471" transform="translate(12.749 16.671)">
              <path id="Caminho_4094" data-name="Caminho 4094" d="M344.773,367.869l7.041-4.08,1.759,1.016-7.04,4.081Z" transform="translate(-344.773 -363.789)" fill="#97dfff"/>
              <path id="Caminho_4095" data-name="Caminho 4095" d="M350.328,373.108l7.041-4.079V367l-7.04,4.081Z" transform="translate(-348.569 -365.981)" fill="#55c3fe"/>
            </g>
            <g id="Grupo_7472" data-name="Grupo 7472" transform="translate(14.508 19.723)">
              <path id="Caminho_4096" data-name="Caminho 4096" d="M350.328,377.5l7.041-4.079,1.758,1.016-7.04,4.08Z" transform="translate(-350.328 -373.424)" fill="#97dfff"/>
              <path id="Caminho_4097" data-name="Caminho 4097" d="M355.881,382.742l7.041-4.08v-2.031l-7.04,4.08Z" transform="translate(-354.122 -375.615)" fill="#55c3fe"/>
            </g>
            <g id="Grupo_7473" data-name="Grupo 7473" transform="translate(16.266 22.772)">
              <path id="Caminho_4098" data-name="Caminho 4098" d="M355.881,387.132l7.041-4.08,1.759,1.017-7.041,4.079Z" transform="translate(-355.881 -383.052)" fill="#97dfff"/>
              <path id="Caminho_4099" data-name="Caminho 4099" d="M361.435,392.372l7.041-4.08v-2.031l-7.041,4.079Z" transform="translate(-359.676 -385.245)" fill="#55c3fe"/>
            </g>
          </g>
          <path id="Caminho_4100" data-name="Caminho 4100" d="M319.025,343.734V341.7l-1.76-1.015v-2.047l-1.756-1v-2.031l-1.76-1.015v-2.031l-1.758-1.016v-2.032l-7.474-5.488h0l16.266,24.783,1.763,1.016V347.8l-1.763-1v-2.048Z" transform="translate(-304.518 -319.949)" fill="#35afe5"/>
        </g>
        <g id="Grupo_7480" data-name="Grupo 7480" transform="translate(29.673 39.425)">
          <g id="Grupo_7477" data-name="Grupo 7477">
            <path id="Caminho_4101" data-name="Caminho 4101" d="M213.678,271.666v8.642c0,1.777,1.175,3.555,3.524,4.912,4.7,2.712,12.315,2.712,17.014,0,2.35-1.356,3.524-3.135,3.523-4.913v-8.64Z" transform="translate(-204.625 -258.547)" fill="#0a253f"/>
            <g id="Grupo_7476" data-name="Grupo 7476">
              <path id="Caminho_4102" data-name="Caminho 4102" d="M205.712,280.309,185.092,268.4v-.57h41.239v.57Z" transform="translate(-185.092 -255.928)" fill="#0b2d4f"/>
              <path id="Caminho_4103" data-name="Caminho 4103" d="M205.712,254.05l-20.62-11.9,20.62-11.905,20.62,11.905Z" transform="translate(-185.092 -230.24)" fill="#164072"/>
            </g>
          </g>
          <g id="Grupo_7479" data-name="Grupo 7479" transform="translate(19.74 11.321)">
            <g id="Grupo_7478" data-name="Grupo 7478" transform="translate(0.72 0.265)">
              <path id="Caminho_4104" data-name="Caminho 4104" d="M261.254,280.228h-.713V272.9L249.7,267.464l.32-.638,11.236,5.63Z" transform="translate(-249.698 -266.826)" fill="#ffd629"/>
            </g>
            <path id="Caminho_4105" data-name="Caminho 4105" d="M249.778,266.7c0,.394-.526.713-1.176.713s-1.177-.32-1.177-.713.527-.713,1.177-.713S249.778,266.309,249.778,266.7Z" transform="translate(-247.425 -265.989)" fill="#ffd629"/>
            <path id="Caminho_4106" data-name="Caminho 4106" d="M284.17,309.881v-3.628a.829.829,0,1,0-1.658,0v3.628Z" transform="translate(-271.4 -292.935)" fill="#fff42c"/>
          </g>
        </g>
        <path id="Caminho_4107" data-name="Caminho 4107" d="M120.419,358.215s3.643-.083,8.121-4.222a45.228,45.228,0,0,1,8.039-6.083v-1.261l12.552-7.366,3.153-2.1-.092-19.552-4.828,4.4-.342,12.086-15.145,9.867Z" transform="translate(-111.227 -250.53)" fill="#d6eaf2" style="mix-blend-mode: multiply;isolation: isolate"/>
        <g id="Grupo_7482" data-name="Grupo 7482" transform="translate(8.664 63.529)">
          <g id="Grupo_7481" data-name="Grupo 7481">
            <path id="Caminho_4108" data-name="Caminho 4108" d="M125.775,346.113c-.807,1.149-5.3,5.257-6.626,4.326h0c-1.326-.932,1.016-6.552,1.823-7.7l24.866-35.393a2.76,2.76,0,0,1,3.863-.392h0a2.76,2.76,0,0,1,.94,3.767Z" transform="translate(-118.751 -306.354)" fill="#1d6baa"/>
            <path id="Caminho_4109" data-name="Caminho 4109" d="M149.7,307.317a3.344,3.344,0,0,0-.849-.43,2.543,2.543,0,0,1,.058,2.847l-24.867,35.394a17.309,17.309,0,0,1-5.284,4.261c-.042.665.061,1.183.389,1.414,1.327.932,5.819-3.177,6.626-4.326l24.866-35.393A2.76,2.76,0,0,0,149.7,307.317Z" transform="translate(-118.752 -306.718)" fill="#155a93"/>
            <path id="Caminho_4110" data-name="Caminho 4110" d="M121.839,417.345l-.867,1.234c-.807,1.149-3.149,6.768-1.823,7.7s5.819-3.177,6.626-4.326l.867-1.234Z" transform="translate(-118.751 -382.195)" fill="#227cc6"/>
            <path id="Caminho_4111" data-name="Caminho 4111" d="M125.437,424.756l-.627.893c-.807,1.149-4.356,6.252-5.682,5.32a.816.816,0,0,0,.279.375c1.327.932,5.819-3.177,6.626-4.326l.867-1.234Z" transform="translate(-119.009 -387.259)" fill="#1d76b2"/>
            <path id="Caminho_4112" data-name="Caminho 4112" d="M171.675,331.667l-3.735-2.624-1.978-1.39,10.85-15.444,5.712,4.013Z" transform="translate(-151.011 -310.356)" fill="#164072"/>
            <path id="Caminho_4113" data-name="Caminho 4113" d="M180.062,319.418,169.227,334.84l-3.249-2.283-.015.022,1.978,1.39,3.735,2.624,10.85-15.444Z" transform="translate(-151.011 -315.281)" fill="#11385e"/>
            <rect id="Retngulo_4088" data-name="Retngulo 4088" width="1.094" height="6.981" transform="translate(24.701 3.421) rotate(-54.91)" fill="#0f2c49"/>
          </g>
          <path id="Caminho_4114" data-name="Caminho 4114" d="M194.89,320.664s2.785,1.081.791,4.264-6.861,8.317-7.341,10.315-2.378,1.786-2.432.335,1.713-3.008,3.336-5.159,6.585-8.221,4.711-10.411Z" transform="translate(-164.64 -315.684)" fill="#227cc6"/>
        </g>
      </g>
      <g id="Grupo_7484" data-name="Grupo 7484" transform="translate(63.441 0)">
        <path id="Caminho_4115" data-name="Caminho 4115" d="M313.528,54.012l-21.809,8.536,9.4,1.12Z" transform="translate(-291.719 -54.012)" fill="#fff"/>
        <path id="Caminho_4116" data-name="Caminho 4116" d="M320.93,63.65l1.456,4.07,11.1-13.708Z" transform="translate(-311.679 -54.012)" fill="#97dfff"/>
        <path id="Caminho_4117" data-name="Caminho 4117" d="M327.19,64.586l-1.663,3.134,11.1-13.708Z" transform="translate(-314.82 -54.012)" fill="#55c3fe"/>
        <path id="Caminho_4118" data-name="Caminho 4118" d="M340.217,54.012,337.281,68.39l-6.5-3.8Z" transform="translate(-318.408 -54.012)" fill="#fff"/>
      </g>
      <g id="Grupo_7489" data-name="Grupo 7489" transform="translate(45.143 12.473)">
        <g id="Grupo_7488" data-name="Grupo 7488">
          <g id="Grupo_7485" data-name="Grupo 7485" transform="translate(26.488)">
            <path id="Caminho_4119" data-name="Caminho 4119" d="M318.064,94.771l-.484-.409c.526-.624.82-.967.82-.967l.481.411S318.589,94.15,318.064,94.771Z" transform="translate(-317.58 -93.396)" fill="#35afe5"/>
          </g>
          <g id="Grupo_7486" data-name="Grupo 7486" transform="translate(0 2.908)">
            <path id="Caminho_4120" data-name="Caminho 4120" d="M268.156,170.019q-.486,0-.978-.008l.01-.633c.846.014,1.679.01,2.517-.013l.017.633C269.2,170.011,268.674,170.019,268.156,170.019Zm-3.521-.105c-.739-.043-1.5-.1-2.26-.174l-.276-.027.062-.63.274.027c.753.071,1.506.129,2.237.172Zm7.63-.048-.048-.631c.844-.065,1.685-.151,2.5-.256l.081.628C273.973,169.712,273.121,169.8,272.265,169.865Zm-12.692-.453c-.849-.119-1.694-.258-2.511-.412l.118-.622c.807.152,1.642.289,2.482.408Zm17.742-.2-.116-.623c.827-.154,1.653-.333,2.454-.532l.153.615C278.994,168.873,278.156,169.055,277.316,169.211Zm-22.741-.748c-.836-.2-1.663-.431-2.457-.676l.187-.605c.782.241,1.6.466,2.42.666Zm27.687-.488-.193-.6c.806-.258,1.6-.542,2.36-.847l.235.588C283.889,167.423,283.082,167.713,282.261,167.975Zm-32.555-1.02c-.806-.31-1.6-.648-2.346-1.006l.272-.572c.736.351,1.51.682,2.3.986ZM287,166.076l-.28-.568c.758-.373,1.5-.776,2.2-1.2l.327.542C288.527,165.283,287.771,165.695,287,166.076Zm-41.9-1.324c-.745-.439-1.466-.911-2.14-1.4l.373-.512c.658.48,1.361.941,2.088,1.369Zm46.271-1.316-.376-.51a24.632,24.632,0,0,0,1.936-1.578l.425.47A25.162,25.162,0,0,1,291.373,163.435Zm-50.4-1.7a22.117,22.117,0,0,1-1.793-1.834l.478-.415a21.458,21.458,0,0,0,1.742,1.781Zm54.188-1.737-.474-.419a20.344,20.344,0,0,0,1.532-1.963l.523.358A20.981,20.981,0,0,1,295.162,159.993ZM237.62,157.86a20.7,20.7,0,0,1-1.3-2.215l.565-.286a20.138,20.138,0,0,0,1.259,2.146Zm60.431-2.1-.567-.284a16.783,16.783,0,0,0,.946-2.294l.6.2A17.48,17.48,0,0,1,298.051,155.755ZM235.3,153.288a22.176,22.176,0,0,1-.73-2.46l.617-.145a21.628,21.628,0,0,0,.709,2.389Zm64.334-2.419-.626-.1a14.661,14.661,0,0,0,.178-2.26l0-.208.633-.008,0,.216A15.326,15.326,0,0,1,299.637,150.869Zm-65.513-2.564c-.1-.834-.164-1.694-.183-2.555l.633-.014a24.923,24.923,0,0,0,.178,2.491Zm64.812-2.461a14.434,14.434,0,0,0-.672-2.38l.593-.224a15.113,15.113,0,0,1,.7,2.484Zm-64.3-2.607-.632-.045c.06-.838.159-1.693.295-2.541l.625.1C234.793,141.581,234.7,142.417,234.638,143.237Zm62.563-2.009a16.622,16.622,0,0,0-1.4-2.046l.495-.4a17.177,17.177,0,0,1,1.457,2.125ZM235.424,138.3l-.615-.152c.2-.822.442-1.648.71-2.455l.6.2C235.856,136.681,235.622,137.49,235.424,138.3Zm1.584-4.748-.582-.249c.338-.792.708-1.568,1.1-2.309l.559.3C237.7,132.013,237.339,132.773,237.008,133.548Zm2.355-4.414-.532-.344c.436-.673.908-1.385,1.4-2.116l.524.356C240.266,127.757,239.8,128.465,239.363,129.134Zm2.834-4.184-.518-.364q.719-1.024,1.473-2.066l.513.371Q242.916,123.928,242.2,124.95Zm2.961-4.1-.509-.377q.751-1.016,1.517-2.032l.506.381Q245.909,119.834,245.159,120.849Zm3.046-4.041-.5-.386q.777-1.012,1.55-2.006l.5.389Q248.982,115.8,248.2,116.808Zm3.109-3.995-.5-.392q.8-1.014,1.575-1.986l.495.395Q252.114,111.8,251.313,112.813Zm3.158-3.957-.493-.4c.552-.684,1.086-1.342,1.6-1.969l.491.4Q255.3,107.829,254.471,108.856Zm3.2-3.924-.489-.4c.591-.718,1.134-1.373,1.618-1.953l.487.405C258.805,103.562,258.263,104.216,257.672,104.932Z" transform="translate(-233.941 -102.577)" fill="#35afe5"/>
          </g>
          <g id="Grupo_7487" data-name="Grupo 7487" transform="translate(59.204 36.33)">
            <path id="Caminho_4121" data-name="Caminho 4121" d="M421.82,209.428c-.3-.282-.611-.561-.931-.83l.407-.485c.33.276.653.564.96.855Z" transform="translate(-420.889 -208.113)" fill="#35afe5"/>
          </g>
        </g>
      </g>
      <g id="Grupo_7493" data-name="Grupo 7493" transform="translate(4.38 17.483)">
        <g id="Grupo_7490" data-name="Grupo 7490" transform="translate(2.302 44.248)">
          <path id="Caminho_4122" data-name="Caminho 4122" d="M113.075,250.781l-.583-.249a16.988,16.988,0,0,1,.816-1.591v1.291C113.24,250.391,113.293,250.269,113.075,250.781Z" transform="translate(-112.492 -248.941)" fill="#1d6baa"/>
        </g>
        <g id="Grupo_7491" data-name="Grupo 7491">
          <path id="Caminho_4123" data-name="Caminho 4123" d="M118.554,176.094c-.395,0-.8-.012-1.218-.036l.036-.632a19.325,19.325,0,0,0,2.518-.014l.047.631C119.491,176.077,119.026,176.094,118.554,176.094Zm-3.8-.326a16.879,16.879,0,0,1-2.531-.623l.2-.6a16.23,16.23,0,0,0,2.436.6Zm7.759-.125-.151-.615a12.274,12.274,0,0,0,2.348-.83l.273.572A12.882,12.882,0,0,1,122.516,175.643Zm-12.679-1.583a9.44,9.44,0,0,1-2.058-1.653l.464-.431a8.8,8.8,0,0,0,1.92,1.542Zm17.376-.68-.395-.495a11.009,11.009,0,0,0,1.75-1.76l.5.394A11.616,11.616,0,0,1,127.213,173.38ZM106.29,170.22a10.4,10.4,0,0,1-.82-2.5l.621-.122a9.753,9.753,0,0,0,.77,2.351Zm24.184-.908-.564-.288a15.485,15.485,0,0,0,.947-2.321l.6.193A16.1,16.1,0,0,1,130.474,169.312Zm-25.251-4.2v-.075a19.035,19.035,0,0,1,.177-2.524l.628.084a18.412,18.412,0,0,0-.172,2.439v.071Zm26.858-.741-.624-.112a23.959,23.959,0,0,0,.309-2.508l.632.045A24.553,24.553,0,0,1,132.081,164.369Zm-25.58-4.257-.615-.15c.2-.813.441-1.649.721-2.486l.6.2C106.932,158.5,106.695,159.317,106.5,160.112Zm25.332-.9c-.013-.821-.06-1.674-.138-2.535l.631-.057c.079.877.127,1.745.14,2.581Zm-.451-5.057c-.128-.819-.285-1.66-.466-2.5l.619-.134c.184.852.343,1.705.473,2.536Zm-1.069-4.973c-.219-.807-.463-1.628-.726-2.44l.6-.2c.266.821.514,1.652.735,2.47Zm-1.541-4.872c-.258-.814-.5-1.648-.714-2.478l.613-.159c.213.82.45,1.643.705,2.446Zm-1.295-4.992c-.17-.84-.32-1.695-.446-2.541l.627-.092c.123.835.271,1.678.44,2.507Zm-.752-5.1c-.079-.86-.134-1.727-.162-2.576l.633-.022c.029.837.082,1.692.16,2.54Zm.46-5.14-.633-.017c.023-.871.074-1.738.153-2.578l.631.059C127.259,127.37,127.208,128.224,127.186,129.08Zm.476-5.055-.625-.1c.145-.868.324-1.721.532-2.533l.613.157C127.98,122.34,127.8,123.175,127.662,124.026Zm1.262-4.9-.6-.216a21.812,21.812,0,0,1,1.026-2.387l.566.286A21.119,21.119,0,0,0,128.924,119.126Zm2.286-4.474-.517-.366a14,14,0,0,1,1.7-1.989l.44.456A13.385,13.385,0,0,0,131.21,114.652Zm15.542-3.036a20.418,20.418,0,0,0-2.33-.965l.2-.6a21.152,21.152,0,0,1,2.4.994Zm-11.953-.376-.325-.544a10.386,10.386,0,0,1,2.412-1.052l.177.608A9.768,9.768,0,0,0,134.8,111.241Zm7.195-1.212a12.085,12.085,0,0,0-2.486-.168l-.025-.633a12.788,12.788,0,0,1,2.616.176Z" transform="translate(-105.223 -109.219)" fill="#1d6baa"/>
        </g>
        <g id="Grupo_7492" data-name="Grupo 7492" transform="translate(43.802 3.107)">
          <path id="Caminho_4124" data-name="Caminho 4124" d="M244.591,120.248c-.352-.235-.708-.463-1.056-.677l.331-.54c.356.218.718.45,1.077.69Z" transform="translate(-243.535 -119.031)" fill="#1d6baa"/>
        </g>
      </g>
      <g id="Grupo_7501" data-name="Grupo 7501" transform="translate(89.131 87.255)">
        <path id="Caminho_4125" data-name="Caminho 4125" d="M388.84,341.509l-1.755.951-1.224-.663L374.1,348.17c-1.678.909-1.678,2.383,0,3.292l.15.081a7.111,7.111,0,0,0,6.077,0l8.515-4.613Z" transform="translate(-372.838 -337.717)" fill="#c4dde8" style="mix-blend-mode: multiply;isolation: isolate"/>
        <g id="Grupo_7500" data-name="Grupo 7500" transform="translate(2.491)">
          <g id="Grupo_7499" data-name="Grupo 7499">
            <g id="Grupo_7498" data-name="Grupo 7498">
              <g id="Grupo_7496" data-name="Grupo 7496" transform="translate(11.231)">
                <g id="Grupo_7494" data-name="Grupo 7494" transform="translate(0 2.452)">
                  <path id="Caminho_4126" data-name="Caminho 4126" d="M420.414,341.815l5.371-3.1v-1.438l-9.617,2.087Z" transform="translate(-416.168 -337.276)" fill="#aaa"/>
                </g>
                <g id="Grupo_7495" data-name="Grupo 7495">
                  <path id="Caminho_4127" data-name="Caminho 4127" d="M420.414,335.087l5.371-3.1-4.246-2.452-5.371,3.1Z" transform="translate(-416.168 -329.534)" fill="#fcfcfc"/>
                  <path id="Caminho_4128" data-name="Caminho 4128" d="M437.9,336.424l.815-.47-1.189-.687-.814.47Z" transform="translate(-430.203 -333.452)" fill="#aaa"/>
                  <path id="Caminho_4129" data-name="Caminho 4129" d="M437.521,335.392l-.706.408-.108-.062.814-.47,1.189.687-.108.062Z" transform="translate(-430.203 -333.452)" fill="#4f4f4f"/>
                  <path id="Caminho_4130" data-name="Caminho 4130" d="M431.393,332.67l.814-.47-1.189-.687-.815.47Z" transform="translate(-425.758 -330.887)" fill="#aaa"/>
                  <path id="Caminho_4131" data-name="Caminho 4131" d="M431.018,331.638l-.706.408-.108-.062.815-.47,1.189.687-.108.062Z" transform="translate(-425.758 -330.887)" fill="#4f4f4f"/>
                </g>
              </g>
              <g id="Grupo_7497" data-name="Grupo 7497" transform="translate(0 1.205)">
                <path id="Caminho_4132" data-name="Caminho 4132" d="M380.7,348.7l1,.94c.057-.037.116-.075.178-.111l16.88-5.543v2.544l-11.038,6.373a6.3,6.3,0,0,1-5.7,0l-.141-.081a1.967,1.967,0,0,1-1.178-1.708h0Z" transform="translate(-380.703 -340.618)" fill="#ea4266"/>
                <path id="Caminho_4133" data-name="Caminho 4133" d="M381.885,339.713l11.037-6.373,5.843,3.373-11.038,6.373a6.3,6.3,0,0,1-5.7,0l-.141-.081C380.311,342.1,380.311,340.622,381.885,339.713Z" transform="translate(-380.704 -333.34)" fill="#fe7386"/>
              </g>
            </g>
            <path id="Caminho_4134" data-name="Caminho 4134" d="M386.134,356.3a3.859,3.859,0,0,0,3.494,0,1.065,1.065,0,0,0,0-2.017,3.863,3.863,0,0,0-3.494,0A1.065,1.065,0,0,0,386.134,356.3Z" transform="translate(-383.92 -346.161)" fill="#ffb6c2"/>
          </g>
        </g>
      </g>
      <g id="Grupo_7513" data-name="Grupo 7513" transform="translate(4.793 13.747)">
        <path id="Caminho_4135" data-name="Caminho 4135" d="M120.779,113.784s-.045,2.272,1.142,2.768c.957-.191-.112-2.638-.112-2.638Z" transform="translate(-116.265 -108.602)" fill="#112f5b"/>
        <g id="Grupo_7512" data-name="Grupo 7512">
          <g id="Grupo_7511" data-name="Grupo 7511">
            <path id="Caminho_4136" data-name="Caminho 4136" d="M165.71,170.674a1.018,1.018,0,0,0,.385-.4l-.8.449A3.833,3.833,0,0,0,165.71,170.674Z" transform="translate(-146.683 -147.202)" fill="#e2e2e2" style="mix-blend-mode: multiply;isolation: isolate"/>
            <path id="Caminho_4137" data-name="Caminho 4137" d="M141.874,195.516h0a.568.568,0,0,0-.073-.153,15.594,15.594,0,0,0-2.181-1.927c.02-.033.034-.057.034-.057s.29-7.677-.518-10.991a8.379,8.379,0,0,0-2.664-3.657l-.094-2.261.193-1.428-10.541,5.907c1.952.893,4.277,1.934,4.277,1.934s1.457,14.421,1.532,14.476a.2.2,0,0,0-.078.119,3.574,3.574,0,0,0-.043.441c0,.009,0,.019,0,.028a.526.526,0,0,0,.02.133l0,.006a.361.361,0,0,0,.062.112l.021.023a.492.492,0,0,0,.118.093c.293.168.614.377,2.121,1.172.09.048.178.09.264.128l.082.033c.057.024.113.047.168.066.031.011.06.02.091.029.049.016.1.031.144.043l.09.021c.044.01.087.019.129.025s.058.009.086.012.078.01.115.012l.082,0c.035,0,.067,0,.1,0l.077,0c.029,0,.057-.007.084-.012a.688.688,0,0,0,.074-.013c.022-.005.043-.012.065-.018a.709.709,0,0,0,.073-.023c.014-.006.027-.012.041-.019a.575.575,0,0,0,.077-.038.424.424,0,0,0,.213-.507h0a.562.562,0,0,0-.074-.154,14.717,14.717,0,0,0-2.094-1.86c.03-.029.05-.051.05-.051s-.009-7.35-.476-10.729c-.174-1.254,1.09-.093.133-1.278,1.5.606,2.493-2.4,2.493-2.4l1.269,11.238s.027.013.066.029a1.629,1.629,0,0,0-.011.191c0,.01,0,.019,0,.029a.54.54,0,0,0,.021.132l0,.007a.359.359,0,0,0,.062.111l.021.023a.5.5,0,0,0,.118.094c.293.167.614.377,2.121,1.172q.135.072.264.127c.028.013.054.022.082.034.057.023.113.046.168.065l.091.03c.049.016.1.031.144.043l.09.021c.044.01.087.019.129.026l.086.012c.039.005.078.009.115.012s.055,0,.082,0,.067,0,.1,0l.078,0c.029,0,.057-.007.084-.011s.051-.008.074-.014l.065-.018c.025-.008.05-.015.073-.024l.041-.019a.787.787,0,0,0,.077-.038A.424.424,0,0,0,141.874,195.516Z" transform="translate(-119.854 -150.46)" fill="#e2e2e2" style="mix-blend-mode: multiply;isolation: isolate"/>
            <path id="Caminho_4138" data-name="Caminho 4138" d="M161.988,180.545s-1.808.147-2.191,1.636c-.3,1.28-.818.506-.713.743s1.016,2.028,1.887,1.236,2.152-1.611,1.656-3.286A1.142,1.142,0,0,0,161.988,180.545Z" transform="translate(-142.431 -154.22)" fill="#0b223d"/>
            <path id="Caminho_4139" data-name="Caminho 4139" d="M147.442,190.377s-1.808.146-2.191,1.636c-.3,1.28-.316,1.333-.211,1.57s.515,1.2,1.386.409,2.642-1.03,2.147-2.705C148.223,190.971,147.442,190.377,147.442,190.377Z" transform="translate(-132.803 -160.939)" fill="#112f5b"/>
            <g id="Grupo_7510" data-name="Grupo 7510">
              <path id="Caminho_4140" data-name="Caminho 4140" d="M140.478,122.544s-.033-.321-.9,1.6,1.216,8.078,1.711,8.753,6.7,2.575,8.059.47c-.851-.437-.029-1.066-.2-2.05-2.533.886-6.183-.64-6.957-1.282C140.9,128.969,142.816,125.209,140.478,122.544Z" transform="translate(-128.968 -114.574)" fill="url(#linear-gradient-4)"/>
              <g id="Grupo_7507" data-name="Grupo 7507" transform="translate(0.542)">
                <g id="Grupo_7505" data-name="Grupo 7505" transform="translate(0.982 21.07)">
                  <g id="Grupo_7502" data-name="Grupo 7502" transform="translate(17.815 17.842)">
                    <path id="Caminho_4141" data-name="Caminho 4141" d="M169.433,220.635a16.3,16.3,0,0,1,2.521,2c.4.586-.474,1.214-1.981.418s-1.828-1-2.121-1.171-.272-.98,0-1.469C168.065,220.037,169.433,220.635,169.433,220.635Z" transform="translate(-167.626 -220.291)" fill="#fe7386"/>
                    <path id="Caminho_4142" data-name="Caminho 4142" d="M167.821,223.844c.293.168.614.377,2.121,1.172,1.132.6,1.91.391,2.055,0,.169.531-.68.991-2.055.265-1.507-.795-1.828-1-2.121-1.171-.224-.129-.244-.3-.216-.563A.392.392,0,0,0,167.821,223.844Z" transform="translate(-167.596 -222.518)" fill="#4c4c4c"/>
                  </g>
                  <path id="Caminho_4143" data-name="Caminho 4143" d="M123.128,164.23s.069,4.256,3.829,5.181,8.676,2.365,8.676,2.365l1.88,10.77s.639.637,1.142.43a.612.612,0,0,0,.363-.648s.26-7.968-.435-11.307c-.514-2.469-9.243-6.19-9.243-6.19Z" transform="translate(-119.395 -164.142)" fill="url(#linear-gradient-5)"/>
                  <path id="Caminho_4144" data-name="Caminho 4144" d="M138.068,169.536c-2.013-2.84-6.772-5.584-6.772-5.584l-8.168.088s.069,4.256,3.829,5.181a48.265,48.265,0,0,1,8.07,3.193C135.058,170.665,136.389,168.78,138.068,169.536Z" transform="translate(-119.395 -163.952)" fill="#112f5b"/>
                  <g id="Grupo_7504" data-name="Grupo 7504" transform="translate(0 2.602)">
                    <g id="Grupo_7503" data-name="Grupo 7503" transform="translate(12.06 18.81)">
                      <path id="Caminho_4145" data-name="Caminho 4145" d="M151.481,232.038a17.326,17.326,0,0,1,2.288,2.009c.405.586-.474,1.214-1.981.418s-1.828-1-2.121-1.171-.294-1.058.024-1.624C149.9,231.289,151.481,232.038,151.481,232.038Z" transform="translate(-149.441 -231.562)" fill="#fe7386"/>
                      <path id="Caminho_4146" data-name="Caminho 4146" d="M149.649,235.547c.293.168.614.377,2.121,1.172,1.132.6,1.91.391,2.055,0,.169.531-.68.991-2.055.265-1.507-.795-1.828-1-2.121-1.171-.224-.129-.244-.3-.215-.563A.391.391,0,0,0,149.649,235.547Z" transform="translate(-149.423 -234.085)" fill="#4c4c4c"/>
                    </g>
                    <path id="Caminho_4147" data-name="Caminho 4147" d="M111.351,172.167s-.363,4.241,3.283,5.543,8.154,2.956,8.154,2.956l.884,10.682a1.248,1.248,0,0,0,1.043.488c.75,0,.725-.383.725-.383s.8-7.725.328-11.1-5.3-7.35-5.3-7.35Z" transform="translate(-111.341 -172.167)" fill="url(#linear-gradient-5)"/>
                    <path id="Caminho_4148" data-name="Caminho 4148" d="M125.587,178.844C124.2,175.9,120.47,173,120.47,173l-9.118-.832s-.363,4.241,3.283,5.543a47.8,47.8,0,0,1,7.64,3.866C122.764,179.961,123.509,178.36,125.587,178.844Z" transform="translate(-111.341 -172.167)" fill="#164072"/>
                  </g>
                </g>
                <path id="Caminho_4149" data-name="Caminho 4149" d="M121.653,133.678s.406-12.714-3.473-14.2-7.431,2.049-8.948,5.472-1.116,9.382,0,11.595C114.552,140.207,121.8,135.436,121.653,133.678Z" transform="translate(-108.239 -112.255)" fill="#ffa9b8"/>
                <path id="Caminho_4150" data-name="Caminho 4150" d="M109.232,124.95c1.517-3.423,5.07-6.957,8.948-5.472a2.261,2.261,0,0,1,.368.183c-2.856.363-5.285,3.105-6.469,5.78-1.515,3.423-1.116,9.382,0,11.594a7.509,7.509,0,0,0,1.642.853,7.737,7.737,0,0,1-4.489-1.344C108.116,134.332,107.716,128.374,109.232,124.95Z" transform="translate(-108.239 -112.255)" fill="#ffc0cf"/>
                <g id="Grupo_7506" data-name="Grupo 7506" transform="translate(4.193)">
                  <path id="Caminho_4151" data-name="Caminho 4151" d="M128.609,102.024s.968,1.55.1,4.913c-.7,2.725-.809,4.233-1.947,4.348s-4.543-.716-4.171-3.553a2.009,2.009,0,0,1-.485-2.4c.547-1.031.931.1.931.1s-.022-2.249,1.568-3.069A7.264,7.264,0,0,1,128.609,102.024Z" transform="translate(-121.769 -100.468)" fill="url(#linear-gradient-7)"/>
                  <path id="Caminho_4152" data-name="Caminho 4152" d="M124.583,101.679c.006-.13,1.213,1.593,3.154,1.036a1.194,1.194,0,0,1-.821-.672,1.716,1.716,0,0,0,1.765.574,2.56,2.56,0,0,1-.705-.409,1.921,1.921,0,0,0,1.448.107c-.447-.193-.38-.487-.38-.487s.395.4,1.163-.274c-.313-.04-.282-1.474-1.41-2.506a3.65,3.65,0,0,0-3.556-1.018,1.4,1.4,0,0,1,1.3-.512c-.6-.337-1.88.267-2.257.825-1.174-.45-3.385.331-2.655,4.607.012-.108.113-.8.527-.935s.764.684.669.89a9.234,9.234,0,0,0-.139,1.426l.536.281s-.166-1.06.216-1.38S124.51,103.308,124.583,101.679Z" transform="translate(-121.479 -97.421)" fill="#112f5b"/>
                </g>
              </g>
              <g id="Grupo_7509" data-name="Grupo 7509" transform="translate(11.091 12.547)">
                <g id="Grupo_7508" data-name="Grupo 7508">
                  <path id="Caminho_4153" data-name="Caminho 4153" d="M151.27,141.137l-2.3,3.084-7.425-1.73.426,9.6,6.753-.082,2.224-2.706Z" transform="translate(-141.547 -139.84)" fill="#fff"/>
                  <path id="Caminho_4154" data-name="Caminho 4154" d="M166.761,137.04l-2.3,4.381-.245,7.784,2.224-2.706Z" transform="translate(-157.038 -137.04)" fill="#e6f7ff"/>
                </g>
                <path id="Caminho_4155" data-name="Caminho 4155" d="M169.75,152.253s-.51,1.044-.827,1.164-.071,1.859.9,1.3S170.334,152.308,169.75,152.253Z" transform="translate(-160.165 -147.435)" fill="url(#linear-gradient-8)"/>
              </g>
              <path id="Caminho_4156" data-name="Caminho 4156" d="M121.234,140.466c-.54-.038-1.153.093-2.1.111s-.914-.518-.95-1.284c-.3.223-.482.82-.966,1.171s-.713,0-.713,0l-.1.077c-3.435-.607-5.862-1.459-6.406-2.276-.558-.837.974-3.365,1.106-5.649,0,0,.306-2.864-1.532-1.823s-2.453,8.38-2.453,9.217,6.161,2,9.383,2.293a4.434,4.434,0,0,0,1.856.639C121.13,142.888,121.774,140.5,121.234,140.466Z" transform="translate(-106.929 -120.069)" fill="url(#linear-gradient-4)"/>
              <path id="Caminho_4157" data-name="Caminho 4157" d="M111.168,132.329s-.164-2.614-2-1.573c-.943.534-1.915,3.349-2.639,5.176a8.14,8.14,0,0,0,3.449,1.464A8.565,8.565,0,0,0,111.168,132.329Z" transform="translate(-106.527 -120.032)" fill="#fc88a1"/>
            </g>
          </g>
        </g>
      </g>
    </g>
  </g>
</svg>
