<?xml version="1.0" encoding="utf-8"?>
<!-- Generator: Adobe Illustrator 22.0.0, SVG Export Plug-In . SVG Version: 6.00 Build 0)  -->
<svg version="1.1" id="Camada_1" xmlns="http://www.w3.org/2000/svg" xmlns:xlink="http://www.w3.org/1999/xlink" x="0px" y="0px"
	 viewBox="0 0 86.1 72" style="enable-background:new 0 0 86.1 72;" xml:space="preserve">
<style type="text/css">
	.st0{fill:#333333;}
	.st1{fill:#3F83BF;}
	.st2{fill:#9DC0DE;}
	.st3{fill:#6C7DD9;}
	.st4{fill:#4587C1;}
	.st5{fill:#99BEDD;}
	.st6{fill:#C1C8EF;}
	.st7{opacity:0.3;fill:#6E7ED9;enable-background:new    ;}
</style>
<g id="Grupo_188" transform="translate(-28.911 -32.733)">
	<g id="Grupo_186" transform="translate(29.179 76.075)">
		<path id="Caminho_381" class="st0" d="M13.1,8.1C13.1,8.1,13.1,8.1,13.1,8.1l1.4,0c0.1,0,0.1,0.1,0.1,0.1v6.4
			c0,0.1-0.1,0.1-0.1,0.1h-1.4c-0.1,0-0.1-0.1-0.1-0.1v-2.5c0,0,0,0,0,0c0,0,0,0,0,0h-1.8c0,0,0,0,0,0c0,0,0,0,0,0v2.5
			c0,0.1-0.1,0.1-0.1,0.1H9.7c-0.1,0-0.1-0.1-0.1-0.1V8.2c0-0.1,0.1-0.1,0.1-0.1H11c0.1,0,0.1,0.1,0.1,0.1v2.5c0,0,0,0,0,0
			c0,0,0,0,0,0H13c0,0,0,0,0,0c0,0,0,0,0,0L13.1,8.1C13,8.2,13,8.1,13.1,8.1z"/>
		<path id="Caminho_382" class="st0" d="M19.7,14.7l-0.2-0.8c0,0,0,0,0,0h-2.2c0,0,0,0,0,0l-0.2,0.8c0,0.1-0.1,0.1-0.1,0.1h-1.5
			c0,0-0.1,0-0.1,0c0,0,0-0.1,0-0.1l2-6.4c0-0.1,0.1-0.1,0.1-0.1h1.8c0.1,0,0.1,0,0.1,0.1l2,6.4c0,0,0,0,0,0c0,0.1,0,0.1-0.1,0.1
			h-1.5C19.8,14.8,19.7,14.7,19.7,14.7z M17.6,12.5H19c0,0,0.1,0,0-0.1L18.3,10c0,0,0,0,0,0c0,0,0,0,0,0L17.6,12.5
			C17.6,12.5,17.6,12.5,17.6,12.5L17.6,12.5z"/>
		<path id="Caminho_383" class="st0" d="M23,14.5c-0.4-0.2-0.7-0.5-0.9-0.8c-0.2-0.4-0.3-0.8-0.3-1.3v-2.1c0-0.4,0.1-0.9,0.3-1.2
			c0.2-0.4,0.5-0.6,0.9-0.8C23.4,8.1,23.8,8,24.3,8c0.5,0,0.9,0.1,1.3,0.3c0.4,0.2,0.7,0.4,0.9,0.8c0.2,0.4,0.3,0.8,0.3,1.2
			c0,0,0,0.1,0,0.1c0,0-0.1,0-0.1,0l-1.4,0.1c-0.1,0-0.1,0-0.1-0.1c0-0.3-0.1-0.5-0.3-0.7c-0.2-0.2-0.4-0.3-0.7-0.3
			c-0.3,0-0.5,0.1-0.7,0.3c-0.2,0.2-0.3,0.4-0.3,0.7v2.2c0,0.5,0.4,1,0.9,1s1-0.4,1-0.9c0,0,0-0.1,0-0.1c0-0.1,0-0.1,0.1-0.1
			l1.4,0.1c0,0,0.1,0,0.1,0c0,0,0,0,0,0.1c0,0.4-0.1,0.8-0.3,1.2c-0.2,0.3-0.5,0.6-0.9,0.8c-0.4,0.2-0.9,0.3-1.3,0.3
			C23.8,14.8,23.4,14.7,23,14.5z"/>
		<path id="Caminho_384" class="st0" d="M27.7,14.7C27.7,14.7,27.7,14.7,27.7,14.7l0-6.5c0,0,0-0.1,0-0.1c0,0,0.1,0,0.1,0h1.4
			c0.1,0,0.1,0.1,0.1,0.1v2.5c0,0,0,0,0,0c0,0,0,0,0,0l1.9-2.5c0,0,0.1-0.1,0.1-0.1h1.5c0.1,0,0.1,0,0.1,0.1c0,0,0,0.1,0,0.1
			L30.9,11c0,0,0,0,0,0.1l2.2,3.6c0,0,0,0,0,0.1c0,0,0,0.1-0.1,0.1h-1.5c-0.1,0-0.1,0-0.1-0.1l-1.5-2.5c0,0,0,0-0.1,0l-0.5,0.7
			c0,0,0,0,0,0.1v1.8c0,0.1-0.1,0.1-0.1,0.1L27.7,14.7C27.7,14.7,27.7,14.7,27.7,14.7z"/>
		<path id="Caminho_385" class="st0" d="M33.1,12.6C33,12.6,33,12.6,33.1,12.6l0-1.2c0-0.1,0.1-0.1,0.1-0.1h3.2c0.1,0,0.1,0,0.1,0.1
			c0,0,0,0,0,0v1.1c0,0.1-0.1,0.1-0.1,0.1L33.1,12.6C33.1,12.7,33.1,12.7,33.1,12.6z"/>
		<path id="Caminho_386" class="st0" d="M41.4,14.7l-0.2-0.8c0,0,0,0,0,0H39c0,0,0,0,0,0l-0.2,0.8c0,0.1-0.1,0.1-0.1,0.1h-1.5
			c0,0-0.1,0-0.1,0c0,0,0-0.1,0-0.1l2-6.4c0-0.1,0.1-0.1,0.1-0.1h1.8c0.1,0,0.1,0,0.1,0.1l2,6.4c0,0,0,0,0,0c0,0.1,0,0.1-0.1,0.1
			h-1.5C41.5,14.8,41.4,14.7,41.4,14.7z M39.3,12.5h1.4c0,0,0.1,0,0-0.1L40.1,10c0,0,0,0,0,0s0,0,0,0L39.3,12.5
			C39.3,12.5,39.3,12.5,39.3,12.5L39.3,12.5z"/>
		<path id="Caminho_387" class="st0" d="M43.4,12.6C43.4,12.6,43.4,12.6,43.4,12.6l0-1.2c0-0.1,0-0.1,0.1-0.1c0,0,0,0,0,0h3.2
			c0.1,0,0.1,0.1,0.1,0.1v1.1c0,0.1-0.1,0.1-0.1,0.1L43.4,12.6C43.5,12.7,43.5,12.6,43.4,12.6z"/>
		<path id="Caminho_388" class="st0" d="M48.7,14.5c-0.4-0.2-0.7-0.5-0.9-0.8c-0.2-0.4-0.3-0.8-0.3-1.3v-2.1c0-0.4,0.1-0.9,0.3-1.2
			c0.2-0.4,0.5-0.6,0.9-0.8C49.1,8.1,49.6,8,50,8c0.5,0,0.9,0.1,1.3,0.3c0.4,0.2,0.7,0.4,0.9,0.8c0.2,0.4,0.3,0.8,0.3,1.2
			c0,0,0,0.1,0,0.1c0,0-0.1,0-0.1,0l-1.4,0.1c-0.1,0-0.1,0-0.1-0.1c0-0.3-0.1-0.5-0.3-0.7c-0.2-0.2-0.4-0.3-0.7-0.3
			c-0.3,0-0.5,0.1-0.7,0.3c-0.2,0.2-0.3,0.4-0.3,0.7v2.2c0,0.5,0.4,1,0.9,1s1-0.4,1-0.9c0,0,0-0.1,0-0.1c0-0.1,0-0.1,0.1-0.1
			l1.4,0.1c0,0,0.1,0,0.1,0c0,0,0,0,0,0.1c0,0.4-0.1,0.8-0.3,1.2c-0.2,0.3-0.5,0.6-0.9,0.8c-0.4,0.2-0.9,0.3-1.3,0.3
			C49.6,14.8,49.1,14.7,48.7,14.5z"/>
		<path id="Caminho_389" class="st0" d="M53.4,14.7C53.4,14.7,53.4,14.7,53.4,14.7l0-6.5c0-0.1,0.1-0.1,0.1-0.1h1.4
			c0.1,0,0.1,0.1,0.1,0.1v5.2c0,0,0,0,0,0c0,0,0,0,0,0h3c0.1,0,0.1,0.1,0.1,0.1v1.1c0,0.1-0.1,0.1-0.1,0.1L53.4,14.7
			C53.5,14.7,53.4,14.7,53.4,14.7z"/>
		<path id="Caminho_390" class="st0" d="M63.1,14.7l-0.2-0.8c0,0,0,0,0,0h-2.2c0,0,0,0,0,0l-0.2,0.8c0,0.1-0.1,0.1-0.1,0.1h-1.5
			c0,0-0.1,0-0.1,0c0,0,0-0.1,0-0.1l2-6.4c0-0.1,0.1-0.1,0.1-0.1h1.8c0.1,0,0.1,0,0.1,0.1l2,6.4c0,0,0,0,0,0c0,0.1,0,0.1-0.1,0.1
			h-1.5C63.2,14.8,63.2,14.7,63.1,14.7z M61,12.5h1.4c0,0,0.1,0,0-0.1L61.8,10c0,0,0,0,0,0c0,0,0,0,0,0L61,12.5
			C61,12.5,61,12.5,61,12.5L61,12.5z"/>
		<path id="Caminho_391" class="st0" d="M66.1,14.6c-0.4-0.1-0.7-0.4-0.9-0.7c-0.2-0.3-0.3-0.7-0.3-1.1v-0.2c0-0.1,0.1-0.1,0.1-0.1
			c0,0,0,0,0,0h1.3c0.1,0,0.1,0.1,0.1,0.1c0,0,0,0,0,0v0.1c0,0.2,0.1,0.4,0.3,0.5c0.3,0.2,0.5,0.2,0.8,0.2c0.2,0,0.4,0,0.6-0.2
			c0.1-0.1,0.2-0.3,0.2-0.4c0-0.1,0-0.2-0.1-0.3c-0.1-0.1-0.2-0.2-0.3-0.2c-0.1-0.1-0.3-0.1-0.6-0.2c0,0-0.1,0-0.1,0
			c0,0-0.1,0-0.1,0c-0.4-0.1-0.7-0.3-1.1-0.4c-0.3-0.2-0.6-0.4-0.8-0.6c-0.2-0.3-0.3-0.7-0.3-1c0-0.4,0.1-0.7,0.3-1
			c0.2-0.3,0.5-0.5,0.9-0.7c0.8-0.3,1.7-0.3,2.6,0c0.4,0.2,0.7,0.4,0.9,0.8c0.2,0.3,0.3,0.7,0.3,1.1v0.1c0,0.1-0.1,0.1-0.1,0.1
			c0,0,0,0,0,0h-1.3c-0.1,0-0.1-0.1-0.1-0.1c0,0,0,0,0,0v-0.1c0-0.2-0.1-0.4-0.3-0.6c-0.2-0.2-0.5-0.3-0.8-0.3c-0.2,0-0.4,0-0.6,0.2
			c-0.1,0.1-0.2,0.3-0.2,0.4c0,0.1,0,0.3,0.1,0.3c0.1,0.1,0.3,0.2,0.4,0.3c0.2,0.1,0.5,0.2,0.9,0.3c0.4,0.2,0.8,0.3,1,0.4
			c0.3,0.1,0.5,0.3,0.7,0.6c0.2,0.3,0.3,0.6,0.3,1c0,0.4-0.1,0.8-0.3,1.1c-0.2,0.3-0.5,0.5-0.9,0.7c-0.4,0.2-0.9,0.3-1.3,0.2
			C67,14.8,66.6,14.7,66.1,14.6z"/>
		<path id="Caminho_392" class="st0" d="M71.8,14.6c-0.4-0.1-0.7-0.4-0.9-0.7c-0.2-0.3-0.3-0.7-0.3-1.1v-0.2c0-0.1,0.1-0.1,0.1-0.1
			c0,0,0,0,0,0h1.3c0.1,0,0.1,0.1,0.1,0.1c0,0,0,0,0,0v0.1c0,0.2,0.1,0.4,0.3,0.5c0.3,0.2,0.5,0.2,0.8,0.2c0.2,0,0.4,0,0.6-0.2
			c0.1-0.1,0.2-0.3,0.2-0.4c0-0.1,0-0.2-0.1-0.3c-0.1-0.1-0.2-0.2-0.3-0.2c-0.1-0.1-0.3-0.1-0.6-0.2c0,0-0.1,0-0.1,0
			c0,0-0.1,0-0.1,0c-0.4-0.1-0.7-0.3-1.1-0.4c-0.3-0.2-0.6-0.4-0.8-0.6c-0.2-0.3-0.3-0.7-0.3-1c0-0.4,0.1-0.7,0.3-1
			c0.2-0.3,0.5-0.5,0.9-0.7c0.8-0.3,1.7-0.3,2.6,0c0.4,0.2,0.7,0.4,0.9,0.8c0.2,0.3,0.3,0.7,0.3,1.1v0.1c0,0.1-0.1,0.1-0.1,0.1
			c0,0,0,0,0,0h-1.3c-0.1,0-0.1-0.1-0.1-0.1c0,0,0,0,0,0v-0.1c0-0.2-0.1-0.4-0.3-0.6c-0.2-0.2-0.5-0.3-0.8-0.3c-0.2,0-0.4,0-0.6,0.2
			c-0.1,0.1-0.2,0.3-0.2,0.4c0,0.1,0,0.3,0.1,0.3c0.1,0.1,0.3,0.2,0.4,0.3c0.2,0.1,0.5,0.2,0.9,0.3c0.4,0.2,0.8,0.3,1,0.4
			c0.3,0.1,0.5,0.3,0.7,0.6c0.2,0.3,0.3,0.6,0.3,1c0,0.4-0.1,0.8-0.3,1.1c-0.2,0.3-0.5,0.5-0.9,0.7c-0.4,0.2-0.9,0.3-1.3,0.2
			C72.7,14.8,72.3,14.7,71.8,14.6z"/>
	</g>
	<g id="Grupo_187" transform="translate(28.911 32.733)">
		<path id="Caminho_393" class="st1" d="M26.3,19L26,23h5.8l0.3-4H26.3z"/>
		<path id="Caminho_394" class="st2" d="M24.6,42.1l5.8,0.2l0.1-1.2l-5.8-0.2L24.6,42.1z"/>
		<path id="Caminho_395" class="st1" d="M24.4,45h5.8l0.2-2.7l-5.8-0.2L24.4,45z"/>
		<path id="Caminho_396" class="st1" d="M24.7,40.9l5.8,0.2l1.1-15.4h-5.8L24.7,40.9z"/>
		<path id="Caminho_397" class="st2" d="M25.8,25.7h5.8l0.2-2.7H26L25.8,25.7z"/>
		<rect id="Retângulo_54" x="32.3" y="8.2" class="st2" width="8.1" height="4.5"/>
		<rect id="Retângulo_55" x="32.3" y="20.8" class="st2" width="8.1" height="24.2"/>
		<rect id="Retângulo_56" x="32.3" y="12.7" class="st3" width="8.1" height="8.1"/>
		<rect id="Retângulo_57" x="41.3" y="24.8" class="st4" width="5.8" height="4.9"/>
		<rect id="Retângulo_58" x="41.3" y="29.8" class="st5" width="5.8" height="9.4"/>
		<rect id="Retângulo_59" x="41.3" y="41" class="st5" width="5.8" height="4"/>
		<rect id="Retângulo_60" x="41.3" y="39.2" class="st2" width="5.8" height="1.8"/>
		<rect id="Retângulo_61" x="41.3" y="18.1" class="st5" width="5.8" height="6.7"/>
		<rect id="Retângulo_62" x="41.3" y="12.3" class="st5" width="5.8" height="4.5"/>
		<rect id="Retângulo_63" x="41.3" y="16.7" class="st4" width="5.8" height="1.3"/>
		<path id="Caminho_398" class="st5" d="M50.1,11.2l-2.8,0.2l0.1,1.5l2.8-0.2L50.1,11.2z"/>
		<path id="Caminho_399" class="st4" d="M50,45h2.8l-0.3-3.9l-2.8,0.4L50,45z"/>
		<path id="Caminho_400" class="st4" d="M49.9,8l-2.8,0.2l0.2,3.2l2.8-0.2L49.9,8z"/>
		<path id="Caminho_401" class="st4" d="M50.3,12.8L47.4,13l2,25.9l2.8-0.4L50.3,12.8z"/>
		<path id="Caminho_402" class="st5" d="M49.5,38.9l0.2,2.6l2.8-0.4l-0.2-2.6L49.5,38.9z"/>
		<rect id="Retângulo_64" x="53.4" y="39.2" class="st1" width="8.1" height="5.8"/>
		<rect id="Retângulo_65" x="53.4" y="15" class="st1" width="8.1" height="17.5"/>
		<rect id="Retângulo_66" x="53.4" y="32.4" class="st2" width="8.1" height="6.7"/>
		<rect id="Retângulo_67" x="9.6" y="45" class="st6" width="67" height="4.4"/>
		<rect id="Retângulo_68" x="9.6" y="47.2" class="st7" width="67" height="2.2"/>
		<rect id="Retângulo_69" x="9.6" y="59.6" class="st6" width="67" height="4.4"/>
		<rect id="Retângulo_70" x="9.6" y="61.8" class="st7" width="67" height="2.2"/>
	</g>
</g>
</svg>
