<svg xmlns="http://www.w3.org/2000/svg" width="66.966" height="56" viewBox="0 0 66.966 56">
  <g id="Grupo_188" data-name="Grupo 188" transform="translate(-28.911 -32.733)">
    <g id="Grupo_186" data-name="Grupo 186" transform="translate(29.179 76.075)">
      <path id="Caminho_381" data-name="Caminho 381" d="M33.617,229.748a.11.11,0,0,1,.081-.033h1.354a.114.114,0,0,1,.114.114v6.443a.114.114,0,0,1-.114.114H33.7a.114.114,0,0,1-.114-.114v-2.535a.042.042,0,0,0-.047-.048H31.754a.042.042,0,0,0-.048.048v2.535a.114.114,0,0,1-.114.114H30.238a.114.114,0,0,1-.114-.114v-6.443a.114.114,0,0,1,.114-.114h1.353a.114.114,0,0,1,.114.114v2.459a.042.042,0,0,0,.048.048h1.783a.042.042,0,0,0,.047-.048v-2.459A.111.111,0,0,1,33.617,229.748Z" transform="translate(-30.124 -229.639)" fill="#333"/>
      <path id="Caminho_382" data-name="Caminho 382" d="M60.319,236.291l-.248-.848c-.013-.025-.028-.038-.047-.038H57.85c-.019,0-.035.013-.048.038l-.248.848a.125.125,0,0,1-.133.1H55.963a.107.107,0,0,1-.086-.033.1.1,0,0,1-.009-.1l2.04-6.443a.12.12,0,0,1,.124-.1h1.8a.12.12,0,0,1,.124.1l2.049,6.443a.106.106,0,0,1,.01.048q0,.086-.1.086H60.452A.125.125,0,0,1,60.319,236.291Zm-2.1-2.106h1.42c.038,0,.051-.019.038-.057l-.725-2.45c-.006-.025-.016-.036-.028-.033a.044.044,0,0,0-.029.033l-.715,2.45C58.177,234.166,58.19,234.185,58.222,234.185Z" transform="translate(-50.187 -229.639)" fill="#333"/>
      <path id="Caminho_383" data-name="Caminho 383" d="M86.6,235.9a2.152,2.152,0,0,1-.9-.839,2.435,2.435,0,0,1-.319-1.258v-2.059A2.392,2.392,0,0,1,85.7,230.5a2.162,2.162,0,0,1,.9-.834,2.9,2.9,0,0,1,1.339-.3,3.025,3.025,0,0,1,1.339.281,2.134,2.134,0,0,1,.9.791,2.173,2.173,0,0,1,.319,1.177.1.1,0,0,1-.034.076.12.12,0,0,1-.081.029l-1.354.086q-.114,0-.114-.1a.966.966,0,0,0-.267-.715.954.954,0,0,0-.705-.267.945.945,0,0,0-.705.272.971.971,0,0,0-.267.71v2.163a.973.973,0,1,0,1.944,0c0-.07.038-.1.114-.1l1.354.067a.119.119,0,0,1,.081.029.086.086,0,0,1,.034.067,2.214,2.214,0,0,1-.319,1.191,2.121,2.121,0,0,1-.9.8,3.022,3.022,0,0,1-1.339.281A2.9,2.9,0,0,1,86.6,235.9Z" transform="translate(-73.204 -229.369)" fill="#333"/>
      <path id="Caminho_384" data-name="Caminho 384" d="M112.227,236.353a.11.11,0,0,1-.034-.081v-6.443a.111.111,0,0,1,.034-.081.11.11,0,0,1,.081-.033h1.353a.114.114,0,0,1,.114.114v2.478c0,.019.006.03.019.034a.04.04,0,0,0,.038-.015l1.925-2.545a.172.172,0,0,1,.133-.067h1.544q.1,0,.1.067a.161.161,0,0,1-.029.076l-2.058,2.755a.084.084,0,0,0-.009.067l2.154,3.574a.429.429,0,0,1,.019.067c0,.045-.032.067-.1.067H116a.145.145,0,0,1-.143-.076l-1.5-2.545c-.019-.038-.041-.038-.067,0l-.5.677a.145.145,0,0,0-.019.057v1.773a.114.114,0,0,1-.114.114h-1.353A.11.11,0,0,1,112.227,236.353Z" transform="translate(-94.103 -229.639)" fill="#333"/>
      <path id="Caminho_385" data-name="Caminho 385" d="M136.614,245.694a.109.109,0,0,1-.034-.081v-1.125a.114.114,0,0,1,.114-.114h3.241a.113.113,0,0,1,.114.114v1.125a.114.114,0,0,1-.114.114H136.7A.108.108,0,0,1,136.614,245.694Z" transform="translate(-113.116 -241.067)" fill="#333"/>
      <path id="Caminho_386" data-name="Caminho 386" d="M158.906,236.291l-.248-.848c-.013-.025-.028-.038-.048-.038h-2.173c-.019,0-.035.013-.048.038l-.248.848a.125.125,0,0,1-.133.1H154.55a.107.107,0,0,1-.086-.033.1.1,0,0,1-.009-.1l2.04-6.443a.12.12,0,0,1,.124-.1h1.8a.12.12,0,0,1,.124.1l2.049,6.443a.106.106,0,0,1,.009.048c0,.057-.035.086-.1.086h-1.458A.125.125,0,0,1,158.906,236.291Zm-2.1-2.106h1.42c.038,0,.051-.019.038-.057l-.724-2.45c-.006-.025-.016-.036-.029-.033s-.022.014-.028.033l-.715,2.45C156.765,234.166,156.777,234.185,156.809,234.185Z" transform="translate(-127.044 -229.639)" fill="#333"/>
      <path id="Caminho_387" data-name="Caminho 387" d="M183.7,245.694a.11.11,0,0,1-.033-.081v-1.125a.113.113,0,0,1,.114-.114h3.241a.114.114,0,0,1,.114.114v1.125a.114.114,0,0,1-.114.114h-3.241A.109.109,0,0,1,183.7,245.694Z" transform="translate(-149.825 -241.067)" fill="#333"/>
      <path id="Caminho_388" data-name="Caminho 388" d="M203.347,235.9a2.152,2.152,0,0,1-.9-.839,2.433,2.433,0,0,1-.319-1.258v-2.059a2.39,2.39,0,0,1,.319-1.244,2.163,2.163,0,0,1,.9-.834,2.9,2.9,0,0,1,1.339-.3,3.026,3.026,0,0,1,1.339.281,2.133,2.133,0,0,1,.9.791,2.172,2.172,0,0,1,.319,1.177.1.1,0,0,1-.033.076.121.121,0,0,1-.081.029l-1.353.086q-.114,0-.114-.1a.967.967,0,0,0-.267-.715.954.954,0,0,0-.706-.267.944.944,0,0,0-.705.272.97.97,0,0,0-.267.71v2.163a.973.973,0,1,0,1.944,0c0-.07.038-.1.114-.1l1.353.067a.12.12,0,0,1,.081.029.087.087,0,0,1,.033.067,2.212,2.212,0,0,1-.319,1.191,2.12,2.12,0,0,1-.9.8,3.023,3.023,0,0,1-1.339.281A2.9,2.9,0,0,1,203.347,235.9Z" transform="translate(-164.218 -229.369)" fill="#333"/>
      <path id="Caminho_389" data-name="Caminho 389" d="M228.974,236.353a.11.11,0,0,1-.033-.081v-6.443a.114.114,0,0,1,.114-.114h1.353a.114.114,0,0,1,.114.114v5.156a.042.042,0,0,0,.048.048h3.04a.114.114,0,0,1,.114.114v1.125a.114.114,0,0,1-.114.114h-4.556A.11.11,0,0,1,228.974,236.353Z" transform="translate(-185.118 -229.639)" fill="#333"/>
      <path id="Caminho_390" data-name="Caminho 390" d="M257.449,236.291l-.248-.848c-.013-.025-.028-.038-.047-.038h-2.173c-.019,0-.035.013-.048.038l-.248.848a.125.125,0,0,1-.133.1h-1.458a.107.107,0,0,1-.086-.033.1.1,0,0,1-.009-.1l2.04-6.443a.119.119,0,0,1,.124-.1h1.8a.12.12,0,0,1,.124.1l2.049,6.443a.106.106,0,0,1,.01.048q0,.086-.1.086h-1.458A.125.125,0,0,1,257.449,236.291Zm-2.1-2.106h1.42c.038,0,.051-.019.038-.057l-.725-2.45c-.006-.025-.016-.036-.028-.033a.044.044,0,0,0-.029.033l-.715,2.45C255.308,234.166,255.32,234.185,255.352,234.185Z" transform="translate(-203.867 -229.639)" fill="#333"/>
      <path id="Caminho_391" data-name="Caminho 391" d="M282.443,235.941a2.028,2.028,0,0,1-.905-.724,1.9,1.9,0,0,1-.319-1.091v-.181a.114.114,0,0,1,.114-.115h1.325a.114.114,0,0,1,.114.115v.114a.674.674,0,0,0,.315.548,1.391,1.391,0,0,0,.848.233.9.9,0,0,0,.62-.181.551.551,0,0,0,.2-.419.42.42,0,0,0-.119-.31.951.951,0,0,0-.319-.2q-.2-.081-.62-.224a.562.562,0,0,0-.114-.043.791.791,0,0,1-.1-.033A7.329,7.329,0,0,1,282.4,233a2.322,2.322,0,0,1-.782-.648,1.613,1.613,0,0,1-.324-1.025,1.759,1.759,0,0,1,.31-1.034,1.978,1.978,0,0,1,.863-.682,3.394,3.394,0,0,1,2.569.029,2.183,2.183,0,0,1,.92.753,1.924,1.924,0,0,1,.333,1.115v.133a.114.114,0,0,1-.114.115h-1.325a.114.114,0,0,1-.114-.115v-.067a.767.767,0,0,0-.3-.591,1.162,1.162,0,0,0-.791-.257.973.973,0,0,0-.581.153.5.5,0,0,0-.21.429.481.481,0,0,0,.134.348,1.255,1.255,0,0,0,.415.257q.281.12.862.31.667.229,1.039.4a2.079,2.079,0,0,1,.7.557,1.512,1.512,0,0,1,.329,1.015,1.809,1.809,0,0,1-.315,1.068,2.015,2.015,0,0,1-.881.691,3.326,3.326,0,0,1-1.32.243A3.459,3.459,0,0,1,282.443,235.941Z" transform="translate(-225.872 -229.369)" fill="#333"/>
      <path id="Caminho_392" data-name="Caminho 392" d="M308.344,235.941a2.029,2.029,0,0,1-.905-.724,1.9,1.9,0,0,1-.319-1.091v-.181a.114.114,0,0,1,.114-.115h1.325a.114.114,0,0,1,.114.115v.114a.674.674,0,0,0,.315.548,1.391,1.391,0,0,0,.848.233.9.9,0,0,0,.62-.181.551.551,0,0,0,.2-.419.42.42,0,0,0-.119-.31.952.952,0,0,0-.319-.2q-.2-.081-.62-.224a.557.557,0,0,0-.114-.043.791.791,0,0,1-.1-.033A7.331,7.331,0,0,1,308.3,233a2.322,2.322,0,0,1-.782-.648,1.613,1.613,0,0,1-.324-1.025,1.759,1.759,0,0,1,.31-1.034,1.976,1.976,0,0,1,.863-.682,3.394,3.394,0,0,1,2.569.029,2.181,2.181,0,0,1,.92.753,1.923,1.923,0,0,1,.334,1.115v.133a.114.114,0,0,1-.114.115H310.75a.114.114,0,0,1-.114-.115v-.067a.767.767,0,0,0-.3-.591,1.161,1.161,0,0,0-.791-.257.973.973,0,0,0-.581.153.5.5,0,0,0-.21.429.48.48,0,0,0,.134.348,1.255,1.255,0,0,0,.415.257q.281.12.862.31.667.229,1.039.4a2.079,2.079,0,0,1,.7.557,1.512,1.512,0,0,1,.329,1.015,1.809,1.809,0,0,1-.315,1.068,2.015,2.015,0,0,1-.881.691,3.326,3.326,0,0,1-1.32.243A3.461,3.461,0,0,1,308.344,235.941Z" transform="translate(-246.064 -229.369)" fill="#333"/>
    </g>
    <g id="Grupo_187" data-name="Grupo 187" transform="translate(28.911 32.733)">
      <path id="Caminho_393" data-name="Caminho 393" d="M103.76,82.588l-.3,4.037H109.3l.3-4.037Z" transform="translate(-87.03 -71.599)" fill="#cebd00"/>
      <path id="Caminho_394" data-name="Caminho 394" d="M97.128,183.311l5.825.194.088-1.221-5.825-.194Z" transform="translate(-82.091 -149.169)" fill="#e6dd7d"/>
      <path id="Caminho_395" data-name="Caminho 395" d="M96.193,190.513h5.839l.192-2.666-5.825-.192Z" transform="translate(-81.363 -153.508)" fill="#cebd00"/>
      <path id="Caminho_396" data-name="Caminho 396" d="M97.529,128.316l5.825.194,1.094-15.4H98.609Z" transform="translate(-82.404 -95.395)" fill="#cebd00"/>
      <path id="Caminho_397" data-name="Caminho 397" d="M102.428,103.594h5.839l.228-2.691h-5.839Z" transform="translate(-86.224 -85.878)" fill="#e6dd7d"/>
      <rect id="Retângulo_54" data-name="Retângulo 54" width="8.075" height="4.486" transform="translate(22.718 0.224)" fill="#e6dd7d"/>
      <rect id="Retângulo_55" data-name="Retângulo 55" width="8.075" height="24.222" transform="translate(22.718 12.783)" fill="#e6dd7d"/>
      <rect id="Retângulo_56" data-name="Retângulo 56" width="8.075" height="8.074" transform="translate(22.718 4.71)" fill="#ba8f00"/>
      <rect id="Retângulo_57" data-name="Retângulo 57" width="5.832" height="4.934" transform="translate(31.688 16.821)" fill="#cfbf08"/>
      <rect id="Retângulo_58" data-name="Retângulo 58" width="5.832" height="9.42" transform="translate(31.688 21.754)" fill="#e5dc78"/>
      <rect id="Retângulo_59" data-name="Retângulo 59" width="5.832" height="4.037" transform="translate(31.688 32.969)" fill="#e5dc78"/>
      <rect id="Retângulo_60" data-name="Retângulo 60" width="5.832" height="1.795" transform="translate(31.688 31.174)" fill="#e6dd7d"/>
      <rect id="Retângulo_61" data-name="Retângulo 61" width="5.832" height="6.73" transform="translate(31.688 10.091)" fill="#e5dc78"/>
      <rect id="Retângulo_62" data-name="Retângulo 62" width="5.832" height="4.485" transform="translate(31.688 4.261)" fill="#e5dc78"/>
      <rect id="Retângulo_63" data-name="Retângulo 63" width="5.832" height="1.345" transform="translate(31.688 8.746)" fill="#cfbf08"/>
      <path id="Caminho_398" data-name="Caminho 398" d="M203,47.456l-2.815.2.121,1.53,2.814-.2Z" transform="translate(-162.437 -44.211)" fill="#e5dc78"/>
      <path id="Caminho_399" data-name="Caminho 399" d="M211.237,186.844h2.83l-.308-3.9-2.8.362Z" transform="translate(-170.83 -149.838)" fill="#cfbf08"/>
      <path id="Caminho_400" data-name="Caminho 400" d="M201.889,32.733l-2.814.224.246,3.218,2.815-.2Z" transform="translate(-161.568 -32.733)" fill="#cfbf08"/>
      <path id="Caminho_401" data-name="Caminho 401" d="M203.554,54.395l-2.814.2,2.049,25.929,2.8-.36Z" transform="translate(-162.866 -49.62)" fill="#cfbf08"/>
      <path id="Caminho_402" data-name="Caminho 402" d="M210.038,171.652l.2,2.566,2.8-.36-.2-2.566Z" transform="translate(-170.114 -140.752)" fill="#e5dc78"/>
      <rect id="Retângulo_64" data-name="Retângulo 64" width="8.075" height="5.832" transform="translate(43.799 31.174)" fill="#cebd00"/>
      <rect id="Retângulo_65" data-name="Retângulo 65" width="8.075" height="17.495" transform="translate(43.799 6.952)" fill="#cebd00"/>
      <rect id="Retângulo_66" data-name="Retângulo 66" width="8.075" height="6.728" transform="translate(43.799 24.446)" fill="#e6dd7d"/>
      <rect id="Retângulo_67" data-name="Retângulo 67" width="66.966" height="4.447" transform="translate(0 37.006)" fill="#e2d094"/>
      <rect id="Retângulo_68" data-name="Retângulo 68" width="66.966" height="2.223" transform="translate(0 39.229)" fill="#bb9003" opacity="0.3" style="isolation: isolate"/>
      <rect id="Retângulo_69" data-name="Retângulo 69" width="66.966" height="4.447" transform="translate(0 51.553)" fill="#e2d094"/>
      <rect id="Retângulo_70" data-name="Retângulo 70" width="66.966" height="2.223" transform="translate(0 53.777)" fill="#bb9003" opacity="0.3" style="isolation: isolate"/>
    </g>
  </g>
</svg>
